<?xml version="1.0" encoding="UTF-8"?> <!-- Generator: Adobe Illustrator 26.0.3, SVG Export Plug-In . SVG Version: 6.00 Build 0) --> <svg xmlns="http://www.w3.org/2000/svg" xmlns:xlink="http://www.w3.org/1999/xlink" version="1.1" x="0px" y="0px" viewBox="0 0 300 300" style="enable-background:new 0 0 300 300;" xml:space="preserve"> <style type="text/css"> .st0{fill:#F8F2E6;} .st1{fill:none;stroke:#053947;stroke-width:8.1507;stroke-linecap:round;stroke-miterlimit:10;} .st2{fill:#053947;} .st3{fill:#C89349;} .st4{fill:#FFFFFF;} </style> <g id="badge"> <g> <rect x="51.1" y="51.2" transform="matrix(0.7071 -0.7071 0.7071 0.7071 -62.109 149.8624)" class="st0" width="197.4" height="197.4"></rect> <rect x="48" y="48.1" transform="matrix(0.7071 -0.7071 0.7071 0.7071 -62.1641 149.935)" class="st1" width="203.9" height="203.9"></rect> <g> <polyline class="st2" points="222.3,111.7 222.3,111.7 221.8,111.7 184.2,73.6 144.2,111.7 138.6,111.7 162.5,88.6 160.1,83.7 132.1,111.7 128.3,111.7 158.8,81.6 157,77.8 121.6,111.7 115.7,111.7 135.1,92.6 132.6,87.5 109.1,111.7 105.4,111.7 131.4,85.4 129.6,81.6 98.7,111.7 93.4,111.7 110.4,94.2 108.1,89.5 86.9,111.7 83.2,111.7 106.9,87.4 105,83.6 76.5,111.7 61.3,111.7 "></polyline> <path class="st2" d="M20.7,149.9l37.6-38.5h182.5l38,38l-34.7,34.6l-189.2,0C55,184.2,21.7,150.9,20.7,149.9z"></path> </g> <polygon class="st3" points="60.7,189.8 238.7,189.8 149.9,279.1 "></polygon> <g> <path class="st4" d="M124.8,170.3l-3.6-9h-17.8l-3.4,9H87.9l19.3-46.1h10.8l19.1,46.1H124.8z M112.5,136.5l-5.9,15.8h11.6 L112.5,136.5z"></path> <path class="st4" d="M163.7,136.2c-1-1.2-2.2-2.2-3.7-2.9s-3-1.1-4.5-1.1c-0.7,0-1.5,0.1-2.2,0.2c-0.8,0.1-1.4,0.4-2,0.7 c-0.6,0.4-1.1,0.8-1.5,1.4c-0.4,0.6-0.6,1.3-0.6,2.2c0,0.8,0.2,1.4,0.5,2c0.3,0.5,0.8,1,1.4,1.4c0.6,0.4,1.4,0.7,2.2,1.1 c0.9,0.3,1.8,0.7,2.9,1c1.6,0.5,3.2,1.1,4.9,1.7c1.7,0.6,3.2,1.5,4.6,2.5c1.4,1,2.5,2.3,3.4,3.9c0.9,1.5,1.4,3.5,1.4,5.8 c0,2.6-0.5,4.9-1.5,6.9c-1,1.9-2.3,3.5-3.9,4.8c-1.6,1.3-3.5,2.2-5.7,2.8c-2.1,0.6-4.3,0.9-6.6,0.9c-3.3,0-6.5-0.6-9.6-1.7 c-3.1-1.1-5.6-2.8-7.7-4.9l7.3-7.4c1.1,1.4,2.6,2.5,4.5,3.5c1.8,0.9,3.7,1.4,5.5,1.4c0.8,0,1.6-0.1,2.4-0.3 c0.8-0.2,1.5-0.5,2-0.8c0.6-0.4,1.1-0.9,1.4-1.6c0.3-0.7,0.5-1.4,0.5-2.3c0-0.9-0.2-1.6-0.7-2.2c-0.4-0.6-1.1-1.2-1.9-1.7 c-0.8-0.5-1.8-1-3-1.4s-2.5-0.9-4.1-1.3c-1.5-0.5-2.9-1-4.3-1.7c-1.4-0.7-2.7-1.5-3.8-2.5c-1.1-1-2-2.3-2.7-3.7 c-0.7-1.5-1-3.2-1-5.3c0-2.6,0.5-4.8,1.6-6.6c1-1.8,2.4-3.3,4.1-4.5c1.7-1.2,3.6-2,5.7-2.6c2.1-0.5,4.3-0.8,6.4-0.8 c2.6,0,5.3,0.5,8,1.4c2.7,1,5.1,2.4,7.1,4.2L163.7,136.2z"></path> <path class="st4" d="M176.2,170.3v-46.1h31v9.4H187v8.7h19.1v8.9H187v9.6h21.4v9.5H176.2z"></path> </g> <g> <g> <path class="st2" d="M159.4,250.4c0,1.7-0.3,3.1-0.9,4.3c-0.6,1.2-1.4,2.2-2.4,3c-1,0.8-2.1,1.4-3.4,1.8 c-1.3,0.4-2.6,0.6-3.9,0.6c-1.2,0-2.4-0.2-3.5-0.5c-1.1-0.3-2.1-0.8-3-1.4s-1.7-1.3-2.3-2.2c-0.7-0.9-1.1-1.8-1.4-2.9l5.9-1.8 c0.3,1,0.8,1.7,1.6,2.3c0.8,0.6,1.7,0.9,2.8,0.9c1.1,0,2.1-0.3,2.9-1c0.8-0.7,1.2-1.7,1.2-3c0-0.8-0.2-1.5-0.5-2s-0.8-1-1.3-1.3 c-0.5-0.3-1.1-0.5-1.8-0.7c-0.7-0.1-1.3-0.2-2-0.2c-1,0-2.1,0.1-3.3,0.3s-2.4,0.5-3.3,0.9l0.7-15.6H158v5.5h-11l-0.2,4.3 c0.4-0.1,0.9-0.2,1.4-0.2c0.5,0,1-0.1,1.4-0.1c1.4,0,2.6,0.2,3.8,0.5s2.3,0.9,3.1,1.6c0.9,0.7,1.6,1.6,2.1,2.7 C159.2,247.7,159.4,249,159.4,250.4z"></path> </g> <g> <path class="st2" d="M122.1,205.8c-0.6-0.7-1.3-1.3-2.2-1.7s-1.8-0.6-2.6-0.6c-0.4,0-0.9,0-1.3,0.1c-0.4,0.1-0.9,0.2-1.2,0.4 c-0.4,0.2-0.7,0.5-0.9,0.8c-0.2,0.3-0.4,0.8-0.4,1.3c0,0.5,0.1,0.8,0.3,1.2c0.2,0.3,0.5,0.6,0.8,0.8c0.4,0.2,0.8,0.4,1.3,0.6 c0.5,0.2,1.1,0.4,1.7,0.6c0.9,0.3,1.9,0.6,2.9,1c1,0.4,1.9,0.9,2.7,1.5c0.8,0.6,1.5,1.4,2,2.3s0.8,2,0.8,3.4 c0,1.6-0.3,2.9-0.9,4.1c-0.6,1.1-1.4,2.1-2.3,2.8c-1,0.7-2.1,1.3-3.3,1.7c-1.3,0.4-2.6,0.5-3.9,0.5c-2,0-3.8-0.3-5.7-1 s-3.3-1.6-4.5-2.9l4.3-4.4c0.7,0.8,1.5,1.5,2.6,2.1c1.1,0.6,2.2,0.8,3.3,0.8c0.5,0,1-0.1,1.4-0.2c0.5-0.1,0.9-0.3,1.2-0.5 c0.3-0.2,0.6-0.5,0.8-0.9c0.2-0.4,0.3-0.8,0.3-1.4c0-0.5-0.1-0.9-0.4-1.3c-0.3-0.4-0.6-0.7-1.1-1s-1.1-0.6-1.8-0.8 c-0.7-0.2-1.5-0.5-2.4-0.8c-0.9-0.3-1.7-0.6-2.6-1c-0.8-0.4-1.6-0.9-2.2-1.5c-0.7-0.6-1.2-1.3-1.6-2.2c-0.4-0.9-0.6-1.9-0.6-3.1 c0-1.5,0.3-2.8,0.9-3.9c0.6-1.1,1.4-2,2.4-2.7c1-0.7,2.1-1.2,3.4-1.5c1.3-0.3,2.5-0.5,3.8-0.5c1.5,0,3.1,0.3,4.7,0.8 c1.6,0.6,3,1.4,4.2,2.5L122.1,205.8z"></path> <path class="st2" d="M147.4,225.9l-2.1-5.4h-10.5l-2,5.4h-7.2l11.4-27.3h6.4l11.3,27.3H147.4z M140.1,206l-3.5,9.4h6.9 L140.1,206z"></path> <path class="st2" d="M162.8,204.3v5.6h10.5v5.4h-10.5v10.6h-6.5v-27.3h17.9v5.6H162.8z"></path> <path class="st2" d="M195.6,216.6c0,0.3,0,0.5,0,0.8s0,0.5,0,0.7h-13.9c0.1,0.5,0.2,1,0.5,1.5s0.6,0.8,1,1.1 c0.4,0.3,0.9,0.6,1.4,0.8c0.5,0.2,1.1,0.3,1.6,0.3c1,0,1.8-0.2,2.5-0.6c0.7-0.4,1.3-0.9,1.7-1.4l4.4,2.8c-0.9,1.3-2.1,2.3-3.6,3 c-1.5,0.7-3.2,1.1-5.1,1.1c-1.4,0-2.8-0.2-4.1-0.7c-1.3-0.4-2.4-1.1-3.4-2c-1-0.9-1.7-1.9-2.3-3.2s-0.8-2.7-0.8-4.3 c0-1.6,0.3-3,0.8-4.3s1.3-2.3,2.2-3.2c0.9-0.9,2-1.6,3.3-2.1s2.6-0.7,4.1-0.7c1.4,0,2.7,0.2,3.9,0.7s2.2,1.2,3,2.1 c0.8,0.9,1.5,2,2,3.3C195.3,213.5,195.6,214.9,195.6,216.6z M189.8,214.2c0-1-0.3-1.9-0.9-2.6c-0.6-0.7-1.6-1.1-2.8-1.1 c-0.6,0-1.2,0.1-1.7,0.3s-1,0.5-1.3,0.8c-0.4,0.3-0.7,0.7-0.9,1.2c-0.2,0.4-0.4,0.9-0.4,1.4H189.8z"></path> </g> <g> <path class="st2" d="M194.2,205.8c0-0.5,0.1-1.1,0.3-1.5s0.5-0.9,0.9-1.3s0.8-0.6,1.3-0.8c0.5-0.2,1-0.3,1.5-0.3 c0.5,0,1.1,0.1,1.5,0.3s0.9,0.5,1.3,0.8c0.4,0.4,0.6,0.8,0.9,1.3c0.2,0.5,0.3,1,0.3,1.5c0,0.5-0.1,1.1-0.3,1.5 c-0.2,0.5-0.5,0.9-0.9,1.2c-0.4,0.4-0.8,0.6-1.3,0.8c-0.5,0.2-1,0.3-1.5,0.3c-0.5,0-1.1-0.1-1.5-0.3c-0.5-0.2-0.9-0.5-1.3-0.8 s-0.6-0.8-0.9-1.2C194.3,206.8,194.2,206.3,194.2,205.8z M194.9,205.8c0,0.5,0.1,0.9,0.3,1.3c0.2,0.4,0.4,0.8,0.7,1.1 c0.3,0.3,0.7,0.5,1.1,0.7c0.4,0.2,0.8,0.3,1.3,0.3s0.9-0.1,1.3-0.3c0.4-0.2,0.8-0.4,1.1-0.7c0.3-0.3,0.5-0.7,0.7-1.1 c0.2-0.4,0.3-0.8,0.3-1.3c0-0.5-0.1-0.9-0.3-1.3c-0.2-0.4-0.4-0.8-0.7-1.1c-0.3-0.3-0.7-0.5-1.1-0.7c-0.4-0.2-0.8-0.3-1.3-0.3 s-0.9,0.1-1.3,0.3c-0.4,0.2-0.8,0.4-1.1,0.7c-0.3,0.3-0.5,0.7-0.7,1.1C195,204.9,194.9,205.3,194.9,205.8z M196.7,203.5h1.6 c0.2,0,0.4,0,0.6,0.1c0.2,0,0.4,0.1,0.5,0.2c0.2,0.1,0.3,0.2,0.4,0.4s0.1,0.4,0.1,0.6c0,0.3-0.1,0.6-0.3,0.8 c-0.2,0.2-0.4,0.3-0.8,0.4l1.2,2h-1l-1-1.9h-0.6v1.9h-0.8V203.5z M198.1,205.5c0.2,0,0.5,0,0.7-0.1c0.2-0.1,0.3-0.3,0.3-0.5 c0-0.2-0.1-0.4-0.3-0.5s-0.4-0.1-0.6-0.1h-0.7v1.3H198.1z"></path> </g> </g> </g> </g> <g id="Layer_2"> </g> </svg> 