<?xml version="1.0" encoding="utf-8"?>
<!-- Generator: Adobe Illustrator 28.2.0, SVG Export Plug-In . SVG Version: 6.00 Build 0)  -->
<svg version="1.1" id="Layer_1" xmlns="http://www.w3.org/2000/svg" xmlns:xlink="http://www.w3.org/1999/xlink" x="0px" y="0px"
	 viewBox="0 0 454 445" style="enable-background:new 0 0 454 445;" xml:space="preserve">
<style type="text/css">
	.st0{fill:#03B4A7;}
	.st1{fill:#280F8F;}
	.st2{fill:#FFFFFF;}
	.st3{fill:#0D9DDA;}
</style>
<g id="Layer_1_00000010312130145675476090000007686927028531154856_">
	<g id="Layer_1_00000082362538718048276590000008432127909549740216_">
	</g>
	<g id="Isolation_Mode">
	</g>
</g>
<g>
	<path class="st0" d="M35.9,321.3l4.9,21.4c2.3,9.9,8.9,18.2,18.1,22.7l153.7,74c9.2,4.4,19.8,4.4,29,0l153.7-74
		c9.2-4.4,15.8-12.7,18.1-22.7l5-21.7L35.9,321.3z"/>
	<g>
		<g>
			<path class="st1" d="M241.5,406L418.2,321l33-144.6c2.3-9.9-0.1-20.3-6.4-28.2L338.4,14.9C332,6.9,322.4,2.3,312.3,2.3H141.7
				c-10.2,0-19.8,4.6-26.1,12.6L9.3,148.2c-6.3,7.9-8.7,18.3-6.4,28.2l33.1,144.9L212.5,406C221.7,410.4,232.3,410.4,241.5,406z"/>
		</g>
		<g>
			<g>
				<g>
					<path class="st2" d="M77.9,186.3c-0.1-0.3-0.4-0.6-0.7-0.7c-0.3-0.1-0.7-0.1-1,0.1c-0.1,0-5.5,3.1-13,3.1
						c-9.1,0-15.8-6.4-15.8-15.2c0-9.3,6.5-15.4,16.6-15.4c5.7,0,11.7,2.9,11.8,3c0.3,0.1,0.6,0.2,0.9,0c0.3-0.1,0.5-0.3,0.7-0.6
						l2.9-7.1c0.2-0.5,0-1.1-0.5-1.4c-0.3-0.2-6.7-4-17.1-4c-14.6,0-26.4,11.4-26.4,25.4c0,15,11.3,25.4,27.6,25.4
						c9.8,0,16-4,16.2-4.1c0.5-0.3,0.6-0.9,0.5-1.4L77.9,186.3z"/>
					<path class="st2" d="M93.4,198.1h30.5c0.6,0,1.2-0.5,1.2-1.2v-7.6c0-0.6-0.5-1.2-1.2-1.2h-21.1v-8.9h19c0.6,0,1.2-0.5,1.2-1.2
						v-7.3c0-0.6-0.5-1.2-1.2-1.2h-19v-10.8h21.1c0.6,0,1.2-0.5,1.2-1.2V150c0-0.6-0.5-1.2-1.2-1.2H93.4c-0.6,0-1.2,0.5-1.2,1.2
						v46.9C92.2,197.6,92.8,198.1,93.4,198.1z"/>
					<path class="st2" d="M222.9,148.9h-39.4c-0.6,0-1.2,0.5-1.2,1.2v7.6c0,0.6,0.5,1.2,1.2,1.2h14.5v38.1c0,0.6,0.5,1.2,1.2,1.2
						h8.3c0.6,0,1.2-0.5,1.2-1.2v-38.1h14.3c0.6,0,1.2-0.5,1.2-1.2V150C224,149.4,223.5,148.9,222.9,148.9z"/>
					<path class="st2" d="M244,148.9h-8.3c-0.6,0-1.2,0.5-1.2,1.2v46.9c0,0.6,0.5,1.2,1.2,1.2h8.3c0.6,0,1.2-0.5,1.2-1.2V150
						C245.2,149.4,244.7,148.9,244,148.9z"/>
					<path class="st2" d="M290.4,148.9H260c-0.6,0-1.2,0.5-1.2,1.2v46.9c0,0.6,0.5,1.2,1.2,1.2h8.2c0.6,0,1.2-0.5,1.2-1.2v-17.1
						h18.6c0.6,0,1.2-0.5,1.2-1.2v-7.3c0-0.6-0.5-1.2-1.2-1.2h-18.6v-11.4h21.1c0.6,0,1.2-0.5,1.2-1.2V150
						C291.6,149.4,291.1,148.9,290.4,148.9z"/>
					<path class="st2" d="M312.7,148.9h-8.3c-0.6,0-1.2,0.5-1.2,1.2v46.9c0,0.6,0.5,1.2,1.2,1.2h8.3c0.6,0,1.2-0.5,1.2-1.2V150
						C313.8,149.4,313.3,148.9,312.7,148.9z"/>
					<path class="st2" d="M359.1,148.9h-30.5c-0.6,0-1.2,0.5-1.2,1.2v46.9c0,0.6,0.5,1.2,1.2,1.2h30.5c0.6,0,1.2-0.5,1.2-1.2v-7.6
						c0-0.6-0.5-1.2-1.2-1.2H338v-8.9h19c0.6,0,1.2-0.5,1.2-1.2v-7.3c0-0.6-0.5-1.2-1.2-1.2h-19v-10.8h21.1c0.6,0,1.2-0.5,1.2-1.2
						V150C360.2,149.4,359.7,148.9,359.1,148.9z"/>
					<path class="st2" d="M391.6,148.9h-17.7c-0.6,0-1.2,0.5-1.2,1.2v46.9c0,0.6,0.5,1.2,1.2,1.2h17.7c15,0,26.2-10.6,26.2-24.6
						C417.8,159.2,406.8,148.9,391.6,148.9z M391.6,188.2h-8.3v-29.4h8.3c8.7,0,15,6.2,15,14.8C406.6,181.9,400.2,188.2,391.6,188.2
						z"/>
					<path class="st2" d="M166.8,181.4c5.2-2.9,7.9-8,7.9-14.7c0-11.2-7.4-17.8-19.9-17.8h-15c-0.6,0-1.2,0.5-1.2,1.2v46.9
						c0,0.6,0.5,1.2,1.2,1.2h8.3c0.6,0,1.2-0.5,1.2-1.2v-12.5h4c1.3,0,2.5,0,3.6-0.1l9.6,13.3c0.2,0.3,0.6,0.5,0.9,0.5h9.7
						c0.4,0,0.8-0.2,1-0.6c0.2-0.4,0.2-0.9-0.1-1.2L166.8,181.4z M149.3,158.8h5c6.2,0,9.3,2.6,9.3,7.9c0,5.4-3.1,8.1-9.3,8.1h-5
						V158.8z"/>
				</g>
			</g>
		</g>
		<g>
			<path class="st2" d="M163.7,265.8c2-0.8,3.7-1.9,5-3.2c0.2-0.2,0.2-0.4,0-0.6l-3.4-3.7c-0.1-0.1-0.2-0.1-0.3-0.1
				c-0.1,0-0.2,0-0.3,0.1c-0.9,0.9-2.1,1.6-3.3,2.2c-1.2,0.5-2.6,0.8-4.1,0.8c-3.1,0-5.5-1-7-2.9c-1.5-2-2.3-4.6-2.3-7.9
				c0-3.3,0.8-6,2.3-8c1.5-1.9,3.9-2.9,7.1-2.9c1.3,0,2.6,0.2,3.8,0.7c1.2,0.4,2.3,1.1,3.3,1.9c0.2,0.1,0.4,0.1,0.6,0l3.2-3.6
				c0.1-0.2,0.1-0.4,0-0.6c-1.3-1.2-2.9-2.2-4.9-2.9c-1.9-0.7-4-1.1-6.2-1.1c-3.3,0-6.2,0.7-8.6,2.1c-2.4,1.4-4.2,3.3-5.4,5.8
				c-1.2,2.5-1.8,5.4-1.8,8.7c0,3.2,0.6,6.1,1.8,8.6c1.2,2.5,3,4.5,5.4,5.9c2.4,1.4,5.2,2.1,8.6,2.1
				C159.5,267.1,161.7,266.7,163.7,265.8z"/>
			<path class="st2" d="M184.2,251.2c-4,0-7.1,0.6-9.2,1.8c-2.2,1.2-3.3,3.4-3.3,6.5c0,2.3,0.7,4.2,2.2,5.4c1.5,1.3,3.3,1.9,5.5,1.9
				c1.9,0,3.5-0.3,4.6-0.8c1-0.4,1.8-1.1,2.6-1.9c0.1,0.5,0.2,1.1,0.3,1.8c0,0.2,0.2,0.3,0.4,0.3h5c0.1,0,0.2,0,0.3-0.1
				s0.1-0.2,0.1-0.3c-0.3-2.3-0.4-4-0.4-5.1v-8.6c0-3.3-0.8-5.7-2.4-7.4c-1.6-1.6-4.2-2.4-7.7-2.4c-1.5,0-3.1,0.2-4.7,0.6
				c-1.6,0.4-3,1-4.2,1.8c-0.2,0.1-0.3,0.3-0.2,0.5l1.8,3.6c0,0.1,0.1,0.2,0.2,0.2c0.1,0,0.2,0,0.3,0c2.1-1.1,4.2-1.7,6.3-1.7
				c3.8,0,4.2,1.8,4.2,3.2v0.7C185.5,251.3,184.9,251.2,184.2,251.2z M186,255.7v1.4c0,0.8-0.2,1.6-0.7,2.3
				c-0.4,0.7-1.1,1.3-1.8,1.7c-0.8,0.4-1.7,0.7-2.7,0.7c-0.9,0-1.6-0.2-2.1-0.7c-0.5-0.5-0.7-1.1-0.7-2c0-1.2,0.5-2.1,1.4-2.6
				c1-0.6,2.8-0.8,5.2-0.8L186,255.7z"/>
			<path class="st2" d="M211.4,266.2c0.2-0.1,0.3-0.3,0.2-0.5l-0.8-4c0-0.1-0.1-0.2-0.2-0.3c-0.1-0.1-0.2-0.1-0.3,0
				c-0.5,0.2-1.1,0.2-1.9,0.2c-1.7,0-2.5-0.9-2.5-2.8v-10.8h5.2c0.2,0,0.4-0.2,0.4-0.4v-4.1c0-0.2-0.2-0.4-0.4-0.4H206v-6.8
				c0-0.1-0.1-0.3-0.2-0.3c-0.1-0.1-0.2-0.1-0.4-0.1l-5.5,1.9c-0.2,0.1-0.3,0.2-0.3,0.4v5l-3.3,0.6c-0.2,0-0.3,0.2-0.3,0.4v3.5
				c0,0.2,0.2,0.4,0.4,0.4h3.3v11.3c0,2.4,0.7,4.2,2,5.5c1.3,1.3,3.2,2,5.5,2C208.9,266.9,210.3,266.6,211.4,266.2z"/>
			<path class="st2" d="M230,265.9c0,0.2,0.2,0.3,0.4,0.3h5c0.1,0,0.2,0,0.3-0.1s0.1-0.2,0.1-0.3c-0.3-2.3-0.4-4-0.4-5.1v-8.6
				c0-3.3-0.8-5.7-2.4-7.4c-1.6-1.6-4.2-2.4-7.7-2.4c-1.5,0-3.1,0.2-4.7,0.6c-1.6,0.4-3,1-4.2,1.8c-0.2,0.1-0.3,0.3-0.2,0.5l1.8,3.6
				c0,0.1,0.1,0.2,0.2,0.2c0.1,0,0.2,0,0.3,0c2.1-1.1,4.2-1.7,6.3-1.7c3.8,0,4.2,1.8,4.2,3.2v0.7c-0.5,0-1,0-1.8,0
				c-4,0-7.1,0.6-9.2,1.8c-2.2,1.2-3.3,3.4-3.3,6.5c0,2.3,0.7,4.2,2.2,5.4c1.5,1.3,3.3,1.9,5.5,1.9c1.9,0,3.5-0.3,4.6-0.8
				c1-0.4,1.8-1.1,2.6-1.9C229.8,264.6,229.9,265.2,230,265.9z M229.2,255.7v1.4c0,0.8-0.2,1.6-0.7,2.3c-0.4,0.7-1.1,1.3-1.8,1.7
				c-0.8,0.4-1.7,0.7-2.7,0.7c-0.9,0-1.6-0.2-2.1-0.7c-0.5-0.5-0.7-1.1-0.7-2c0-1.2,0.5-2.1,1.4-2.6c1-0.6,2.8-0.8,5.2-0.8
				L229.2,255.7z"/>
			<path class="st2" d="M242.7,266.3h5.4c0.2,0,0.4-0.2,0.4-0.4v-30.6c0-0.2-0.2-0.4-0.4-0.4h-5.4c-0.2,0-0.4,0.2-0.4,0.4v30.6
				C242.3,266.1,242.4,266.3,242.7,266.3z"/>
			<path class="st2" d="M274.8,243.1c-0.1-0.1-0.2-0.2-0.3-0.2h-5.6c-0.2,0-0.3,0.1-0.4,0.3l-4.6,15.8l-5.1-15.8
				c-0.1-0.2-0.2-0.3-0.4-0.3h-5.9c-0.1,0-0.3,0.1-0.3,0.2c-0.1,0.1-0.1,0.3,0,0.4l8.7,22.5l-1,3c-0.4,1.1-0.9,1.9-1.4,2.4
				c-0.5,0.5-1.2,0.7-2.1,0.7c-0.6,0-1.2-0.1-1.9-0.3c-0.1,0-0.2,0-0.3,0c-0.1,0.1-0.2,0.1-0.2,0.3l-1,4c-0.1,0.2,0.1,0.4,0.2,0.5
				c1.2,0.4,2.5,0.7,4,0.7c2.2,0,3.9-0.6,5.3-1.7c1.3-1.1,2.4-2.9,3.2-5.2l9.3-27C274.9,243.4,274.9,243.2,274.8,243.1z"/>
			<path class="st2" d="M292.5,254.5c-1.2-1.1-2.9-2-5.1-2.5c-1.3-0.3-2.3-0.6-2.9-0.8c-0.6-0.2-1-0.5-1.2-0.8
				c-0.2-0.3-0.3-0.7-0.3-1.2c0-0.6,0.2-1,0.8-1.3c0.6-0.3,1.4-0.5,2.5-0.5c1.7,0,3.4,0.5,5.1,1.6c0.2,0.1,0.4,0.1,0.6-0.1l2.2-3.4
				c0.1-0.2,0.1-0.4-0.1-0.5c-2.2-1.6-4.9-2.5-7.9-2.5c-2.7,0-5,0.6-6.6,1.9c-1.7,1.3-2.6,3-2.6,5.3c0,1.9,0.6,3.5,1.7,4.7
				c1.1,1.1,2.8,2,5.1,2.5c1.3,0.3,2.3,0.6,2.9,0.8c0.6,0.2,1,0.5,1.2,0.8c0.2,0.3,0.3,0.7,0.3,1.2c0,0.8-0.3,1.4-0.8,1.7
				c-0.6,0.4-1.5,0.6-2.6,0.6c-1,0-2-0.1-2.8-0.4c-0.9-0.3-1.8-0.7-2.7-1.3c-0.2-0.1-0.4-0.1-0.5,0.1l-2.3,3.4
				c-0.1,0.2-0.1,0.4,0.1,0.6c2.3,1.8,5.2,2.6,8.6,2.6c2.7,0,5-0.7,6.8-2c1.9-1.3,2.9-3.3,2.9-5.8
				C294.3,257.2,293.7,255.7,292.5,254.5z"/>
			<path class="st2" d="M311.2,261.5c-0.1-0.1-0.2-0.1-0.3,0c-0.5,0.2-1.1,0.2-1.9,0.2c-1.7,0-2.5-0.9-2.5-2.8v-10.8h5.2
				c0.2,0,0.4-0.2,0.4-0.4v-4.1c0-0.2-0.2-0.4-0.4-0.4h-5.2v-6.8c0-0.1-0.1-0.3-0.2-0.3c-0.1-0.1-0.2-0.1-0.4-0.1l-5.5,1.9
				c-0.2,0.1-0.3,0.2-0.3,0.4v5l-3.3,0.6c-0.2,0-0.3,0.2-0.3,0.4v3.5c0,0.2,0.2,0.4,0.4,0.4h3.3v11.3c0,2.4,0.7,4.2,2,5.5
				c1.3,1.3,3.2,2,5.5,2c1.6,0,2.9-0.2,4.1-0.7c0.2-0.1,0.3-0.3,0.2-0.5l-0.8-4C311.4,261.6,311.3,261.5,311.2,261.5z"/>
			<path class="st2" d="M137.1,295.8c-2.2-0.6-3.8-1.2-4.8-1.8c-0.9-0.6-1.3-1.4-1.3-2.5c0-1.1,0.4-1.9,1.3-2.5
				c0.9-0.6,2.1-0.9,3.7-0.9c1.3,0,2.5,0.2,3.6,0.5c1.1,0.3,2.3,0.9,3.5,1.6c0.2,0.1,0.4,0.1,0.5-0.1l2.6-3.7
				c0.1-0.2,0.1-0.4-0.1-0.6c-2.9-2.1-6.3-3.1-10.1-3.1c-2.1,0-4,0.3-5.7,1c-1.7,0.7-3.1,1.7-4,3.1c-1,1.4-1.5,3-1.5,4.9
				c0,2.5,0.8,4.5,2.3,5.9c1.5,1.4,3.7,2.5,6.5,3.3c1.7,0.5,3,0.9,4,1.3c0.9,0.4,1.6,0.9,2.1,1.5c0.5,0.6,0.7,1.4,0.7,2.4
				c0,1.4-0.5,2.4-1.4,3c-1,0.7-2.4,1.1-4.1,1.1c-1.5,0-2.8-0.2-4-0.5c-1.2-0.4-2.4-1-3.5-1.8c-0.2-0.1-0.4-0.1-0.6,0.1l-2.7,3.6
				c-0.1,0.2-0.1,0.4,0.1,0.6c1.4,1.2,3.1,2.1,4.9,2.7c1.8,0.6,3.8,1,5.9,1c2.2,0,4.2-0.4,6.1-1.1c1.8-0.7,3.3-1.8,4.4-3.3
				c1.1-1.5,1.6-3.3,1.6-5.5c0-2.9-0.8-5.1-2.5-6.6C142.5,297.7,140.1,296.6,137.1,295.8z"/>
			<path class="st2" d="M170.4,292.7c-1.5-1.1-3.4-1.7-5.6-1.7c-2.9,0-5.3,0.9-7,2.8c-0.1-0.5-0.2-1.1-0.3-1.9
				c0-0.2-0.2-0.3-0.4-0.3h-5.2c-0.1,0-0.2,0-0.3,0.1c-0.1,0.1-0.1,0.2-0.1,0.3c0.3,2.3,0.4,4,0.4,5.1v27.9c0,0.2,0.2,0.4,0.4,0.4
				h5.4c0.2,0,0.4-0.2,0.4-0.4v-11.3c1.7,1.2,3.8,1.8,6.1,1.8c2.2,0,4.1-0.6,5.7-1.6c1.6-1.1,2.9-2.6,3.7-4.5
				c0.8-1.9,1.2-3.9,1.2-6.2c0-2.3-0.4-4.3-1.1-6.1C173,295.3,171.9,293.8,170.4,292.7z M163.5,296.2c1.6,0,2.8,0.6,3.6,1.8
				c0.9,1.2,1.3,3,1.3,5.3c0,2.3-0.5,4.1-1.4,5.3c-0.9,1.3-2.3,1.9-4.1,1.9c-0.9,0-1.8-0.1-2.5-0.4c-0.7-0.3-1.5-0.7-2.3-1.2v-7
				c0-1.6,0.5-3,1.5-4.1C160.6,296.7,161.9,296.2,163.5,296.2z"/>
			<path class="st2" d="M190.2,291c-3.6,0-6.4,1.1-8.3,3.4c-1.9,2.2-2.9,5.2-2.9,8.9c0,2.4,0.5,4.6,1.4,6.4c0.9,1.9,2.3,3.3,4.1,4.3
				c1.8,1,3.9,1.5,6.3,1.5c1.9,0,3.6-0.2,5.1-0.7c1.5-0.5,3-1.2,4.3-2.2c0.2-0.1,0.2-0.4,0.1-0.6l-2.3-3.5c-0.1-0.2-0.4-0.2-0.6-0.1
				c-1.1,0.7-2.1,1.2-3,1.5c-0.9,0.3-2,0.5-3.2,0.5c-1.7,0-3.1-0.5-4.1-1.3c-0.9-0.8-1.5-2-1.7-3.4h15.2c0.2,0,0.4-0.2,0.4-0.4
				c0.1-0.7,0.1-1.4,0.1-2.1c0-3.7-0.9-6.7-2.7-8.9C196.4,292.1,193.7,291,190.2,291z M190.2,295.9c1.5,0,2.6,0.5,3.4,1.4
				c0.7,0.9,1.1,2.1,1.3,3.5h-9.6c0.2-1.4,0.6-2.5,1.4-3.4C187.4,296.4,188.6,295.9,190.2,295.9z"/>
			<path class="st2" d="M217,291c-2.4,0-4.6,0.5-6.3,1.5c-1.8,1-3.2,2.4-4.1,4.3c-0.9,1.8-1.4,4-1.4,6.4c0,2,0.3,3.9,1,5.7
				c0.7,1.9,1.9,3.4,3.6,4.7c1.7,1.3,4,1.9,6.8,1.9c1.5,0,3-0.2,4.4-0.6c1.4-0.4,2.7-1.1,3.8-1.9c0.2-0.1,0.2-0.3,0.1-0.5l-1.9-3.9
				c-0.1-0.1-0.1-0.2-0.2-0.2c-0.1,0-0.2,0-0.3,0c-1.9,1.1-3.7,1.7-5.4,1.7c-1.9,0-3.2-0.6-4.2-1.9c-1-1.3-1.4-3-1.4-5.1
				c0-2.2,0.5-3.9,1.4-5.1c0.9-1.2,2.3-1.8,4.3-1.8c1.8,0,3.6,0.5,5.2,1.6c0.1,0.1,0.2,0.1,0.3,0.1c0.1,0,0.2-0.1,0.3-0.2l2-3.8
				c0.1-0.2,0-0.4-0.1-0.5C222.5,291.9,219.9,291,217,291z"/>
			<path class="st2" d="M235.6,291.6h-5.4c-0.2,0-0.4,0.2-0.4,0.4v22.5c0,0.2,0.2,0.4,0.4,0.4h5.4c0.2,0,0.4-0.2,0.4-0.4V292
				C236,291.8,235.8,291.6,235.6,291.6z"/>
			<path class="st2" d="M232.9,281.5c-2.4,0-3.7,1.2-3.7,3.5c0,1,0.3,1.8,0.9,2.5c0.6,0.7,1.6,1,2.9,1c1.3,0,2.2-0.3,2.8-1
				c0.6-0.7,0.9-1.5,0.9-2.5c0-1-0.3-1.9-0.9-2.5C235.1,281.8,234.2,281.5,232.9,281.5z"/>
			<path class="st2" d="M261.9,300.8c0-3.3-0.8-5.7-2.4-7.4c-1.6-1.6-4.2-2.4-7.7-2.4c-1.5,0-3.1,0.2-4.7,0.6c-1.6,0.4-3,1-4.2,1.8
				c-0.2,0.1-0.3,0.3-0.2,0.5l1.8,3.6c0,0.1,0.1,0.2,0.2,0.2c0.1,0,0.2,0,0.3,0c2.1-1.1,4.2-1.7,6.3-1.7c3.8,0,4.2,1.8,4.2,3.2v0.7
				c-0.5,0-1,0-1.8,0c-4,0-7.1,0.6-9.2,1.8c-2.2,1.2-3.3,3.4-3.3,6.5c0,2.3,0.7,4.2,2.2,5.4c1.5,1.3,3.3,1.9,5.5,1.9
				c1.9,0,3.5-0.3,4.6-0.8c1-0.4,1.8-1.1,2.6-1.9c0.1,0.5,0.2,1.1,0.3,1.8c0,0.2,0.2,0.3,0.4,0.3h5c0.1,0,0.2,0,0.3-0.1
				c0.1-0.1,0.1-0.2,0.1-0.3c-0.3-2.3-0.4-4-0.4-5.1V300.8z M255.7,304.4v1.4c0,0.8-0.2,1.6-0.7,2.3c-0.4,0.7-1.1,1.3-1.8,1.7
				c-0.8,0.4-1.7,0.7-2.7,0.7c-0.9,0-1.6-0.2-2.1-0.7c-0.5-0.5-0.7-1.1-0.7-2c0-1.2,0.5-2.1,1.4-2.6c1-0.6,2.8-0.8,5.2-0.8
				L255.7,304.4z"/>
			<path class="st2" d="M274.6,283.5h-5.4c-0.2,0-0.4,0.2-0.4,0.4v30.6c0,0.2,0.2,0.4,0.4,0.4h5.4c0.2,0,0.4-0.2,0.4-0.4v-30.6
				C275,283.7,274.8,283.5,274.6,283.5z"/>
			<path class="st2" d="M287.9,291.6h-5.4c-0.2,0-0.4,0.2-0.4,0.4v22.5c0,0.2,0.2,0.4,0.4,0.4h5.4c0.2,0,0.4-0.2,0.4-0.4V292
				C288.3,291.8,288.1,291.6,287.9,291.6z"/>
			<path class="st2" d="M285.2,281.5c-2.4,0-3.7,1.2-3.7,3.5c0,1,0.3,1.8,0.9,2.5c0.6,0.7,1.6,1,2.9,1c1.3,0,2.2-0.3,2.8-1
				c0.6-0.7,0.9-1.5,0.9-2.5c0-1-0.3-1.9-0.9-2.5C287.4,281.8,286.5,281.5,285.2,281.5z"/>
			<path class="st2" d="M304.4,300.7c-1.3-0.3-2.3-0.6-3-0.8c-0.6-0.2-1-0.5-1.2-0.8c-0.2-0.3-0.3-0.7-0.3-1.2c0-0.6,0.2-1,0.8-1.3
				c0.6-0.3,1.4-0.5,2.5-0.5c1.7,0,3.4,0.5,5.1,1.6c0.2,0.1,0.4,0.1,0.6-0.1l2.2-3.4c0.1-0.2,0.1-0.4-0.1-0.5
				c-2.2-1.6-4.9-2.5-7.9-2.5c-2.7,0-5,0.6-6.6,1.9c-1.7,1.3-2.6,3-2.6,5.3c0,2,0.6,3.5,1.7,4.7c1.1,1.1,2.8,2,5.1,2.5
				c1.3,0.3,2.3,0.6,2.9,0.8c0.6,0.2,1,0.5,1.2,0.8c0.2,0.3,0.3,0.7,0.3,1.2c0,0.8-0.3,1.4-0.8,1.7c-0.6,0.4-1.5,0.6-2.6,0.6
				c-1,0-2-0.1-2.8-0.4c-0.9-0.3-1.8-0.7-2.7-1.3c-0.2-0.1-0.4-0.1-0.5,0.1l-2.3,3.4c-0.1,0.2-0.1,0.4,0.1,0.6
				c2.3,1.8,5.2,2.6,8.6,2.6c2.7,0,5-0.7,6.8-2c1.9-1.3,2.9-3.3,2.9-5.8c0-1.9-0.6-3.4-1.8-4.6C308.4,302.1,306.6,301.2,304.4,300.7
				z"/>
			<path class="st2" d="M328.5,310.4c0-0.1-0.1-0.2-0.2-0.3c-0.1-0.1-0.2-0.1-0.3,0c-0.5,0.2-1.1,0.2-1.9,0.2
				c-1.7,0-2.5-0.9-2.5-2.8v-10.8h5.2c0.2,0,0.4-0.2,0.4-0.4v-4.1c0-0.2-0.2-0.4-0.4-0.4h-5.2V285c0-0.1-0.1-0.3-0.2-0.3
				c-0.1-0.1-0.2-0.1-0.4-0.1l-5.5,1.9c-0.2,0.1-0.3,0.2-0.3,0.4v5l-3.3,0.6c-0.2,0-0.3,0.2-0.3,0.4v3.5c0,0.2,0.2,0.4,0.4,0.4h3.3
				v11.3c0,2.4,0.7,4.2,2,5.5c1.3,1.3,3.2,2,5.5,2c1.6,0,2.9-0.2,4.1-0.7c0.2-0.1,0.3-0.3,0.2-0.5L328.5,310.4z"/>
		</g>
		<g>
			<g>
				<path class="st3" d="M216.5,43.8c4-4.2,9.6-6.8,15.8-6.8c8.2,0,15.4,4.6,19.2,11.4c3.3-1.5,7-2.3,10.9-2.3
					c14.8,0,26.9,12.1,26.9,27.1c0,15-12,27.1-26.9,27.1c-1.8,0-3.6-0.2-5.3-0.5c-3.4,6-9.8,10.1-17.1,10.1c-3.1,0-6-0.7-8.6-2
					c-3.4,8-11.4,13.7-20.6,13.7c-9.6,0-17.9-6.1-21-14.7c-1.4,0.3-2.8,0.4-4.3,0.4c-11.5,0-20.8-9.4-20.8-21
					c0-7.8,4.2-14.6,10.4-18.2c-1.3-2.9-2-6.2-2-9.6c0-13.3,10.8-24.2,24.2-24.2C205.2,34.3,212.1,38,216.5,43.8z"/>
			</g>
		</g>
	</g>
</g>
</svg>
