<?xml version="1.0" encoding="utf-8"?>
<!-- Generator: Adobe Illustrator 28.3.0, SVG Export Plug-In . SVG Version: 6.00 Build 0)  -->
<svg version="1.1" id="Layer_1" xmlns="http://www.w3.org/2000/svg" xmlns:xlink="http://www.w3.org/1999/xlink" x="0px" y="0px"
	 viewBox="0 0 454 445" style="enable-background:new 0 0 454 445;" xml:space="preserve">
<style type="text/css">
	.st0{fill:#8E9BEF;}
	.st1{fill:#280F8F;}
	.st2{fill:#FFFFFF;}
	.st3{fill:#0D9DDA;}
</style>
<g id="Layer_1_00000010312130145675476090000007686927028531154856_">
	<g id="Layer_1_00000082362538718048276590000008432127909549740216_">
	</g>
	<g id="Isolation_Mode">
	</g>
</g>
<g>
	<path class="st0" d="M36.4,320.3l4.9,21.4c2.3,9.9,8.9,18.2,18.1,22.7l153.7,74c9.2,4.4,19.8,4.4,29,0l153.7-74
		c9.2-4.4,15.8-12.7,18.1-22.7l5-21.7L36.4,320.3z"/>
	<g>
		<g>
			<path class="st1" d="M242,404.9L418.7,320l33-144.6c2.3-9.9-0.1-20.3-6.4-28.2L338.9,13.8C332.6,5.9,323,1.2,312.8,1.2H142.2
				c-10.2,0-19.8,4.6-26.1,12.6L9.8,147.2c-6.3,7.9-8.7,18.3-6.4,28.2l33.1,144.9L213,404.9C222.2,409.3,232.8,409.3,242,404.9z"/>
		</g>
		<g>
			<g>
				<g>
					<path class="st2" d="M78.4,185.3c-0.1-0.3-0.4-0.6-0.7-0.7c-0.3-0.1-0.7-0.1-1,0.1c-0.1,0-5.5,3.1-13,3.1
						c-9.1,0-15.8-6.4-15.8-15.2c0-9.3,6.5-15.4,16.6-15.4c5.7,0,11.7,2.9,11.8,3c0.3,0.1,0.6,0.2,0.9,0c0.3-0.1,0.5-0.3,0.7-0.6
						l2.9-7.1c0.2-0.5,0-1.1-0.5-1.4c-0.3-0.2-6.7-4-17.1-4c-14.6,0-26.4,11.4-26.4,25.4c0,15,11.3,25.4,27.6,25.4
						c9.8,0,16-4,16.2-4.1c0.5-0.3,0.6-0.9,0.5-1.4L78.4,185.3z"/>
					<path class="st2" d="M93.9,197h30.5c0.6,0,1.2-0.5,1.2-1.2v-7.6c0-0.6-0.5-1.2-1.2-1.2h-21.1v-8.9h19c0.6,0,1.2-0.5,1.2-1.2
						v-7.3c0-0.6-0.5-1.2-1.2-1.2h-19v-10.8h21.1c0.6,0,1.2-0.5,1.2-1.2V149c0-0.6-0.5-1.2-1.2-1.2H93.9c-0.6,0-1.2,0.5-1.2,1.2
						v46.9C92.7,196.5,93.3,197,93.9,197z"/>
					<path class="st2" d="M223.4,147.8H184c-0.6,0-1.2,0.5-1.2,1.2v7.6c0,0.6,0.5,1.2,1.2,1.2h14.5v38.1c0,0.6,0.5,1.2,1.2,1.2h8.3
						c0.6,0,1.2-0.5,1.2-1.2v-38.1h14.3c0.6,0,1.2-0.5,1.2-1.2V149C224.5,148.3,224,147.8,223.4,147.8z"/>
					<path class="st2" d="M244.5,147.8h-8.3c-0.6,0-1.2,0.5-1.2,1.2v46.9c0,0.6,0.5,1.2,1.2,1.2h8.3c0.6,0,1.2-0.5,1.2-1.2V149
						C245.7,148.3,245.2,147.8,244.5,147.8z"/>
					<path class="st2" d="M290.9,147.8h-30.5c-0.6,0-1.2,0.5-1.2,1.2v46.9c0,0.6,0.5,1.2,1.2,1.2h8.2c0.6,0,1.2-0.5,1.2-1.2v-17.1
						h18.6c0.6,0,1.2-0.5,1.2-1.2v-7.3c0-0.6-0.5-1.2-1.2-1.2h-18.6v-11.4h21.1c0.6,0,1.2-0.5,1.2-1.2V149
						C292.1,148.3,291.6,147.8,290.9,147.8z"/>
					<path class="st2" d="M313.2,147.8h-8.3c-0.6,0-1.2,0.5-1.2,1.2v46.9c0,0.6,0.5,1.2,1.2,1.2h8.3c0.6,0,1.2-0.5,1.2-1.2V149
						C314.3,148.3,313.8,147.8,313.2,147.8z"/>
					<path class="st2" d="M359.6,147.8h-30.5c-0.6,0-1.2,0.5-1.2,1.2v46.9c0,0.6,0.5,1.2,1.2,1.2h30.5c0.6,0,1.2-0.5,1.2-1.2v-7.6
						c0-0.6-0.5-1.2-1.2-1.2h-21.1v-8.9h19c0.6,0,1.2-0.5,1.2-1.2v-7.3c0-0.6-0.5-1.2-1.2-1.2h-19v-10.8h21.1c0.6,0,1.2-0.5,1.2-1.2
						V149C360.7,148.3,360.2,147.8,359.6,147.8z"/>
					<path class="st2" d="M392.1,147.8h-17.7c-0.6,0-1.2,0.5-1.2,1.2v46.9c0,0.6,0.5,1.2,1.2,1.2h17.7c15,0,26.2-10.6,26.2-24.6
						C418.3,158.1,407.3,147.8,392.1,147.8z M392.1,187.1h-8.3v-29.4h8.3c8.7,0,15,6.2,15,14.8C407.1,180.8,400.7,187.1,392.1,187.1
						z"/>
					<path class="st2" d="M167.3,180.4c5.2-2.9,7.9-8,7.9-14.7c0-11.2-7.4-17.8-19.9-17.8h-15c-0.6,0-1.2,0.5-1.2,1.2V196
						c0,0.6,0.5,1.2,1.2,1.2h8.3c0.6,0,1.2-0.5,1.2-1.2v-12.5h4c1.3,0,2.5,0,3.6-0.1l9.6,13.3c0.2,0.3,0.6,0.5,0.9,0.5h9.7
						c0.4,0,0.8-0.2,1-0.6c0.2-0.4,0.2-0.9-0.1-1.2L167.3,180.4z M149.8,157.7h5c6.2,0,9.3,2.6,9.3,7.9c0,5.4-3.1,8.1-9.3,8.1h-5
						V157.7z"/>
				</g>
			</g>
		</g>
		<g>
			<path class="st2" d="M76.8,236.1h-5.3c-0.2,0-0.4,0.2-0.4,0.4v11.3H58.8v-11.3c0-0.2-0.2-0.4-0.4-0.4h-5.2
				c-0.2,0-0.4,0.2-0.4,0.4v28.3c0,0.2,0.2,0.4,0.4,0.4h5.2c0.2,0,0.4-0.2,0.4-0.4v-12h12.3v12c0,0.2,0.2,0.4,0.4,0.4h5.3
				c0.2,0,0.4-0.2,0.4-0.4v-28.3C77.2,236.3,77,236.1,76.8,236.1z"/>
			<path class="st2" d="M101.2,243.6H96c-0.2,0-0.3,0.1-0.4,0.3l-4.2,14.5l-4.7-14.5c-0.1-0.2-0.2-0.3-0.4-0.3h-5.4
				c-0.1,0-0.3,0.1-0.3,0.2s-0.1,0.3,0,0.4l8,20.8l-0.9,2.8c-0.4,1-0.8,1.8-1.3,2.2c-0.4,0.4-1.1,0.7-1.9,0.7
				c-0.6,0-1.1-0.1-1.7-0.3c-0.1,0-0.2,0-0.3,0s-0.2,0.1-0.2,0.3l-1,3.7c-0.1,0.2,0.1,0.4,0.2,0.5c1.1,0.4,2.3,0.6,3.7,0.6
				c2,0,3.7-0.5,4.9-1.6c1.2-1,2.2-2.7,3-4.8l8.6-25c0-0.1,0-0.3-0.1-0.4C101.5,243.7,101.3,243.6,101.2,243.6z"/>
			<path class="st2" d="M122.1,244.6c-1.4-1-3.2-1.5-5.2-1.5c-2.7,0-4.8,0.9-6.5,2.5c-0.1-0.5-0.1-1-0.2-1.6c0-0.2-0.2-0.3-0.4-0.3
				H105c-0.1,0-0.2,0-0.3,0.1c-0.1,0.1-0.1,0.2-0.1,0.3c0.2,2.1,0.4,3.7,0.4,4.7v25.8c0,0.2,0.2,0.4,0.4,0.4h5
				c0.2,0,0.4-0.2,0.4-0.4v-10.4c1.6,1.1,3.5,1.6,5.6,1.6c2,0,3.8-0.5,5.3-1.5s2.6-2.4,3.4-4.2c0.8-1.7,1.2-3.7,1.2-5.7
				c0-2.1-0.3-4-1-5.7C124.5,247,123.5,245.6,122.1,244.6z M115.7,247.8c1.4,0,2.5,0.5,3.3,1.6s1.2,2.8,1.2,4.9s-0.4,3.7-1.3,4.9
				s-2.1,1.7-3.8,1.7c-0.9,0-1.6-0.1-2.3-0.4c-0.7-0.2-1.4-0.6-2.1-1.1V253c0-1.5,0.5-2.7,1.4-3.7
				C113,248.3,114.2,247.8,115.7,247.8z"/>
			<path class="st2" d="M135,264.3c1.6,0.9,3.6,1.4,5.8,1.4c1.7,0,3.3-0.2,4.7-0.7s2.7-1.1,4-2c0.2-0.1,0.2-0.4,0.1-0.6l-2.2-3.2
				c-0.1-0.2-0.4-0.2-0.6-0.1c-1,0.6-1.9,1.1-2.8,1.4c-0.8,0.3-1.8,0.4-3,0.4c-1.6,0-2.9-0.4-3.7-1.2c-0.8-0.7-1.3-1.8-1.6-3.1h14
				c0.2,0,0.4-0.2,0.4-0.4c0.1-0.6,0.1-1.3,0.1-1.9c0-3.4-0.9-6.2-2.5-8.2c-1.7-2.1-4.2-3.1-7.5-3.1s-5.9,1.1-7.7,3.1
				c-1.8,2.1-2.7,4.8-2.7,8.2c0,2.2,0.4,4.2,1.3,5.9C132.1,262.1,133.4,263.4,135,264.3z M135.8,252.1c0.2-1.2,0.6-2.3,1.3-3.1
				c0.8-0.9,1.8-1.4,3.3-1.4c1.4,0,2.4,0.4,3.1,1.3c0.7,0.8,1,1.9,1.1,3.1L135.8,252.1L135.8,252.1z"/>
			<path class="st2" d="M161.3,264.8v-10.9c0-1.7,0.5-3,1.4-4.1s2.1-1.6,3.8-1.6c0.6,0,1.1,0,1.4,0.1c0.1,0,0.2,0,0.3-0.1
				s0.1-0.2,0.2-0.3l0.2-4.3c0-0.2-0.1-0.4-0.3-0.4c-0.4-0.1-0.9-0.2-1.4-0.2c-2.6,0-4.6,0.9-5.9,2.7c-0.1-0.5-0.1-1.1-0.2-1.8
				c0-0.2-0.2-0.3-0.4-0.3h-4.8c-0.1,0-0.2,0-0.3,0.1s-0.1,0.2-0.1,0.3c0.2,2.1,0.4,3.7,0.4,4.7v16c0,0.2,0.2,0.4,0.4,0.4h5
				C161.1,265.2,161.3,265,161.3,264.8z"/>
			<path class="st2" d="M184,264.9c0,0.2,0.2,0.3,0.4,0.3h4.6c0.1,0,0.2,0,0.3-0.1s0.1-0.2,0.1-0.3c-0.2-2.1-0.4-3.7-0.4-4.7v-7.9
				c0-3-0.8-5.3-2.2-6.8c-1.5-1.5-3.9-2.3-7.2-2.3c-1.4,0-2.9,0.2-4.3,0.6c-1.4,0.4-2.8,0.9-3.9,1.6c-0.2,0.1-0.3,0.3-0.2,0.5
				l1.7,3.3c0,0.1,0.1,0.2,0.2,0.2c0.1,0,0.2,0,0.3,0c1.9-1,3.9-1.6,5.8-1.6c3.5,0,3.9,1.7,3.9,3v0.6c-0.4,0-0.9,0-1.6,0
				c-3.7,0-6.6,0.6-8.5,1.6c-2.1,1.1-3.1,3.2-3.1,6c0,2.2,0.7,3.9,2.1,5c1.4,1.2,3.1,1.8,5.1,1.8c1.8,0,3.2-0.3,4.3-0.8
				c0.9-0.4,1.7-1,2.3-1.7C183.8,263.7,183.9,264.2,184,264.9z M183.2,255.5v1.3c0,0.7-0.2,1.4-0.6,2.1c-0.4,0.6-1,1.2-1.7,1.6
				s-1.5,0.6-2.4,0.6c-0.8,0-1.4-0.2-1.9-0.6s-0.7-1-0.7-1.8c0-1.1,0.4-1.9,1.3-2.4c0.9-0.5,2.6-0.8,4.8-0.8L183.2,255.5z"/>
			<path class="st2" d="M203.4,265.8c2.7,0,4.9-0.8,6.4-2.5c0.1,0.5,0.1,1,0.3,1.6c0,0.2,0.2,0.3,0.4,0.3h4.8c0.1,0,0.2-0.1,0.3-0.1
				c0.1-0.1,0.1-0.2,0.1-0.3c-0.2-1.7-0.4-3.3-0.4-4.7v-16c0-0.2-0.2-0.4-0.4-0.4h-5c-0.2,0-0.4,0.2-0.4,0.4v11.3
				c0,1.7-0.4,3-1.3,4.1c-0.8,1.1-2,1.6-3.4,1.6c-1.3,0-2.3-0.4-2.9-1.3c-0.6-0.9-0.9-2.1-0.9-3.7v-12c0-0.2-0.2-0.4-0.4-0.4h-5
				c-0.2,0-0.4,0.2-0.4,0.4v12.8c0,2.6,0.7,4.8,2.1,6.4C198.6,264.9,200.7,265.8,203.4,265.8z"/>
			<path class="st2" d="M219.6,248.4h3v10.4c0,2.2,0.6,3.9,1.9,5.1c1.2,1.2,3,1.8,5.1,1.8c1.5,0,2.7-0.2,3.8-0.6
				c0.2-0.1,0.3-0.3,0.2-0.5l-0.7-3.7c0-0.1-0.1-0.2-0.2-0.3c-0.1-0.1-0.2-0.1-0.3,0c-0.5,0.1-1,0.2-1.7,0.2c-1.6,0-2.3-0.8-2.3-2.6
				v-10h4.8c0.2,0,0.4-0.2,0.4-0.4V244c0-0.2-0.2-0.4-0.4-0.4h-4.8v-6.3c0-0.1-0.1-0.3-0.2-0.3c-0.1-0.1-0.2-0.1-0.4-0.1l-5,1.8
				c-0.2,0.1-0.3,0.2-0.3,0.4v4.6l-3.1,0.5c-0.2,0-0.3,0.2-0.3,0.4v3.2C219.2,248.2,219.3,248.4,219.6,248.4z"/>
			<path class="st2" d="M247.3,265.8c2.3,0,4.3-0.5,6-1.5s3-2.3,3.9-4.1c0.9-1.7,1.3-3.7,1.3-5.9c0-2.2-0.4-4.2-1.3-5.9
				s-2.2-3-3.9-4c-1.7-0.9-3.7-1.4-6-1.4s-4.4,0.5-6,1.4c-1.7,0.9-3,2.3-3.9,4s-1.3,3.7-1.3,5.9c0,2.2,0.5,4.2,1.3,5.9
				c0.9,1.7,2.2,3.1,3.9,4.1C243,265.3,245,265.8,247.3,265.8z M247.3,247.8c1.9,0,3.2,0.6,4,1.7c0.9,1.2,1.3,2.8,1.3,4.8
				c0,2-0.4,3.7-1.3,4.9c-0.8,1.2-2.1,1.8-4,1.8c-1.8,0-3.1-0.6-4-1.8c-0.8-1.2-1.3-2.9-1.3-4.9s0.4-3.6,1.2-4.8
				C244.2,248.4,245.5,247.8,247.3,247.8z"/>
			<path class="st2" d="M290.5,249.1c0.6,0.8,0.8,1.8,0.8,3.2v12.6c0,0.2,0.2,0.4,0.4,0.4h5c0.2,0,0.4-0.2,0.4-0.4v-13.3
				c0-1.5-0.3-2.9-0.9-4.1c-0.6-1.3-1.5-2.4-2.7-3.2s-2.8-1.2-4.6-1.2c-3,0-5.3,1.1-6.9,3.2c-1.4-2.1-3.6-3.2-6.6-3.2
				c-1.5,0-2.8,0.3-4,0.8c-0.9,0.4-1.6,1-2.3,1.6c-0.1-0.5-0.1-1-0.2-1.6c0-0.2-0.2-0.3-0.4-0.3h-4.8c-0.1,0-0.2,0-0.3,0.1
				c-0.1,0.1-0.1,0.2-0.1,0.3c0.2,2.1,0.4,3.7,0.4,4.7v16c0,0.2,0.2,0.4,0.4,0.4h5c0.2,0,0.4-0.2,0.4-0.4v-11.6
				c0-1.5,0.4-2.8,1.2-3.8c0.8-1,1.8-1.5,3.2-1.5c1.3,0,2.2,0.4,2.7,1.1c0.6,0.8,0.9,1.7,0.9,2.8v13c0,0.2,0.2,0.4,0.4,0.4h5
				c0.2,0,0.4-0.2,0.4-0.4v-11.3c0-1.6,0.4-2.9,1.2-4c0.8-1.1,1.8-1.6,3.2-1.6C289,248,289.9,248.3,290.5,249.1z"/>
			<path class="st2" d="M312.9,251.3c-3.7,0-6.6,0.6-8.5,1.6c-2.1,1.1-3.1,3.2-3.1,6c0,2.2,0.7,3.9,2.1,5c1.4,1.2,3.1,1.8,5.1,1.8
				c1.8,0,3.2-0.3,4.3-0.8c0.9-0.4,1.7-1,2.3-1.7c0.1,0.4,0.1,1,0.3,1.6c0,0.2,0.2,0.3,0.4,0.3h4.6c0.1,0,0.2,0,0.3-0.1
				c0.1-0.1,0.1-0.2,0.1-0.3c-0.2-2.1-0.4-3.7-0.4-4.7v-7.9c0-3-0.8-5.3-2.2-6.8c-1.5-1.5-3.9-2.3-7.2-2.3c-1.4,0-2.9,0.2-4.3,0.6
				c-1.4,0.4-2.8,0.9-3.9,1.6c-0.2,0.1-0.3,0.3-0.2,0.5l1.7,3.3c0,0.1,0.1,0.2,0.2,0.2s0.2,0,0.3,0c1.9-1,3.9-1.6,5.8-1.6
				c3.5,0,3.9,1.7,3.9,3v0.6C314.1,251.3,313.6,251.3,312.9,251.3z M314.6,255.5v1.3c0,0.7-0.2,1.4-0.6,2.1c-0.4,0.6-1,1.2-1.7,1.6
				s-1.5,0.6-2.4,0.6c-0.8,0-1.4-0.2-1.9-0.6s-0.7-1-0.7-1.8c0-1.1,0.4-1.9,1.3-2.4s2.6-0.8,4.8-0.8L314.6,255.5z"/>
			<path class="st2" d="M337.5,260.7c-0.1-0.1-0.2-0.1-0.3,0c-0.5,0.1-1,0.2-1.7,0.2c-1.6,0-2.3-0.8-2.3-2.6v-10h4.8
				c0.2,0,0.4-0.2,0.4-0.4v-3.8c0-0.2-0.2-0.4-0.4-0.4h-4.8v-6.3c0-0.1-0.1-0.3-0.2-0.3c-0.1-0.1-0.2-0.1-0.4-0.1l-5,1.8
				c-0.2,0.1-0.3,0.2-0.3,0.4v4.6l-3.1,0.5c-0.2,0-0.3,0.2-0.3,0.4v3.2c0,0.2,0.2,0.4,0.4,0.4h3v10.4c0,2.2,0.6,3.9,1.9,5.1
				c1.2,1.2,3,1.8,5.1,1.8c1.5,0,2.7-0.2,3.8-0.6c0.2-0.1,0.3-0.3,0.2-0.5l-0.7-3.7C337.7,260.9,337.6,260.8,337.5,260.7z"/>
			<path class="st2" d="M345.8,234.2c-2.3,0-3.5,1.1-3.5,3.3c0,0.9,0.3,1.7,0.8,2.3c0.6,0.6,1.5,0.9,2.7,0.9s2.1-0.3,2.6-0.9
				c0.6-0.6,0.8-1.4,0.8-2.3c0-1-0.3-1.7-0.8-2.4C347.9,234.5,347,234.2,345.8,234.2z"/>
			<path class="st2" d="M348.2,243.6h-5c-0.2,0-0.4,0.2-0.4,0.4v20.8c0,0.2,0.2,0.4,0.4,0.4h5c0.2,0,0.4-0.2,0.4-0.4V244
				C348.6,243.8,348.5,243.6,348.2,243.6z"/>
			<path class="st2" d="M371,244.4c-1.7-0.9-3.7-1.4-6-1.4s-4.4,0.5-6,1.4c-1.7,0.9-3,2.3-3.9,4s-1.3,3.7-1.3,5.9
				c0,2.2,0.5,4.2,1.3,5.9c0.9,1.7,2.2,3.1,3.9,4.1c1.7,1,3.7,1.5,6,1.5s4.3-0.5,6-1.5s3-2.3,3.9-4.1c0.9-1.7,1.3-3.7,1.3-5.9
				c0-2.2-0.4-4.2-1.3-5.9S372.7,245.4,371,244.4z M365,261c-1.8,0-3.1-0.6-4-1.8c-0.8-1.2-1.3-2.9-1.3-4.9s0.4-3.6,1.2-4.8
				c0.8-1.1,2.1-1.7,3.9-1.7c1.9,0,3.2,0.6,4,1.7c0.8,1.2,1.3,2.8,1.3,4.8s-0.4,3.7-1.3,4.9C368.2,260.4,366.8,261,365,261z"/>
			<path class="st2" d="M400.6,247.1c-0.6-1.2-1.5-2.2-2.7-3s-2.7-1.1-4.5-1.1c-1.6,0-3.1,0.3-4.3,0.9c-0.9,0.4-1.7,1-2.3,1.6
				c-0.1-0.5-0.1-1-0.2-1.6c0-0.2-0.2-0.3-0.4-0.3h-4.8c-0.1,0-0.2,0-0.3,0.1c-0.1,0.1-0.1,0.2-0.1,0.3c0.2,2.1,0.4,3.7,0.4,4.7v16
				c0,0.2,0.2,0.4,0.4,0.4h5c0.2,0,0.4-0.2,0.4-0.4v-11.6c0-1.5,0.4-2.8,1.3-3.8c0.8-1,1.9-1.4,3.4-1.4c1.4,0,2.4,0.4,2.9,1.1
				c0.6,0.8,0.9,1.8,0.9,3v12.7c0,0.2,0.2,0.4,0.4,0.4h5c0.2,0,0.4-0.2,0.4-0.4V251C401.4,249.7,401.2,248.3,400.6,247.1z"/>
			<path class="st2" d="M144.4,296.1c-2.1-0.5-3.5-1.1-4.4-1.7c-0.8-0.5-1.2-1.3-1.2-2.3s0.4-1.7,1.2-2.2s2-0.8,3.4-0.8
				c1.2,0,2.3,0.2,3.3,0.5s2.1,0.8,3.2,1.5c0.2,0.1,0.4,0.1,0.5-0.1l2.4-3.4c0.1-0.2,0.1-0.4-0.1-0.6c-2.7-1.9-5.9-2.9-9.4-2.9
				c-1.9,0-3.7,0.3-5.3,0.9s-2.8,1.6-3.8,2.9c-0.9,1.3-1.4,2.8-1.4,4.6c0,2.3,0.7,4.1,2.1,5.5c1.4,1.3,3.4,2.4,6,3
				c1.6,0.4,2.8,0.8,3.6,1.2c0.8,0.3,1.5,0.8,1.9,1.3s0.6,1.3,0.6,2.2c0,1.3-0.4,2.2-1.3,2.8c-0.9,0.6-2.2,1-3.7,1
				c-1.3,0-2.6-0.2-3.7-0.5c-1.1-0.3-2.2-0.9-3.3-1.7c-0.2-0.1-0.4-0.1-0.6,0.1l-2.5,3.3c-0.1,0.2-0.1,0.4,0.1,0.6
				c1.3,1.1,2.9,1.9,4.6,2.5c1.7,0.6,3.5,0.9,5.5,0.9s3.9-0.3,5.6-1c1.7-0.7,3.1-1.7,4.1-3.1s1.5-3.1,1.5-5.1c0-2.7-0.8-4.7-2.3-6.2
				C149.4,297.9,147.2,296.9,144.4,296.1z"/>
			<path class="st2" d="M175.1,293.3c-1.4-1-3.2-1.5-5.2-1.5c-2.7,0-4.8,0.9-6.5,2.5c-0.1-0.5-0.1-1-0.2-1.6c0-0.2-0.2-0.3-0.4-0.3
				H158c-0.1,0-0.2,0-0.3,0.1s-0.1,0.2-0.1,0.3c0.2,2.1,0.4,3.7,0.4,4.7v25.8c0,0.2,0.2,0.4,0.4,0.4h5c0.2,0,0.4-0.2,0.4-0.4v-10.4
				c1.6,1.1,3.5,1.6,5.6,1.6c2,0,3.8-0.5,5.3-1.5s2.6-2.4,3.4-4.2c0.8-1.7,1.2-3.7,1.2-5.7c0-2.1-0.3-4-1-5.7
				C177.6,295.7,176.5,294.3,175.1,293.3z M168.7,296.5c1.4,0,2.5,0.5,3.3,1.6s1.2,2.8,1.2,4.9s-0.4,3.7-1.3,4.9
				c-0.9,1.2-2.1,1.7-3.8,1.7c-0.9,0-1.6-0.1-2.3-0.4c-0.7-0.2-1.4-0.6-2.1-1.1v-6.4c0-1.5,0.5-2.7,1.4-3.7
				C166.1,297,167.3,296.5,168.7,296.5z"/>
			<path class="st2" d="M193.5,291.7c-3.3,0-5.9,1.1-7.7,3.1c-1.8,2.1-2.7,4.8-2.7,8.2c0,2.2,0.4,4.2,1.3,5.9c0.9,1.7,2.1,3.1,3.8,4
				c1.6,0.9,3.6,1.4,5.8,1.4c1.7,0,3.3-0.2,4.7-0.7s2.7-1.1,4-2c0.2-0.1,0.2-0.4,0.1-0.6l-2.2-3.2c-0.1-0.2-0.4-0.2-0.6-0.1
				c-1,0.6-1.9,1.1-2.8,1.4c-0.8,0.3-1.8,0.4-3,0.4c-1.6,0-2.9-0.4-3.7-1.2c-0.8-0.7-1.3-1.8-1.6-3.1h14c0.2,0,0.4-0.2,0.4-0.4
				c0.1-0.6,0.1-1.3,0.1-1.9c0-3.4-0.9-6.2-2.5-8.2C199.2,292.8,196.7,291.7,193.5,291.7z M193.4,296.3c1.4,0,2.4,0.4,3.1,1.3
				c0.7,0.8,1,1.9,1.1,3.1h-8.8c0.2-1.2,0.6-2.3,1.3-3.1C190.9,296.7,192,296.3,193.4,296.3z"/>
			<path class="st2" d="M218.2,291.7c-2.2,0-4.2,0.5-5.9,1.4s-3,2.3-3.8,4c-0.9,1.7-1.3,3.7-1.3,6c0,1.8,0.3,3.6,0.9,5.3
				c0.6,1.7,1.8,3.2,3.3,4.3c1.6,1.2,3.7,1.8,6.3,1.8c1.4,0,2.8-0.2,4-0.6c1.3-0.4,2.5-1,3.6-1.7c0.2-0.1,0.2-0.3,0.1-0.5l-1.8-3.6
				c-0.1-0.1-0.1-0.2-0.2-0.2c-0.1,0-0.2,0-0.3,0c-1.7,1-3.4,1.5-5,1.5c-1.7,0-3-0.6-3.8-1.7c-0.9-1.2-1.3-2.7-1.3-4.7
				s0.4-3.6,1.3-4.7c0.9-1.1,2.1-1.6,3.9-1.6c1.7,0,3.3,0.5,4.8,1.5c0.1,0.1,0.2,0.1,0.3,0.1s0.2-0.1,0.3-0.2l1.9-3.5
				c0.1-0.2,0-0.4-0.1-0.5C223.3,292.5,220.9,291.7,218.2,291.7z"/>
			<path class="st2" d="M235.4,292.3h-5c-0.2,0-0.4,0.2-0.4,0.4v20.8c0,0.2,0.2,0.4,0.4,0.4h5c0.2,0,0.4-0.2,0.4-0.4v-20.8
				C235.8,292.5,235.6,292.3,235.4,292.3z"/>
			<path class="st2" d="M232.9,282.9c-2.3,0-3.5,1.1-3.5,3.3c0,0.9,0.3,1.7,0.8,2.3c0.6,0.6,1.5,0.9,2.7,0.9s2.1-0.3,2.6-0.9
				c0.6-0.6,0.8-1.4,0.8-2.3c0-1-0.3-1.7-0.8-2.4C235,283.2,234.1,282.9,232.9,282.9z"/>
			<path class="st2" d="M259.7,300.8c0-3-0.8-5.3-2.2-6.8c-1.5-1.5-3.9-2.3-7.2-2.3c-1.4,0-2.9,0.2-4.3,0.6
				c-1.4,0.4-2.8,0.9-3.9,1.6c-0.2,0.1-0.3,0.3-0.2,0.5l1.7,3.3c0,0.1,0.1,0.2,0.2,0.2c0.1,0,0.2,0,0.3,0c1.9-1,3.9-1.6,5.8-1.6
				c3.5,0,3.9,1.7,3.9,3v0.6c-0.4,0-1,0-1.6,0c-3.7,0-6.5,0.6-8.5,1.7c-2.1,1.1-3.1,3.2-3.1,6c0,2.2,0.7,3.9,2.1,5
				c1.4,1.2,3.1,1.8,5.1,1.8c1.8,0,3.2-0.3,4.3-0.8c0.9-0.4,1.7-1,2.3-1.7c0.1,0.4,0.1,1,0.3,1.6c0,0.2,0.2,0.3,0.4,0.3h4.6
				c0.1,0,0.2,0,0.3-0.1c0.1-0.1,0.1-0.2,0.1-0.3c-0.2-2.1-0.4-3.7-0.4-4.7V300.8z M253.9,304.2v1.3c0,0.8-0.2,1.4-0.6,2.1
				c-0.4,0.6-1,1.2-1.7,1.6s-1.5,0.6-2.4,0.6c-0.8,0-1.4-0.2-1.9-0.6s-0.7-1-0.7-1.8c0-1.1,0.4-1.9,1.3-2.4c0.9-0.5,2.6-0.8,4.8-0.8
				L253.9,304.2z"/>
			<path class="st2" d="M271.4,284.8h-5c-0.2,0-0.4,0.2-0.4,0.4v28.3c0,0.2,0.2,0.4,0.4,0.4h5c0.2,0,0.4-0.2,0.4-0.4v-28.3
				C271.8,284.9,271.6,284.8,271.4,284.8z"/>
			<path class="st2" d="M283.7,292.3h-5c-0.2,0-0.4,0.2-0.4,0.4v20.8c0,0.2,0.2,0.4,0.4,0.4h5c0.2,0,0.4-0.2,0.4-0.4v-20.8
				C284.1,292.5,283.9,292.3,283.7,292.3z"/>
			<path class="st2" d="M281.2,282.9c-2.3,0-3.5,1.1-3.5,3.3c0,0.9,0.3,1.7,0.8,2.3c0.6,0.6,1.5,0.9,2.7,0.9s2.1-0.3,2.6-0.9
				c0.6-0.6,0.8-1.4,0.8-2.3c0-1-0.3-1.7-0.8-2.4C283.3,283.2,282.4,282.9,281.2,282.9z"/>
			<path class="st2" d="M299,300.7c-1.2-0.3-2.1-0.5-2.7-0.8c-0.5-0.2-0.9-0.5-1.1-0.7c-0.2-0.3-0.3-0.6-0.3-1.1s0.2-0.9,0.7-1.2
				c0.5-0.3,1.3-0.5,2.3-0.5c1.6,0,3.2,0.5,4.7,1.5c0.2,0.1,0.4,0.1,0.6-0.1l2-3.2c0.1-0.2,0.1-0.4-0.1-0.5c-2-1.5-4.5-2.3-7.4-2.3
				c-2.5,0-4.6,0.6-6.2,1.7c-1.6,1.2-2.4,2.8-2.4,4.9c0,1.8,0.5,3.3,1.6,4.3c1,1,2.6,1.8,4.7,2.3c1.2,0.3,2.1,0.5,2.7,0.8
				c0.5,0.2,0.9,0.5,1.1,0.7s0.3,0.6,0.3,1.1c0,0.7-0.2,1.2-0.8,1.6c-0.6,0.4-1.4,0.6-2.4,0.6c-0.9,0-1.8-0.1-2.6-0.4
				c-0.8-0.3-1.6-0.6-2.4-1.2c-0.2-0.1-0.4-0.1-0.5,0.1l-2.2,3.1c-0.1,0.2-0.1,0.4,0.1,0.6c2.1,1.6,4.8,2.4,7.9,2.4
				c2.5,0,4.6-0.6,6.3-1.8c1.8-1.2,2.7-3.1,2.7-5.4c0-1.7-0.6-3.2-1.7-4.2C302.7,302,301.1,301.2,299,300.7z"/>
			<path class="st2" d="M321.1,309.4c-0.1-0.1-0.2-0.1-0.3,0c-0.5,0.1-1,0.2-1.7,0.2c-1.6,0-2.3-0.8-2.3-2.6v-10h4.8
				c0.2,0,0.4-0.2,0.4-0.4v-3.8c0-0.2-0.2-0.4-0.4-0.4h-4.8v-6.3c0-0.1-0.1-0.3-0.2-0.3c-0.1-0.1-0.2-0.1-0.4-0.1l-5,1.8
				c-0.2,0.1-0.3,0.2-0.3,0.4v4.6l-3.1,0.5c-0.2,0-0.3,0.2-0.3,0.4v3.2c0,0.2,0.2,0.4,0.4,0.4h3v10.4c0,2.2,0.6,3.9,1.9,5.1
				c1.2,1.2,3,1.8,5.1,1.8c1.5,0,2.7-0.2,3.8-0.6c0.2-0.1,0.3-0.3,0.2-0.5l-0.7-3.7C321.2,309.6,321.2,309.5,321.1,309.4z"/>
		</g>
		<g>
			<g>
				<path class="st3" d="M217,42.7c4-4.2,9.6-6.8,15.8-6.8c8.2,0,15.4,4.6,19.2,11.4c3.3-1.5,7-2.3,10.9-2.3
					c14.8,0,26.9,12.1,26.9,27.1s-12,27.1-26.9,27.1c-1.8,0-3.6-0.2-5.3-0.5c-3.4,6-9.8,10.1-17.1,10.1c-3.1,0-6-0.7-8.6-2
					c-3.4,8-11.4,13.7-20.6,13.7c-9.6,0-17.9-6.1-21-14.7c-1.4,0.3-2.8,0.4-4.3,0.4c-11.5,0-20.8-9.4-20.8-21
					c0-7.8,4.2-14.6,10.4-18.2c-1.3-2.9-2-6.2-2-9.6c0-13.3,10.8-24.2,24.2-24.2C205.7,33.2,212.6,36.9,217,42.7z"/>
			</g>
		</g>
	</g>
</g>
</svg>
