<?xml version="1.0" encoding="utf-8"?>
<!-- Generator: Adobe Illustrator 28.2.0, SVG Export Plug-In . SVG Version: 6.00 Build 0)  -->
<svg version="1.1" id="Layer_1" xmlns="http://www.w3.org/2000/svg" xmlns:xlink="http://www.w3.org/1999/xlink" x="0px" y="0px"
	 viewBox="0 0 454 445" style="enable-background:new 0 0 454 445;" xml:space="preserve">
<style type="text/css">
	.st0{fill:#8E9BEF;}
	.st1{fill:#280F8F;}
	.st2{fill:#FFFFFF;}
	.st3{fill:#0D9DDA;}
</style>
<g id="Layer_1_00000010312130145675476090000007686927028531154856_">
	<g id="Layer_1_00000082362538718048276590000008432127909549740216_">
	</g>
	<g id="Isolation_Mode">
	</g>
</g>
<g>
	<path class="st0" d="M35.9,320.3l4.9,21.4c2.3,9.9,8.9,18.2,18.1,22.7l153.7,74c9.2,4.4,19.8,4.4,29,0l153.7-74
		c9.2-4.4,15.8-12.7,18.1-22.7l5-21.7L35.9,320.3z"/>
	<g>
		<g>
			<path class="st1" d="M241.5,404.9L418.2,320l33-144.6c2.3-9.9-0.1-20.3-6.4-28.2L338.4,13.8C332,5.9,322.4,1.3,312.3,1.3H141.7
				c-10.2,0-19.8,4.6-26.1,12.6L9.3,147.2c-6.3,7.9-8.7,18.3-6.4,28.2l33.1,144.9l176.6,84.6C221.7,409.3,232.3,409.3,241.5,404.9z"
				/>
		</g>
		<g>
			<g>
				<g>
					<path class="st2" d="M77.9,185.3c-0.1-0.3-0.4-0.6-0.7-0.7c-0.3-0.1-0.7-0.1-1,0.1c-0.1,0-5.5,3.1-13,3.1
						c-9.1,0-15.8-6.4-15.8-15.2c0-9.3,6.5-15.4,16.6-15.4c5.7,0,11.7,2.9,11.8,3c0.3,0.1,0.6,0.2,0.9,0c0.3-0.1,0.5-0.3,0.7-0.6
						l2.9-7.1c0.2-0.5,0-1.1-0.5-1.4c-0.3-0.2-6.7-4-17.1-4c-14.6,0-26.4,11.4-26.4,25.4c0,15,11.3,25.4,27.6,25.4
						c9.8,0,16-4,16.2-4.1c0.5-0.3,0.6-0.9,0.5-1.4L77.9,185.3z"/>
					<path class="st2" d="M93.4,197h30.5c0.6,0,1.2-0.5,1.2-1.2v-7.6c0-0.6-0.5-1.2-1.2-1.2h-21.1v-8.9h19c0.6,0,1.2-0.5,1.2-1.2
						v-7.3c0-0.6-0.5-1.2-1.2-1.2h-19v-10.8h21.1c0.6,0,1.2-0.5,1.2-1.2V149c0-0.6-0.5-1.2-1.2-1.2H93.4c-0.6,0-1.2,0.5-1.2,1.2
						v46.9C92.2,196.5,92.8,197,93.4,197z"/>
					<path class="st2" d="M222.9,147.8h-39.4c-0.6,0-1.2,0.5-1.2,1.2v7.6c0,0.6,0.5,1.2,1.2,1.2h14.5v38.1c0,0.6,0.5,1.2,1.2,1.2
						h8.3c0.6,0,1.2-0.5,1.2-1.2v-38.1h14.3c0.6,0,1.2-0.5,1.2-1.2V149C224,148.3,223.5,147.8,222.9,147.8z"/>
					<path class="st2" d="M244,147.8h-8.3c-0.6,0-1.2,0.5-1.2,1.2v46.9c0,0.6,0.5,1.2,1.2,1.2h8.3c0.6,0,1.2-0.5,1.2-1.2V149
						C245.2,148.3,244.7,147.8,244,147.8z"/>
					<path class="st2" d="M290.4,147.8H260c-0.6,0-1.2,0.5-1.2,1.2v46.9c0,0.6,0.5,1.2,1.2,1.2h8.2c0.6,0,1.2-0.5,1.2-1.2v-17.1
						h18.6c0.6,0,1.2-0.5,1.2-1.2v-7.3c0-0.6-0.5-1.2-1.2-1.2h-18.6v-11.4h21.1c0.6,0,1.2-0.5,1.2-1.2V149
						C291.6,148.3,291.1,147.8,290.4,147.8z"/>
					<path class="st2" d="M312.7,147.8h-8.3c-0.6,0-1.2,0.5-1.2,1.2v46.9c0,0.6,0.5,1.2,1.2,1.2h8.3c0.6,0,1.2-0.5,1.2-1.2V149
						C313.8,148.3,313.3,147.8,312.7,147.8z"/>
					<path class="st2" d="M359.1,147.8h-30.5c-0.6,0-1.2,0.5-1.2,1.2v46.9c0,0.6,0.5,1.2,1.2,1.2h30.5c0.6,0,1.2-0.5,1.2-1.2v-7.6
						c0-0.6-0.5-1.2-1.2-1.2H338v-8.9h19c0.6,0,1.2-0.5,1.2-1.2v-7.3c0-0.6-0.5-1.2-1.2-1.2h-19v-10.8h21.1c0.6,0,1.2-0.5,1.2-1.2
						V149C360.2,148.3,359.7,147.8,359.1,147.8z"/>
					<path class="st2" d="M391.6,147.8h-17.7c-0.6,0-1.2,0.5-1.2,1.2v46.9c0,0.6,0.5,1.2,1.2,1.2h17.7c15,0,26.2-10.6,26.2-24.6
						C417.8,158.1,406.8,147.8,391.6,147.8z M391.6,187.1h-8.3v-29.4h8.3c8.7,0,15,6.2,15,14.8C406.6,180.8,400.2,187.1,391.6,187.1
						z"/>
					<path class="st2" d="M166.8,180.4c5.2-2.9,7.9-8,7.9-14.7c0-11.2-7.4-17.8-19.9-17.8h-15c-0.6,0-1.2,0.5-1.2,1.2v46.9
						c0,0.6,0.5,1.2,1.2,1.2h8.3c0.6,0,1.2-0.5,1.2-1.2v-12.5h4c1.3,0,2.5,0,3.6-0.1l9.6,13.3c0.2,0.3,0.6,0.5,0.9,0.5h9.7
						c0.4,0,0.8-0.2,1-0.6c0.2-0.4,0.2-0.9-0.1-1.2L166.8,180.4z M149.3,157.7h5c6.2,0,9.3,2.6,9.3,7.9c0,5.4-3.1,8.1-9.3,8.1h-5
						V157.7z"/>
				</g>
			</g>
		</g>
		<g>
			<path class="st2" d="M131.4,265.2h5.3c0.1,0,0.2,0,0.3-0.1c0.1-0.1,0.1-0.2,0.1-0.3l-0.2-22.1l8.6,22.3c0.1,0.2,0.2,0.3,0.4,0.3
				h4.2c0.2,0,0.3-0.1,0.4-0.3l8.7-22.3l-0.1,22.1c0,0.1,0,0.2,0.1,0.3s0.2,0.1,0.3,0.1h5.5c0.2,0,0.4-0.2,0.4-0.4v-30.6
				c0-0.2-0.2-0.4-0.4-0.4h-8.4c-0.2,0-0.3,0.1-0.4,0.3l-8.2,21.9l-8-21.9c-0.1-0.2-0.2-0.3-0.4-0.3h-8.3c-0.2,0-0.4,0.2-0.4,0.4
				v30.6C131,265,131.2,265.2,131.4,265.2z"/>
			<path class="st2" d="M181.3,265.8c3,0,5.3-0.9,6.9-2.7c0.1,0.5,0.2,1.1,0.3,1.8c0,0.2,0.2,0.3,0.4,0.3h5.2c0.1,0,0.2-0.1,0.3-0.1
				c0.1-0.1,0.1-0.2,0.1-0.3c-0.3-1.8-0.4-3.6-0.4-5.1v-17.4c0-0.2-0.2-0.4-0.4-0.4h-5.4c-0.2,0-0.4,0.2-0.4,0.4v12.2
				c0,1.8-0.5,3.3-1.4,4.5c-0.9,1.2-2.1,1.7-3.7,1.7c-1.5,0-2.5-0.5-3.1-1.4c-0.7-1-1-2.3-1-4v-13c0-0.2-0.2-0.4-0.4-0.4h-5.5
				c-0.2,0-0.4,0.2-0.4,0.4v13.8c0,2.8,0.8,5.2,2.3,6.9C176.1,264.9,178.3,265.8,181.3,265.8z"/>
			<path class="st2" d="M207.3,264.8v-30.6c0-0.2-0.2-0.4-0.4-0.4h-5.4c-0.2,0-0.4,0.2-0.4,0.4v30.6c0,0.2,0.2,0.4,0.4,0.4h5.4
				C207.1,265.2,207.3,265,207.3,264.8z"/>
			<path class="st2" d="M218.4,264.3c1.8,1,3.9,1.5,6.3,1.5c1.9,0,3.6-0.2,5.1-0.7c1.5-0.5,3-1.2,4.3-2.2c0.2-0.1,0.2-0.4,0.1-0.6
				l-2.3-3.5c-0.1-0.2-0.4-0.2-0.6-0.1c-1.1,0.7-2.1,1.2-3,1.5c-0.9,0.3-2,0.5-3.2,0.5c-1.7,0-3.1-0.5-4.1-1.3
				c-0.9-0.8-1.5-2-1.7-3.4h15.2c0.2,0,0.4-0.2,0.4-0.4c0.1-0.7,0.1-1.4,0.1-2.1c0-3.7-0.9-6.7-2.7-8.9c-1.8-2.2-4.5-3.3-8.1-3.3
				c-3.6,0-6.4,1.1-8.3,3.4c-1.9,2.2-2.9,5.2-2.9,8.9c0,2.4,0.5,4.6,1.4,6.4C215.3,261.8,216.6,263.3,218.4,264.3z M219.2,251.1
				c0.2-1.4,0.6-2.5,1.4-3.4c0.8-1,2-1.5,3.6-1.5c1.5,0,2.6,0.5,3.4,1.4c0.7,0.9,1.1,2.1,1.3,3.5H219.2z"/>
			<path class="st2" d="M255.3,265c1.8-0.7,3.3-1.8,4.4-3.3c1.1-1.5,1.6-3.3,1.6-5.5c0-2.9-0.8-5.1-2.5-6.6c-1.6-1.5-4-2.7-7.1-3.4
				c-2.2-0.6-3.8-1.2-4.8-1.8c-0.9-0.6-1.3-1.4-1.3-2.5c0-1.1,0.4-1.9,1.3-2.5c0.9-0.6,2.1-0.9,3.7-0.9c1.3,0,2.5,0.2,3.6,0.5
				c1.1,0.3,2.3,0.9,3.5,1.6c0.2,0.1,0.4,0.1,0.5-0.1l2.6-3.7c0.1-0.2,0.1-0.4-0.1-0.6c-2.9-2.1-6.3-3.1-10.1-3.1
				c-2.1,0-4,0.3-5.7,1c-1.7,0.7-3.1,1.7-4,3.1c-1,1.4-1.5,3-1.5,4.9c0,2.5,0.8,4.5,2.3,5.9c1.5,1.4,3.7,2.5,6.5,3.3
				c1.7,0.5,3,0.9,4,1.3c0.9,0.4,1.6,0.9,2.1,1.5c0.5,0.6,0.7,1.4,0.7,2.4c0,1.4-0.5,2.4-1.4,3c-1,0.7-2.4,1.1-4.1,1.1
				c-1.5,0-2.8-0.2-4-0.5c-1.2-0.4-2.4-1-3.5-1.8c-0.2-0.1-0.4-0.1-0.6,0.1l-2.7,3.6c-0.1,0.2-0.1,0.4,0.1,0.6
				c1.4,1.2,3.1,2.1,4.9,2.7c1.8,0.6,3.8,1,5.9,1C251.5,266,253.5,265.7,255.3,265z"/>
			<path class="st2" d="M283.6,264.2c1.8-1,3.3-2.5,4.2-4.4c1-1.9,1.5-4,1.5-6.4c0-2.4-0.5-4.6-1.4-6.4c-1-1.8-2.4-3.3-4.2-4.3
				c-1.8-1-4-1.5-6.5-1.5c-2.5,0-4.7,0.5-6.5,1.5c-1.8,1-3.2,2.5-4.2,4.3c-0.9,1.8-1.4,4-1.4,6.4c0,2.4,0.5,4.5,1.5,6.4
				c1,1.9,2.4,3.3,4.2,4.4c1.8,1.1,4,1.6,6.4,1.6S281.7,265.3,283.6,264.2z M277.1,246.4c2,0,3.5,0.6,4.4,1.8c0.9,1.3,1.4,3,1.4,5.2
				c0,2.2-0.5,4-1.4,5.3c-0.9,1.3-2.3,1.9-4.3,1.9c-2,0-3.4-0.6-4.3-1.9c-0.9-1.3-1.4-3.1-1.4-5.3c0-2.2,0.5-3.9,1.4-5.2
				C273.7,247,275.1,246.4,277.1,246.4z"/>
			<path class="st2" d="M301.8,264.8V247h4.9c0.2,0,0.4-0.2,0.4-0.4v-4.1c0-0.2-0.2-0.4-0.4-0.4h-4.9v-0.6c0-2.2,1.1-3.2,3.4-3.2
				c0.9,0,1.6,0.1,2.3,0.3c0.2,0.1,0.4-0.1,0.5-0.3l1.3-3.9c0.1-0.2,0-0.4-0.2-0.5c-1.4-0.5-3-0.8-4.6-0.8c-2.9,0-5.1,0.8-6.6,2.2
				c-1.4,1.4-2.2,3.4-2.2,6v0.9l-3.3,0.6c-0.2,0-0.3,0.2-0.3,0.4v3.5c0,0.2,0.2,0.4,0.4,0.4h3.3v17.8c0,0.2,0.2,0.4,0.4,0.4h5.4
				C301.6,265.2,301.8,265,301.8,264.8z"/>
			<path class="st2" d="M323.2,260.4c-0.1-0.1-0.2-0.1-0.3,0c-0.5,0.2-1.1,0.2-1.9,0.2c-1.7,0-2.5-0.9-2.5-2.8V247h5.2
				c0.2,0,0.4-0.2,0.4-0.4v-4.1c0-0.2-0.2-0.4-0.4-0.4h-5.2v-6.8c0-0.1-0.1-0.3-0.2-0.3c-0.1-0.1-0.2-0.1-0.4-0.1l-5.5,1.9
				c-0.2,0.1-0.3,0.2-0.3,0.4v5l-3.3,0.6c-0.2,0-0.3,0.2-0.3,0.4v3.5c0,0.2,0.2,0.4,0.4,0.4h3.3v11.3c0,2.4,0.7,4.2,2,5.5
				c1.3,1.3,3.2,2,5.5,2c1.6,0,2.9-0.2,4.1-0.7c0.2-0.1,0.3-0.3,0.2-0.5l-0.8-4C323.4,260.6,323.3,260.5,323.2,260.4z"/>
			<path class="st2" d="M105.1,282.4H94.7c-0.2,0-0.4,0.2-0.4,0.4v30.6c0,0.2,0.2,0.4,0.4,0.4h10.6c3.3,0,6.2-0.6,8.7-1.8
				c2.5-1.2,4.4-3,5.8-5.4c1.3-2.4,2-5.3,2-8.6c0-5.3-1.5-9.2-4.4-11.8C114.5,283.7,110.4,282.4,105.1,282.4z M100.7,287.9h4.2
				c3.4,0,6,0.8,7.7,2.5c1.7,1.6,2.5,4.2,2.5,7.8c0,3.5-0.9,6.2-2.6,7.8c-1.7,1.6-4.3,2.5-7.8,2.5h-4.1V287.9z"/>
			<path class="st2" d="M137.1,290c-3.6,0-6.4,1.1-8.3,3.4c-1.9,2.2-2.9,5.2-2.9,8.9c0,2.4,0.5,4.6,1.4,6.4c0.9,1.9,2.3,3.3,4.1,4.3
				c1.8,1,3.9,1.5,6.3,1.5c1.9,0,3.6-0.2,5.1-0.7c1.5-0.5,3-1.2,4.3-2.2c0.2-0.1,0.2-0.4,0.1-0.6l-2.3-3.5c-0.1-0.2-0.4-0.2-0.6-0.1
				c-1.1,0.7-2.1,1.2-3,1.5c-0.9,0.3-2,0.5-3.2,0.5c-1.7,0-3.1-0.5-4.1-1.3c-0.9-0.8-1.5-2-1.7-3.4h15.2c0.2,0,0.4-0.2,0.4-0.4
				c0.1-0.7,0.1-1.4,0.1-2.1c0-3.7-0.9-6.7-2.7-8.9C143.3,291.1,140.6,290,137.1,290z M137,294.8c1.5,0,2.6,0.5,3.4,1.4
				c0.7,0.9,1.1,2.1,1.3,3.5h-9.6c0.2-1.4,0.6-2.5,1.4-3.4C134.3,295.3,135.5,294.8,137,294.8z"/>
			<path class="st2" d="M172.7,290.6h-5.7c-0.2,0-0.3,0.1-0.4,0.3l-5,16l-5.2-16c-0.1-0.2-0.2-0.3-0.4-0.3h-5.9
				c-0.1,0-0.3,0.1-0.3,0.2c-0.1,0.1-0.1,0.2,0,0.4l8.4,22.5c0.1,0.2,0.2,0.3,0.4,0.3h5.9c0.2,0,0.3-0.1,0.4-0.3l8.2-22.5
				c0-0.1,0-0.3,0-0.4S172.9,290.6,172.7,290.6z"/>
			<path class="st2" d="M186.4,290c-3.6,0-6.4,1.1-8.3,3.4c-1.9,2.2-2.9,5.2-2.9,8.9c0,2.4,0.5,4.6,1.4,6.4c0.9,1.9,2.3,3.3,4.1,4.3
				c1.8,1,3.9,1.5,6.3,1.5c1.9,0,3.6-0.2,5.1-0.7c1.5-0.5,3-1.2,4.3-2.2c0.2-0.1,0.2-0.4,0.1-0.6l-2.3-3.5c-0.1-0.2-0.4-0.2-0.6-0.1
				c-1.1,0.7-2.1,1.2-3,1.5c-0.9,0.3-2,0.5-3.2,0.5c-1.7,0-3.1-0.5-4.1-1.3c-0.9-0.8-1.5-2-1.7-3.4h15.2c0.2,0,0.4-0.2,0.4-0.4
				c0.1-0.7,0.1-1.4,0.1-2.1c0-3.7-0.9-6.7-2.7-8.9C192.6,291.1,189.9,290,186.4,290z M186.3,294.8c1.5,0,2.6,0.5,3.4,1.4
				c0.7,0.9,1.1,2.1,1.3,3.5h-9.6c0.2-1.4,0.6-2.5,1.4-3.4C183.6,295.3,184.8,294.8,186.3,294.8z"/>
			<path class="st2" d="M208.5,282.4h-5.4c-0.2,0-0.4,0.2-0.4,0.4v30.6c0,0.2,0.2,0.4,0.4,0.4h5.4c0.2,0,0.4-0.2,0.4-0.4v-30.6
				C208.9,282.6,208.7,282.4,208.5,282.4z"/>
			<path class="st2" d="M233.1,291.5c-1.8-1-4-1.5-6.5-1.5s-4.7,0.5-6.5,1.5c-1.8,1-3.2,2.5-4.2,4.3c-0.9,1.8-1.4,4-1.4,6.4
				c0,2.4,0.5,4.5,1.5,6.4c1,1.9,2.4,3.3,4.2,4.4c1.8,1.1,4,1.6,6.4,1.6c2.5,0,4.6-0.5,6.5-1.6c1.8-1,3.3-2.5,4.2-4.4
				c1-1.9,1.5-4,1.5-6.4c0-2.4-0.5-4.6-1.4-6.4C236.4,293.9,234.9,292.5,233.1,291.5z M226.7,309.4c-2,0-3.4-0.6-4.3-1.9
				c-0.9-1.3-1.4-3.1-1.4-5.3c0-2.2,0.5-3.9,1.4-5.2c0.9-1.2,2.3-1.8,4.3-1.8c2,0,3.5,0.6,4.4,1.8c0.9,1.3,1.4,3,1.4,5.2
				c0,2.2-0.5,4-1.4,5.3C230.1,308.8,228.7,309.4,226.7,309.4z"/>
			<path class="st2" d="M262.9,291.6c-1.5-1.1-3.4-1.7-5.6-1.7c-2.9,0-5.3,0.9-7,2.8c-0.1-0.5-0.2-1.1-0.3-1.9
				c0-0.2-0.2-0.3-0.4-0.3h-5.2c-0.1,0-0.2,0-0.3,0.1c-0.1,0.1-0.1,0.2-0.1,0.3c0.3,2.3,0.4,4,0.4,5.1V324c0,0.2,0.2,0.4,0.4,0.4
				h5.4c0.2,0,0.4-0.2,0.4-0.4v-11.3c1.7,1.2,3.8,1.8,6.1,1.8c2.2,0,4.1-0.6,5.7-1.6c1.6-1.1,2.9-2.6,3.7-4.5
				c0.8-1.9,1.2-3.9,1.2-6.2c0-2.3-0.4-4.3-1.1-6.1C265.5,294.2,264.4,292.7,262.9,291.6z M256,295.1c1.6,0,2.8,0.6,3.6,1.8
				c0.9,1.2,1.3,3,1.3,5.3c0,2.3-0.5,4.1-1.4,5.3c-0.9,1.3-2.3,1.9-4.1,1.9c-0.9,0-1.8-0.1-2.5-0.4c-0.7-0.3-1.5-0.7-2.3-1.2v-7
				c0-1.6,0.5-3,1.5-4.1C253.1,295.6,254.4,295.1,256,295.1z"/>
			<path class="st2" d="M282.7,290c-3.6,0-6.4,1.1-8.3,3.4c-1.9,2.2-2.9,5.2-2.9,8.9c0,2.4,0.5,4.6,1.4,6.4c0.9,1.9,2.3,3.3,4.1,4.3
				c1.8,1,3.9,1.5,6.3,1.5c1.9,0,3.6-0.2,5.1-0.7c1.5-0.5,3-1.2,4.3-2.2c0.2-0.1,0.2-0.4,0.1-0.6l-2.3-3.5c-0.1-0.2-0.4-0.2-0.6-0.1
				c-1.1,0.7-2.1,1.2-3,1.5c-0.9,0.3-2,0.5-3.2,0.5c-1.7,0-3.1-0.5-4.1-1.3c-0.9-0.8-1.5-2-1.7-3.4H293c0.2,0,0.4-0.2,0.4-0.4
				c0.1-0.7,0.1-1.4,0.1-2.1c0-3.7-0.9-6.7-2.7-8.9C289,291.1,286.3,290,282.7,290z M282.7,294.8c1.5,0,2.6,0.5,3.4,1.4
				c0.7,0.9,1.1,2.1,1.3,3.5h-9.6c0.2-1.4,0.6-2.5,1.4-3.4C280,295.3,281.1,294.8,282.7,294.8z"/>
			<path class="st2" d="M312.9,290.2c-0.4-0.1-0.9-0.2-1.5-0.2c-2.8,0-5,1-6.4,3c-0.1-0.6-0.2-1.3-0.3-2c0-0.2-0.2-0.3-0.4-0.3h-5.2
				c-0.1,0-0.2,0-0.3,0.1c-0.1,0.1-0.1,0.2-0.1,0.3c0.3,2.3,0.4,4,0.4,5.1v17.4c0,0.2,0.2,0.4,0.4,0.4h5.4c0.2,0,0.4-0.2,0.4-0.4
				v-11.8c0-1.8,0.5-3.3,1.5-4.5c1-1.2,2.3-1.7,4.1-1.7c0.6,0,1.2,0,1.6,0.1c0.1,0,0.2,0,0.3-0.1c0.1-0.1,0.1-0.2,0.2-0.3l0.2-4.7
				C313.2,290.4,313.1,290.2,312.9,290.2z"/>
			<path class="st2" d="M341.7,282.4H329c-0.2,0-0.4,0.2-0.4,0.4v4.2c0,0.2,0.2,0.4,0.4,0.4h3.2v21.4H329c-0.2,0-0.4,0.2-0.4,0.4
				v4.3c0,0.2,0.2,0.4,0.4,0.4h12.7c0.2,0,0.4-0.2,0.4-0.4v-4.3c0-0.2-0.2-0.4-0.4-0.4h-3.2v-21.4h3.2c0.2,0,0.4-0.2,0.4-0.4v-4.2
				C342.1,282.6,341.9,282.4,341.7,282.4z"/>
			<path class="st2" d="M359.6,287.4c0.2,0,0.4-0.2,0.4-0.4v-4.2c0-0.2-0.2-0.4-0.4-0.4h-12.7c-0.2,0-0.4,0.2-0.4,0.4v4.2
				c0,0.2,0.2,0.4,0.4,0.4h3.2v21.4h-3.2c-0.2,0-0.4,0.2-0.4,0.4v4.3c0,0.2,0.2,0.4,0.4,0.4h12.7c0.2,0,0.4-0.2,0.4-0.4v-4.3
				c0-0.2-0.2-0.4-0.4-0.4h-3.2v-21.4H359.6z"/>
		</g>
		<g>
			<g>
				<path class="st3" d="M216.5,42.7c4-4.2,9.6-6.8,15.8-6.8c8.2,0,15.4,4.6,19.2,11.4c3.3-1.5,7-2.3,10.9-2.3
					c14.8,0,26.9,12.1,26.9,27.1c0,15-12,27.1-26.9,27.1c-1.8,0-3.6-0.2-5.3-0.5c-3.4,6-9.8,10.1-17.1,10.1c-3.1,0-6-0.7-8.6-2
					c-3.4,8-11.4,13.7-20.6,13.7c-9.6,0-17.9-6.1-21-14.7c-1.4,0.3-2.8,0.4-4.3,0.4c-11.5,0-20.8-9.4-20.8-21
					c0-7.8,4.2-14.6,10.4-18.2c-1.3-2.9-2-6.2-2-9.6c0-13.3,10.8-24.2,24.2-24.2C205.2,33.2,212.1,36.9,216.5,42.7z"/>
			</g>
		</g>
	</g>
</g>
</svg>
