<?xml version="1.0" encoding="utf-8"?>
<!-- Generator: Adobe Illustrator 26.5.0, SVG Export Plug-In . SVG Version: 6.00 Build 0)  -->
<svg version="1.1" id="Cert-Associates" xmlns="http://www.w3.org/2000/svg" xmlns:xlink="http://www.w3.org/1999/xlink" x="0px"
	 y="0px" viewBox="0 0 454 445" style="enable-background:new 0 0 454 445;" xml:space="preserve">
<style type="text/css">
	.st0{fill:#0B5CAB;}
	.st1{fill:#0D9DDA;}
	.st2{fill:#FFFFFF;}
</style>
<g>
	<path class="st0" d="M35.9,321.3l4.9,21.4c2.3,9.9,8.9,18.2,18.1,22.7l153.7,74c9.2,4.4,19.8,4.4,29,0l153.7-74
		c9.2-4.4,15.8-12.7,18.1-22.7l5-21.7L35.9,321.3z"/>
	<g>
		<g>
			<g>
				<path class="st1" d="M241.5,406L418.2,321l33-144.6c2.3-9.9-0.1-20.3-6.4-28.2L338.4,14.9C332,6.9,322.4,2.3,312.3,2.3H141.7
					c-10.2,0-19.8,4.6-26.1,12.6L9.3,148.2c-6.3,7.9-8.7,18.3-6.4,28.2l33.1,144.9L212.5,406C221.7,410.4,232.3,410.4,241.5,406z"/>
			</g>
		</g>
		<g>
			<g>
				<g>
					<path class="st2" d="M77.9,186.3c-0.1-0.3-0.4-0.6-0.7-0.7c-0.3-0.1-0.7-0.1-1,0.1c-0.1,0-5.5,3.1-13,3.1
						c-9.1,0-15.8-6.4-15.8-15.2c0-9.3,6.5-15.4,16.6-15.4c5.7,0,11.7,2.9,11.8,3c0.3,0.1,0.6,0.2,0.9,0c0.3-0.1,0.5-0.3,0.7-0.6
						l2.9-7.1c0.2-0.5,0-1.1-0.5-1.4c-0.3-0.2-6.7-4-17.1-4c-14.6,0-26.4,11.4-26.4,25.4c0,15,11.3,25.4,27.6,25.4
						c9.8,0,16-4,16.2-4.1c0.5-0.3,0.6-0.9,0.5-1.4L77.9,186.3z"/>
					<path class="st2" d="M93.4,198.1h30.5c0.6,0,1.2-0.5,1.2-1.2v-7.6c0-0.6-0.5-1.2-1.2-1.2h-21.1v-8.9h19c0.6,0,1.2-0.5,1.2-1.2
						v-7.3c0-0.6-0.5-1.2-1.2-1.2h-19v-10.8h21.1c0.6,0,1.2-0.5,1.2-1.2V150c0-0.6-0.5-1.2-1.2-1.2H93.4c-0.6,0-1.2,0.5-1.2,1.2
						v46.9C92.2,197.6,92.8,198.1,93.4,198.1z"/>
					<path class="st2" d="M222.9,148.9h-39.4c-0.6,0-1.2,0.5-1.2,1.2v7.6c0,0.6,0.5,1.2,1.2,1.2h14.5v38.1c0,0.6,0.5,1.2,1.2,1.2
						h8.3c0.6,0,1.2-0.5,1.2-1.2v-38.1h14.3c0.6,0,1.2-0.5,1.2-1.2V150C224,149.4,223.5,148.9,222.9,148.9z"/>
					<path class="st2" d="M244,148.9h-8.3c-0.6,0-1.2,0.5-1.2,1.2v46.9c0,0.6,0.5,1.2,1.2,1.2h8.3c0.6,0,1.2-0.5,1.2-1.2V150
						C245.2,149.4,244.7,148.9,244,148.9z"/>
					<path class="st2" d="M290.4,148.9H260c-0.6,0-1.2,0.5-1.2,1.2v46.9c0,0.6,0.5,1.2,1.2,1.2h8.2c0.6,0,1.2-0.5,1.2-1.2v-17.1
						h18.6c0.6,0,1.2-0.5,1.2-1.2v-7.3c0-0.6-0.5-1.2-1.2-1.2h-18.6v-11.4h21.1c0.6,0,1.2-0.5,1.2-1.2V150
						C291.6,149.4,291.1,148.9,290.4,148.9z"/>
					<path class="st2" d="M312.7,148.9h-8.3c-0.6,0-1.2,0.5-1.2,1.2v46.9c0,0.6,0.5,1.2,1.2,1.2h8.3c0.6,0,1.2-0.5,1.2-1.2V150
						C313.8,149.4,313.3,148.9,312.7,148.9z"/>
					<path class="st2" d="M359.1,148.9h-30.5c-0.6,0-1.2,0.5-1.2,1.2v46.9c0,0.6,0.5,1.2,1.2,1.2h30.5c0.6,0,1.2-0.5,1.2-1.2v-7.6
						c0-0.6-0.5-1.2-1.2-1.2H338v-8.9h19c0.6,0,1.2-0.5,1.2-1.2v-7.3c0-0.6-0.5-1.2-1.2-1.2h-19v-10.8h21.1c0.6,0,1.2-0.5,1.2-1.2
						V150C360.2,149.4,359.7,148.9,359.1,148.9z"/>
					<path class="st2" d="M391.6,148.9h-17.7c-0.6,0-1.2,0.5-1.2,1.2v46.9c0,0.6,0.5,1.2,1.2,1.2h17.7c15,0,26.2-10.6,26.2-24.6
						C417.8,159.2,406.8,148.9,391.6,148.9z M391.6,188.2h-8.3v-29.4h8.3c8.7,0,15,6.2,15,14.8C406.6,181.9,400.2,188.2,391.6,188.2
						z"/>
					<path class="st2" d="M166.8,181.4c5.2-2.9,7.9-8,7.9-14.7c0-11.2-7.4-17.8-19.9-17.8h-15c-0.6,0-1.2,0.5-1.2,1.2v46.9
						c0,0.6,0.5,1.2,1.2,1.2h8.3c0.6,0,1.2-0.5,1.2-1.2v-12.5h4c1.3,0,2.5,0,3.6-0.1l9.6,13.3c0.2,0.3,0.6,0.5,0.9,0.5h9.7
						c0.4,0,0.8-0.2,1-0.6c0.2-0.4,0.2-0.9-0.1-1.2L166.8,181.4z M149.3,158.8h5c6.2,0,9.3,2.6,9.3,7.9c0,5.4-3.1,8.1-9.3,8.1h-5
						V158.8z"/>
				</g>
			</g>
		</g>
		<g>
			<circle class="st2" cx="227" cy="77.9" r="43.6"/>
			<g>
				<path class="st1" d="M227,44.4c-18.5,0-33.5,15-33.5,33.5c0,18.5,15,33.5,33.5,33.5s33.5-15,33.5-33.5
					C260.5,59.4,245.5,44.4,227,44.4z M227,108.8c-16.9,0-30.6-13.7-30.6-30.7c0-17,13.7-30.7,30.6-30.7c16.9,0,30.6,13.7,30.6,30.7
					C257.6,95,243.9,108.8,227,108.8z"/>
				<path class="st1" d="M218.5,92.9c-5-2.4-8.6-7.8-8.6-14c0-3.3,1-6.3,2.6-8.8l11,16.5h6.7l11-16.5c1.7,2.5,2.6,5.5,2.6,8.8
					c0,5.8-3.1,10.9-7.6,13.5l2.1,8.2c8.1-4.2,13.6-12.6,13.6-22.4c0-9.2-4.9-17.3-12.3-21.7L227,76.3l-12.7-19.9
					c-7.4,4.4-12.4,12.5-12.4,21.7c0,10.1,5.9,18.8,14.5,22.8L218.5,92.9z"/>
			</g>
		</g>
	</g>
</g>
<g>
	<path class="st2" d="M141.5,255.4h4.8c0.1,0,0.2,0,0.3-0.1c0.1-0.1,0.1-0.2,0.1-0.3l-0.1-19.7l7.7,19.9c0.1,0.2,0.2,0.3,0.4,0.3
		h3.8c0.2,0,0.3-0.1,0.4-0.3l7.8-19.9l-0.1,19.7c0,0.1,0,0.2,0.1,0.3s0.2,0.1,0.3,0.1h5c0.2,0,0.4-0.2,0.4-0.4v-27.6
		c0-0.2-0.2-0.4-0.4-0.4h-7.5c-0.2,0-0.3,0.1-0.4,0.3l-7.4,19.7l-7.2-19.7c-0.1-0.2-0.2-0.3-0.4-0.3h-7.5c-0.2,0-0.4,0.2-0.4,0.4
		V255C141.1,255.3,141.3,255.4,141.5,255.4z"/>
	<path class="st2" d="M186.5,256c2.6,0,4.7-0.8,6.2-2.4c0.1,0.5,0.1,1,0.2,1.5c0,0.2,0.2,0.3,0.4,0.3h4.7c0.1,0,0.2-0.1,0.3-0.1
		c0.1-0.1,0.1-0.2,0.1-0.3c-0.2-1.7-0.3-3.2-0.3-4.6v-15.6c0-0.2-0.2-0.4-0.4-0.4h-4.9c-0.2,0-0.4,0.2-0.4,0.4v11c0,1.6-0.4,3-1.3,4
		c-0.8,1-1.9,1.5-3.3,1.5c-1.3,0-2.2-0.4-2.8-1.2c-0.6-0.9-0.9-2.1-0.9-3.6v-11.7c0-0.2-0.2-0.4-0.4-0.4h-4.9
		c-0.2,0-0.4,0.2-0.4,0.4v12.5c0,2.6,0.7,4.7,2,6.3C181.8,255.2,183.8,256,186.5,256z"/>
	<path class="st2" d="M204.7,255.4h4.9c0.2,0,0.4-0.2,0.4-0.4v-27.6c0-0.2-0.2-0.4-0.4-0.4h-4.9c-0.2,0-0.4,0.2-0.4,0.4V255
		C204.3,255.3,204.5,255.4,204.7,255.4z"/>
	<path class="st2" d="M219.9,254.6c1.6,0.9,3.5,1.4,5.7,1.4c1.7,0,3.2-0.2,4.6-0.7c1.4-0.4,2.7-1.1,3.9-2c0.2-0.1,0.2-0.4,0.1-0.6
		l-2.1-3.1c-0.1-0.2-0.4-0.2-0.6-0.1c-1,0.6-1.9,1.1-2.7,1.3c-0.8,0.3-1.8,0.4-2.9,0.4c-1.6,0-2.8-0.4-3.6-1.2
		c-0.8-0.7-1.3-1.7-1.5-3h13.6c0.2,0,0.4-0.2,0.4-0.4c0.1-0.6,0.1-1.2,0.1-1.9c0-3.3-0.8-6-2.5-8c-1.7-2-4.1-3-7.3-3
		c-3.2,0-5.8,1-7.5,3.1c-1.8,2-2.7,4.7-2.7,8c0,2.2,0.4,4.1,1.3,5.8C217.1,252.4,218.3,253.7,219.9,254.6z M220.7,242.6
		c0.2-1.2,0.6-2.2,1.2-3c0.7-0.9,1.8-1.3,3.2-1.3c1.4,0,2.4,0.4,3.1,1.3c0.6,0.8,1,1.8,1.1,3H220.7z"/>
	<path class="st2" d="M250,238.1c-2-0.5-3.4-1.1-4.3-1.6c-0.8-0.5-1.1-1.2-1.1-2.3c0-1,0.4-1.7,1.1-2.2c0.8-0.5,1.9-0.8,3.3-0.8
		c1.1,0,2.2,0.2,3.2,0.5c1,0.3,2,0.8,3.1,1.4c0.2,0.1,0.4,0.1,0.5-0.1l2.3-3.3c0.1-0.2,0.1-0.4-0.1-0.6c-2.6-1.9-5.7-2.8-9.2-2.8
		c-1.9,0-3.6,0.3-5.1,0.9c-1.5,0.6-2.8,1.6-3.7,2.8c-0.9,1.2-1.4,2.7-1.4,4.5c0,2.2,0.7,4,2.1,5.4c1.3,1.3,3.3,2.3,5.9,3
		c1.5,0.4,2.7,0.8,3.6,1.2c0.8,0.3,1.4,0.8,1.8,1.3c0.4,0.5,0.6,1.2,0.6,2.1c0,1.2-0.4,2.1-1.3,2.7c-0.9,0.6-2.1,0.9-3.6,0.9
		c-1.3,0-2.5-0.2-3.6-0.5c-1.1-0.3-2.1-0.9-3.2-1.6c-0.2-0.1-0.4-0.1-0.6,0.1l-2.5,3.2c-0.1,0.2-0.1,0.4,0.1,0.6
		c1.3,1.1,2.8,1.9,4.5,2.5c1.6,0.6,3.4,0.9,5.3,0.9c2,0,3.8-0.3,5.5-1c1.7-0.6,3-1.7,4-3c1-1.4,1.5-3,1.5-5c0-2.6-0.8-4.6-2.3-6
		C254.9,239.9,252.8,238.8,250,238.1z"/>
	<path class="st2" d="M267,254.5c1.6,1,3.6,1.4,5.8,1.4c2.2,0,4.2-0.5,5.8-1.4c1.7-0.9,2.9-2.3,3.8-4c0.9-1.7,1.3-3.6,1.3-5.8
		c0-2.2-0.4-4.1-1.3-5.8c-0.9-1.6-2.1-3-3.8-3.9c-1.6-0.9-3.6-1.4-5.9-1.4s-4.2,0.5-5.9,1.4c-1.6,0.9-2.9,2.2-3.8,3.9
		c-0.9,1.6-1.3,3.6-1.3,5.8c0,2.1,0.4,4.1,1.3,5.7C264.1,252.2,265.4,253.6,267,254.5z M272.9,238.5c1.8,0,3.1,0.5,3.9,1.6
		c0.8,1.1,1.2,2.7,1.2,4.7c0,2-0.4,3.6-1.3,4.8c-0.8,1.2-2.1,1.7-3.9,1.7s-3.1-0.6-3.9-1.7c-0.8-1.2-1.2-2.8-1.2-4.8
		c0-2,0.4-3.5,1.2-4.7C269.8,239,271.1,238.5,272.9,238.5z"/>
	<path class="st2" d="M286.5,239.1h2.9v16c0,0.2,0.2,0.4,0.4,0.4h4.9c0.2,0,0.4-0.2,0.4-0.4v-16h4.4c0.2,0,0.4-0.2,0.4-0.4v-3.7
		c0-0.2-0.2-0.4-0.4-0.4h-4.4V234c0-2,1-2.9,3-2.9c0.8,0,1.4,0.1,2,0.3c0.2,0.1,0.4-0.1,0.5-0.3l1.2-3.5c0.1-0.2,0-0.4-0.2-0.5
		c-1.3-0.5-2.7-0.7-4.2-0.7c-2.6,0-4.6,0.7-6,2c-1.3,1.3-2,3.1-2,5.4v0.8l-3,0.5c-0.2,0-0.3,0.2-0.3,0.4v3.1
		C286.1,238.9,286.3,239.1,286.5,239.1z"/>
	<path class="st2" d="M301.2,235.5v3.1c0,0.2,0.2,0.4,0.4,0.4h2.9v10.2c0,2.1,0.6,3.8,1.8,5c1.2,1.2,2.9,1.8,5,1.8
		c1.4,0,2.7-0.2,3.7-0.6c0.2-0.1,0.3-0.3,0.2-0.5l-0.7-3.6c0-0.1-0.1-0.2-0.2-0.3c-0.1-0.1-0.2-0.1-0.3,0c-0.5,0.1-1,0.2-1.7,0.2
		c-1.5,0-2.2-0.8-2.2-2.5v-9.7h4.6c0.2,0,0.4-0.2,0.4-0.4v-3.7c0-0.2-0.2-0.4-0.4-0.4h-4.6v-6.1c0-0.1-0.1-0.3-0.2-0.3
		c-0.1-0.1-0.2-0.1-0.4-0.1l-4.9,1.7c-0.2,0.1-0.3,0.2-0.3,0.4v4.5l-3,0.5C301.3,235.2,301.2,235.3,301.2,235.5z"/>
	<path class="st2" d="M130,273h-11.5c-0.2,0-0.4,0.2-0.4,0.4v3.7c0,0.2,0.2,0.4,0.4,0.4h2.8v19.2h-2.8c-0.2,0-0.4,0.2-0.4,0.4v3.9
		c0,0.2,0.2,0.4,0.4,0.4H130c0.2,0,0.4-0.2,0.4-0.4v-3.9c0-0.2-0.2-0.4-0.4-0.4h-2.8v-19.2h2.8c0.2,0,0.4-0.2,0.4-0.4v-3.7
		C130.4,273.2,130.2,273,130,273z"/>
	<path class="st2" d="M135.5,301c0,0.2,0.2,0.4,0.4,0.4h4.9c0.2,0,0.4-0.2,0.4-0.4v-11.3c0-1.5,0.4-2.7,1.2-3.7
		c0.8-0.9,1.9-1.4,3.3-1.4c1.3,0,2.3,0.4,2.9,1.1c0.6,0.7,0.9,1.7,0.9,2.9V301c0,0.2,0.2,0.4,0.4,0.4h4.9c0.2,0,0.4-0.2,0.4-0.4
		v-13.4c0-1.4-0.3-2.6-0.8-3.8c-0.6-1.2-1.4-2.2-2.6-2.9c-1.2-0.7-2.7-1.1-4.4-1.1c-1.6,0-3,0.3-4.2,0.8c-0.9,0.4-1.7,0.9-2.3,1.6
		c-0.1-0.5-0.1-1-0.2-1.5c0-0.2-0.2-0.3-0.4-0.3h-4.7c-0.1,0-0.2,0-0.3,0.1c-0.1,0.1-0.1,0.2-0.1,0.3c0.2,2.1,0.3,3.6,0.3,4.6V301z"
		/>
	<path class="st2" d="M163.7,300.2c1.2,1.2,2.9,1.8,5,1.8c1.4,0,2.7-0.2,3.7-0.6c0.2-0.1,0.3-0.3,0.2-0.5l-0.7-3.6
		c0-0.1-0.1-0.2-0.2-0.3c-0.1-0.1-0.2-0.1-0.3,0c-0.5,0.1-1,0.2-1.7,0.2c-1.5,0-2.2-0.8-2.2-2.5v-9.7h4.6c0.2,0,0.4-0.2,0.4-0.4
		v-3.7c0-0.2-0.2-0.4-0.4-0.4h-4.6v-6.1c0-0.1-0.1-0.3-0.2-0.3c-0.1-0.1-0.2-0.1-0.4-0.1l-4.9,1.7c-0.2,0.1-0.3,0.2-0.3,0.4v4.5
		l-3,0.5c-0.2,0-0.3,0.2-0.3,0.4v3.1c0,0.2,0.2,0.4,0.4,0.4h2.9v10.2C161.8,297.4,162.5,299,163.7,300.2z"/>
	<path class="st2" d="M190.3,301.3c1.4-0.4,2.7-1.1,3.9-2c0.2-0.1,0.2-0.4,0.1-0.6l-2.1-3.1c-0.1-0.2-0.4-0.2-0.6-0.1
		c-1,0.6-1.9,1.1-2.7,1.3c-0.8,0.3-1.8,0.4-2.9,0.4c-1.6,0-2.8-0.4-3.6-1.2c-0.8-0.7-1.3-1.7-1.5-3h13.6c0.2,0,0.4-0.2,0.4-0.4
		c0.1-0.6,0.1-1.2,0.1-1.9c0-3.3-0.8-6-2.5-8c-1.7-2-4.1-3-7.3-3c-3.2,0-5.8,1-7.5,3.1c-1.8,2-2.7,4.7-2.7,8c0,2.2,0.4,4.1,1.3,5.8
		c0.9,1.7,2.1,3,3.7,3.9c1.6,0.9,3.5,1.4,5.7,1.4C187.4,302,188.9,301.8,190.3,301.3z M180.8,288.6c0.2-1.2,0.6-2.2,1.2-3
		c0.7-0.9,1.8-1.3,3.2-1.3c1.4,0,2.4,0.4,3.1,1.3c0.6,0.8,1,1.8,1.1,3H180.8z"/>
	<path class="st2" d="M215.8,309.5c2.1-1.3,3.1-3.3,3.1-5.8c0-2.1-0.9-3.7-2.8-4.7c-1.8-1-4.5-1.5-8.1-1.7c-1.2,0-2.2-0.2-2.7-0.4
		c-0.6-0.3-0.6-0.6-0.6-0.7c0-0.2,0.1-0.5,0.7-0.8c0.6-0.2,1.5-0.4,2.6-0.4c2.8,0,5-0.6,6.5-1.8c1.6-1.2,2.4-3,2.4-5.2
		c0-0.9-0.1-1.8-0.4-2.5c-0.1-0.4-0.3-0.7-0.5-1l3,0.5c0.1,0,0.2,0,0.3-0.1c0.1-0.1,0.1-0.2,0.1-0.3v-3.9c0-0.2-0.2-0.4-0.4-0.4
		h-7.3c-0.7-0.2-1.3-0.3-1.8-0.4c-0.6-0.1-1.2-0.1-2-0.1c-2.8,0-5.1,0.7-6.7,2.1c-1.7,1.4-2.5,3.3-2.5,5.7c0,2.6,1,4.6,2.9,5.9
		c-0.6,0.3-1.1,0.6-1.4,1.1c-0.6,0.6-0.8,1.4-0.8,2.2c0,0.7,0.2,1.3,0.5,1.8c0.2,0.3,0.5,0.6,0.9,0.9c-2.2,1.4-3.3,3.2-3.3,5.4
		c0,2.1,0.9,3.8,2.6,5c1.7,1.1,4.1,1.7,7.2,1.7C210.9,311.5,213.8,310.8,215.8,309.5z M207.8,284.2c1.3,0,2.3,0.3,2.9,0.9
		c0.6,0.6,0.9,1.5,0.9,2.5c0,2.2-1.2,3.3-3.8,3.3c-1.3,0-2.3-0.3-2.9-0.9c-0.6-0.6-0.9-1.4-0.9-2.5c0-1,0.3-1.8,1-2.4
		C205.7,284.5,206.7,284.2,207.8,284.2z M211.9,306.2c-1,0.5-2.5,0.8-4.5,0.8c-4.4,0-4.4-1.9-4.4-2.5c0-1.1,0.6-2,1.8-2.8
		c3.2,0,5.4,0.3,6.7,0.7c1.7,0.6,1.7,1.4,1.7,1.7C213.3,305.1,212.8,305.7,211.9,306.2z"/>
	<path class="st2" d="M229.2,301v-10.6c0-1.6,0.4-3,1.3-4c0.9-1,2.1-1.5,3.7-1.5c0.6,0,1,0,1.4,0.1c0.1,0,0.2,0,0.3-0.1
		c0.1-0.1,0.1-0.2,0.2-0.3l0.2-4.2c0-0.2-0.1-0.4-0.3-0.4c-0.4-0.1-0.9-0.2-1.4-0.2c-2.5,0-4.5,0.9-5.8,2.6
		c-0.1-0.5-0.1-1.1-0.2-1.7c0-0.2-0.2-0.3-0.4-0.3h-4.7c-0.1,0-0.2,0-0.3,0.1c-0.1,0.1-0.1,0.2-0.1,0.3c0.2,2.1,0.3,3.6,0.3,4.6V301
		c0,0.2,0.2,0.4,0.4,0.4h4.9C229,301.4,229.2,301.3,229.2,301z"/>
	<path class="st2" d="M256.3,288.7c0-3-0.7-5.2-2.2-6.7c-1.5-1.5-3.8-2.2-7-2.2c-1.4,0-2.8,0.2-4.2,0.6c-1.4,0.4-2.7,0.9-3.8,1.6
		c-0.2,0.1-0.3,0.3-0.2,0.5l1.6,3.2c0,0.1,0.1,0.2,0.2,0.2c0.1,0,0.2,0,0.3,0c1.9-1,3.8-1.5,5.7-1.5c3.4,0,3.8,1.6,3.8,2.9v0.6
		c-0.4,0-0.9,0-1.5,0c-3.6,0-6.4,0.5-8.3,1.6c-2,1.1-3,3.1-3,5.9c0,2.1,0.7,3.8,2,4.9c1.3,1.1,3,1.7,4.9,1.7c1.7,0,3.1-0.2,4.2-0.7
		c0.8-0.4,1.6-1,2.3-1.7c0.1,0.4,0.1,0.9,0.2,1.5c0,0.2,0.2,0.3,0.4,0.3h4.5c0.1,0,0.2,0,0.3-0.1c0.1-0.1,0.1-0.2,0.1-0.3
		c-0.2-2.1-0.3-3.6-0.3-4.6V288.7z M250.6,291.9v1.2c0,0.7-0.2,1.4-0.6,2c-0.4,0.6-0.9,1.1-1.6,1.5c-0.7,0.4-1.5,0.6-2.4,0.6
		c-0.8,0-1.4-0.2-1.8-0.6c-0.4-0.4-0.6-1-0.6-1.8c0-1.1,0.4-1.9,1.3-2.3c0.9-0.5,2.5-0.8,4.7-0.8L250.6,291.9z"/>
	<path class="st2" d="M260.1,285.1h2.9v10.2c0,2.1,0.6,3.8,1.8,5c1.2,1.2,2.9,1.8,5,1.8c1.4,0,2.7-0.2,3.7-0.6
		c0.2-0.1,0.3-0.3,0.2-0.5l-0.7-3.6c0-0.1-0.1-0.2-0.2-0.3c-0.1-0.1-0.2-0.1-0.3,0c-0.5,0.1-1,0.2-1.7,0.2c-1.5,0-2.2-0.8-2.2-2.5
		v-9.7h4.6c0.2,0,0.4-0.2,0.4-0.4v-3.7c0-0.2-0.2-0.4-0.4-0.4h-4.6v-6.1c0-0.1-0.1-0.3-0.2-0.3c-0.1-0.1-0.2-0.1-0.4-0.1l-4.9,1.7
		c-0.2,0.1-0.3,0.2-0.3,0.4v4.5l-3,0.5c-0.2,0-0.3,0.2-0.3,0.4v3.1C259.7,284.9,259.9,285.1,260.1,285.1z"/>
	<path class="st2" d="M278.6,280.3c-0.2,0-0.4,0.2-0.4,0.4V301c0,0.2,0.2,0.4,0.4,0.4h4.9c0.2,0,0.4-0.2,0.4-0.4v-20.3
		c0-0.2-0.2-0.4-0.4-0.4H278.6z"/>
	<path class="st2" d="M283.6,272.1c-0.5-0.6-1.4-0.9-2.6-0.9c-2.2,0-3.4,1.1-3.4,3.2c0,0.9,0.3,1.7,0.8,2.3c0.5,0.6,1.4,0.9,2.6,0.9
		c1.2,0,2-0.3,2.6-0.9c0.5-0.6,0.8-1.4,0.8-2.3C284.5,273.5,284.2,272.7,283.6,272.1z"/>
	<path class="st2" d="M305.7,281.2c-1.6-0.9-3.6-1.4-5.9-1.4s-4.2,0.5-5.9,1.4c-1.6,0.9-2.9,2.2-3.8,3.9c-0.9,1.6-1.3,3.6-1.3,5.8
		c0,2.1,0.4,4.1,1.3,5.7c0.9,1.7,2.2,3,3.8,4c1.6,1,3.6,1.4,5.8,1.4s4.2-0.5,5.8-1.4c1.7-0.9,2.9-2.3,3.8-4c0.9-1.7,1.3-3.6,1.3-5.8
		c0-2.2-0.4-4.1-1.3-5.8C308.6,283.4,307.3,282.1,305.7,281.2z M299.8,297.3c-1.8,0-3.1-0.6-3.9-1.7c-0.8-1.2-1.2-2.8-1.2-4.8
		c0-2,0.4-3.5,1.2-4.7c0.8-1.1,2-1.6,3.8-1.6c1.8,0,3.1,0.5,3.9,1.6c0.8,1.1,1.2,2.7,1.2,4.7c0,2-0.4,3.6-1.3,4.8
		C302.9,296.7,301.6,297.3,299.8,297.3z"/>
	<path class="st2" d="M334.5,283.8c-0.6-1.2-1.4-2.2-2.6-2.9c-1.2-0.7-2.7-1.1-4.4-1.1c-1.6,0-3,0.3-4.2,0.8
		c-0.9,0.4-1.7,0.9-2.3,1.6c-0.1-0.5-0.1-1-0.2-1.5c0-0.2-0.2-0.3-0.4-0.3h-4.7c-0.1,0-0.2,0-0.3,0.1c-0.1,0.1-0.1,0.2-0.1,0.3
		c0.2,2.1,0.3,3.6,0.3,4.6V301c0,0.2,0.2,0.4,0.4,0.4h4.9c0.2,0,0.4-0.2,0.4-0.4v-11.3c0-1.5,0.4-2.7,1.2-3.7
		c0.8-0.9,1.9-1.4,3.3-1.4c1.3,0,2.3,0.4,2.9,1.1c0.6,0.7,0.9,1.7,0.9,2.9V301c0,0.2,0.2,0.4,0.4,0.4h4.9c0.2,0,0.4-0.2,0.4-0.4
		v-13.4C335.3,286.3,335.1,285,334.5,283.8z"/>
	<path class="st2" d="M150.9,319.3c-0.1-0.2-0.2-0.3-0.4-0.3h-5.3c-0.2,0-0.3,0.1-0.4,0.3l-10.6,27.6c0,0.1,0,0.3,0,0.4
		s0.2,0.2,0.3,0.2h5.3c0.2,0,0.3-0.1,0.4-0.3l2.1-5.7h10.7l2,5.7c0.1,0.2,0.2,0.3,0.4,0.3h5.5c0.1,0,0.3-0.1,0.3-0.2
		c0.1-0.1,0.1-0.2,0-0.4L150.9,319.3z M151.5,336.8h-7.4l3.7-10.9L151.5,336.8z"/>
	<path class="st2" d="M173.2,334.5c-1.2-0.3-2.1-0.5-2.7-0.8c-0.5-0.2-0.9-0.4-1.1-0.7c-0.2-0.2-0.3-0.6-0.3-1.1
		c0-0.5,0.2-0.9,0.7-1.2c0.5-0.3,1.2-0.5,2.2-0.5c1.5,0,3.1,0.5,4.6,1.4c0.2,0.1,0.4,0.1,0.6-0.1l1.9-3.1c0.1-0.2,0.1-0.4-0.1-0.5
		c-2-1.5-4.4-2.2-7.2-2.2c-2.5,0-4.5,0.6-6,1.7c-1.6,1.2-2.3,2.8-2.3,4.8c0,1.8,0.5,3.2,1.5,4.2c1,1,2.6,1.8,4.6,2.3
		c1.2,0.3,2.1,0.5,2.6,0.8c0.5,0.2,0.9,0.4,1.1,0.7c0.2,0.2,0.3,0.6,0.3,1c0,0.7-0.2,1.2-0.7,1.5c-0.5,0.4-1.3,0.6-2.4,0.6
		c-0.9,0-1.8-0.1-2.5-0.4c-0.8-0.2-1.6-0.6-2.4-1.1c-0.2-0.1-0.4-0.1-0.5,0.1l-2.1,3c-0.1,0.2-0.1,0.4,0.1,0.6
		c2.1,1.6,4.7,2.4,7.7,2.4c2.4,0,4.5-0.6,6.2-1.8c1.7-1.2,2.6-3,2.6-5.2c0-1.7-0.5-3.1-1.6-4.1C176.9,335.8,175.3,335,173.2,334.5z"
		/>
	<path class="st2" d="M192.2,334.5c-1.2-0.3-2.1-0.5-2.7-0.8c-0.5-0.2-0.9-0.4-1.1-0.7c-0.2-0.2-0.3-0.6-0.3-1.1
		c0-0.5,0.2-0.9,0.7-1.2c0.5-0.3,1.2-0.5,2.2-0.5c1.5,0,3.1,0.5,4.6,1.4c0.2,0.1,0.4,0.1,0.6-0.1l1.9-3.1c0.1-0.2,0.1-0.4-0.1-0.5
		c-2-1.5-4.4-2.2-7.2-2.2c-2.5,0-4.5,0.6-6,1.7c-1.6,1.2-2.3,2.8-2.3,4.8c0,1.8,0.5,3.2,1.5,4.2c1,1,2.6,1.8,4.6,2.3
		c1.2,0.3,2.1,0.5,2.6,0.8c0.5,0.2,0.9,0.4,1.1,0.7c0.2,0.2,0.3,0.6,0.3,1c0,0.7-0.2,1.2-0.7,1.5c-0.5,0.4-1.3,0.6-2.4,0.6
		c-0.9,0-1.8-0.1-2.5-0.4c-0.8-0.2-1.6-0.6-2.4-1.1c-0.2-0.1-0.4-0.1-0.5,0.1l-2.1,3c-0.1,0.2-0.1,0.4,0.1,0.6
		c2.1,1.6,4.7,2.4,7.7,2.4c2.4,0,4.5-0.6,6.2-1.8c1.7-1.2,2.6-3,2.6-5.2c0-1.7-0.5-3.1-1.6-4.1C195.8,335.8,194.2,335,192.2,334.5z"
		/>
	<path class="st2" d="M218.4,327.2c-1.6-0.9-3.6-1.4-5.9-1.4c-2.3,0-4.2,0.5-5.9,1.4c-1.6,0.9-2.9,2.2-3.8,3.9
		c-0.9,1.6-1.3,3.6-1.3,5.8c0,2.1,0.4,4.1,1.3,5.7c0.9,1.7,2.2,3,3.8,4c1.6,1,3.6,1.4,5.8,1.4c2.2,0,4.2-0.5,5.8-1.4
		c1.7-0.9,2.9-2.3,3.8-4c0.9-1.7,1.3-3.6,1.3-5.8c0-2.2-0.4-4.1-1.3-5.8C221.4,329.4,220.1,328.1,218.4,327.2z M212.6,343.3
		c-1.8,0-3.1-0.6-3.9-1.7c-0.8-1.2-1.2-2.8-1.2-4.8c0-2,0.4-3.5,1.2-4.7c0.8-1.1,2-1.6,3.8-1.6c1.8,0,3.1,0.5,3.9,1.6
		c0.8,1.1,1.2,2.7,1.2,4.7c0,2-0.4,3.6-1.3,4.8C215.6,342.7,214.4,343.3,212.6,343.3z"/>
	<path class="st2" d="M237.9,325.8c-2.2,0-4.1,0.5-5.7,1.4c-1.6,0.9-2.9,2.2-3.8,3.9c-0.9,1.7-1.3,3.6-1.3,5.8
		c0,1.8,0.3,3.5,0.9,5.2c0.6,1.7,1.7,3.1,3.3,4.2c1.5,1.1,3.6,1.7,6.2,1.7c1.4,0,2.7-0.2,3.9-0.6c1.3-0.4,2.4-0.9,3.5-1.7
		c0.2-0.1,0.2-0.3,0.1-0.5l-1.8-3.5c-0.1-0.1-0.1-0.2-0.2-0.2c-0.1,0-0.2,0-0.3,0c-1.7,1-3.3,1.5-4.8,1.5c-1.7,0-2.9-0.5-3.7-1.7
		c-0.9-1.1-1.3-2.7-1.3-4.6c0-2,0.4-3.5,1.3-4.6c0.8-1.1,2.1-1.6,3.8-1.6c1.6,0,3.2,0.5,4.7,1.5c0.1,0.1,0.2,0.1,0.3,0.1
		c0.1,0,0.2-0.1,0.3-0.2l1.8-3.4c0.1-0.2,0-0.4-0.1-0.5C242.9,326.6,240.6,325.8,237.9,325.8z"/>
	<path class="st2" d="M252.2,317.2c-2.2,0-3.4,1.1-3.4,3.2c0,0.9,0.3,1.7,0.8,2.3c0.5,0.6,1.4,0.9,2.6,0.9c1.2,0,2-0.3,2.6-0.9
		c0.6-0.6,0.8-1.4,0.8-2.3c0-0.9-0.3-1.7-0.8-2.3C254.3,317.5,253.4,317.2,252.2,317.2z"/>
	<path class="st2" d="M254.7,326.3h-4.9c-0.2,0-0.4,0.2-0.4,0.4V347c0,0.2,0.2,0.4,0.4,0.4h4.9c0.2,0,0.4-0.2,0.4-0.4v-20.3
		C255.1,326.5,254.9,326.3,254.7,326.3z"/>
	<path class="st2" d="M278.4,334.7c0-3-0.7-5.2-2.2-6.7c-1.5-1.5-3.8-2.2-7-2.2c-1.4,0-2.8,0.2-4.2,0.6c-1.4,0.4-2.7,0.9-3.8,1.6
		c-0.2,0.1-0.3,0.3-0.2,0.5l1.6,3.2c0,0.1,0.1,0.2,0.2,0.2c0.1,0,0.2,0,0.3,0c1.9-1,3.8-1.5,5.7-1.5c3.4,0,3.8,1.6,3.8,2.9v0.6
		c-0.4,0-0.9,0-1.5,0c-3.6,0-6.4,0.5-8.3,1.6c-2,1.1-3,3.1-3,5.9c0,2.1,0.7,3.8,2,4.9c1.3,1.1,3,1.7,4.9,1.7c1.7,0,3.1-0.2,4.2-0.7
		c0.8-0.4,1.6-1,2.3-1.7c0.1,0.4,0.1,0.9,0.2,1.5c0,0.2,0.2,0.3,0.4,0.3h4.5c0.1,0,0.2,0,0.3-0.1c0.1-0.1,0.1-0.2,0.1-0.3
		c-0.2-2.1-0.3-3.6-0.3-4.6V334.7z M272.7,337.9v1.2c0,0.7-0.2,1.4-0.6,2c-0.4,0.6-0.9,1.1-1.6,1.5c-0.7,0.4-1.5,0.6-2.4,0.6
		c-0.8,0-1.4-0.2-1.8-0.6c-0.4-0.4-0.7-1-0.7-1.8c0-1.1,0.4-1.9,1.3-2.3c0.9-0.5,2.5-0.8,4.7-0.8L272.7,337.9z"/>
	<path class="st2" d="M295.1,343.1c-0.1-0.1-0.2-0.1-0.3,0c-0.5,0.1-1,0.2-1.7,0.2c-1.5,0-2.2-0.8-2.2-2.5v-9.7h4.6
		c0.2,0,0.4-0.2,0.4-0.4v-3.7c0-0.2-0.2-0.4-0.4-0.4h-4.6v-6.1c0-0.1-0.1-0.3-0.2-0.3c-0.1-0.1-0.2-0.1-0.4-0.1l-4.9,1.7
		c-0.2,0.1-0.3,0.2-0.3,0.4v4.5l-3,0.5c-0.2,0-0.3,0.2-0.3,0.4v3.1c0,0.2,0.2,0.4,0.4,0.4h2.9v10.2c0,2.1,0.6,3.8,1.8,5
		c1.2,1.2,2.9,1.8,5,1.8c1.4,0,2.7-0.2,3.7-0.6c0.2-0.1,0.3-0.3,0.2-0.5l-0.7-3.6C295.3,343.2,295.2,343.1,295.1,343.1z"/>
	<path class="st2" d="M308.6,325.8c-3.2,0-5.8,1-7.5,3.1c-1.8,2-2.7,4.7-2.7,8c0,2.2,0.4,4.1,1.3,5.8c0.9,1.7,2.1,3,3.7,3.9
		c1.6,0.9,3.5,1.4,5.7,1.4c1.7,0,3.2-0.2,4.6-0.7c1.4-0.4,2.7-1.1,3.9-2c0.2-0.1,0.2-0.4,0.1-0.6l-2.1-3.1c-0.1-0.2-0.4-0.2-0.6-0.1
		c-1,0.6-1.9,1.1-2.7,1.3c-0.8,0.3-1.8,0.4-2.9,0.4c-1.6,0-2.8-0.4-3.6-1.2c-0.8-0.7-1.3-1.7-1.5-3h13.6c0.2,0,0.4-0.2,0.4-0.4
		c0.1-0.6,0.1-1.2,0.1-1.9c0-3.3-0.8-6-2.5-8C314.2,326.8,311.8,325.8,308.6,325.8z M308.6,330.3c1.4,0,2.4,0.4,3.1,1.3
		c0.6,0.8,1,1.8,1.1,3h-8.6c0.2-1.2,0.6-2.2,1.2-3C306.1,330.7,307.2,330.3,308.6,330.3z"/>
</g>
</svg>
