<?xml version="1.0" encoding="utf-8"?>
<!-- Generator: Adobe Illustrator 28.2.0, SVG Export Plug-In . SVG Version: 6.00 Build 0)  -->
<svg version="1.1" id="Layer_1" xmlns="http://www.w3.org/2000/svg" xmlns:xlink="http://www.w3.org/1999/xlink" x="0px" y="0px"
	 viewBox="0 0 454 445" style="enable-background:new 0 0 454 445;" xml:space="preserve">
<style type="text/css">
	.st0{fill:#03B4A7;}
	.st1{fill:#280F8F;}
	.st2{fill:#FFFFFF;}
	.st3{fill:#0D9DDA;}
</style>
<g id="Layer_1_00000010312130145675476090000007686927028531154856_">
	<g id="Layer_1_00000082362538718048276590000008432127909549740216_">
	</g>
	<g id="Isolation_Mode">
	</g>
</g>
<g>
	<path class="st0" d="M35.9,321.3l4.9,21.4c2.3,9.9,8.9,18.2,18.1,22.7l153.7,74c9.2,4.4,19.8,4.4,29,0l153.7-74
		c9.2-4.4,15.8-12.7,18.1-22.7l5-21.7L35.9,321.3z"/>
	<g>
		<g>
			<path class="st1" d="M241.5,406L418.2,321l33-144.6c2.3-9.9-0.1-20.3-6.4-28.2L338.4,14.9C332,6.9,322.4,2.3,312.3,2.3H141.7
				c-10.2,0-19.8,4.6-26.1,12.6L9.3,148.2c-6.3,7.9-8.7,18.3-6.4,28.2l33.1,144.9L212.5,406C221.7,410.4,232.3,410.4,241.5,406z"/>
		</g>
		<g>
			<path class="st2" d="M83.5,236.4h-7.9c-0.2,0-0.3,0.1-0.4,0.3l-7.8,20.7l-7.6-20.7c-0.1-0.2-0.2-0.3-0.4-0.3h-7.9
				c-0.2,0-0.4,0.2-0.4,0.4v29c0,0.2,0.2,0.4,0.4,0.4h5c0.1,0,0.2,0,0.3-0.1c0.1-0.1,0.1-0.2,0.1-0.3L56.8,245l8.1,21
				c0.1,0.2,0.2,0.3,0.4,0.3h4c0.2,0,0.3-0.1,0.4-0.3l8.2-21l-0.1,20.9c0,0.1,0,0.2,0.1,0.3s0.2,0.1,0.3,0.1h5.2
				c0.2,0,0.4-0.2,0.4-0.4v-29C83.9,236.6,83.7,236.4,83.5,236.4z"/>
			<path class="st2" d="M109.5,244.5c0-0.2-0.2-0.4-0.4-0.4H104c-0.2,0-0.4,0.2-0.4,0.4v11.6c0,1.7-0.4,3.1-1.3,4.2
				c-0.9,1.1-2,1.6-3.5,1.6c-1.4,0-2.3-0.4-2.9-1.3c-0.6-0.9-1-2.2-1-3.8v-12.3c0-0.2-0.2-0.4-0.4-0.4h-5.2c-0.2,0-0.4,0.2-0.4,0.4
				v13.1c0,2.7,0.7,4.9,2.1,6.6c1.4,1.7,3.6,2.6,6.3,2.6c2.8,0,5-0.9,6.6-2.5c0.1,0.5,0.1,1,0.3,1.6c0,0.2,0.2,0.3,0.4,0.3h4.9
				c0.1,0,0.2-0.1,0.3-0.1c0.1-0.1,0.1-0.2,0.1-0.3c-0.2-1.8-0.4-3.4-0.4-4.8V244.5z"/>
			<path class="st2" d="M120.3,236.4h-5.1c-0.2,0-0.4,0.2-0.4,0.4v29c0,0.2,0.2,0.4,0.4,0.4h5.1c0.2,0,0.4-0.2,0.4-0.4v-29
				C120.7,236.6,120.5,236.4,120.3,236.4z"/>
			<path class="st2" d="M129.7,265.4c1.7,1,3.7,1.4,6,1.4c1.8,0,3.4-0.2,4.8-0.7c1.4-0.5,2.8-1.2,4.1-2.1c0.2-0.1,0.2-0.4,0.1-0.6
				l-2.2-3.3c-0.1-0.2-0.4-0.2-0.6-0.1c-1,0.6-2,1.1-2.8,1.4c-0.9,0.3-1.9,0.5-3,0.5c-1.6,0-2.9-0.4-3.8-1.3
				c-0.8-0.8-1.4-1.8-1.6-3.2h14.4c0.2,0,0.4-0.2,0.4-0.4c0.1-0.6,0.1-1.3,0.1-2c0-3.5-0.9-6.3-2.6-8.4c-1.7-2.1-4.3-3.2-7.7-3.2
				c-3.4,0-6,1.1-7.9,3.2c-1.8,2.1-2.8,5-2.8,8.4c0,2.3,0.4,4.3,1.3,6.1C126.7,263,128,264.4,129.7,265.4z M130.5,252.8
				c0.2-1.3,0.6-2.4,1.3-3.2c0.8-0.9,1.9-1.4,3.4-1.4c1.4,0,2.5,0.4,3.2,1.4c0.7,0.8,1.1,1.9,1.2,3.2H130.5z"/>
			<path class="st2" d="M151.9,266.1c1.7,0.6,3.6,0.9,5.6,0.9c2.1,0,4-0.3,5.7-1c1.7-0.7,3.2-1.7,4.2-3.2c1-1.4,1.6-3.2,1.6-5.2
				c0-2.7-0.8-4.9-2.4-6.3c-1.5-1.4-3.8-2.5-6.7-3.3c-2.1-0.6-3.6-1.1-4.5-1.7c-0.8-0.5-1.2-1.3-1.2-2.4c0-1,0.4-1.8,1.2-2.3
				c0.8-0.5,2-0.8,3.5-0.8c1.2,0,2.3,0.2,3.4,0.5c1.1,0.3,2.2,0.8,3.3,1.5c0.2,0.1,0.4,0.1,0.5-0.1l2.4-3.5c0.1-0.2,0.1-0.4-0.1-0.6
				c-2.8-2-6-2.9-9.6-2.9c-2,0-3.8,0.3-5.4,1c-1.6,0.7-2.9,1.6-3.8,2.9c-1,1.3-1.4,2.9-1.4,4.7c0,2.3,0.7,4.2,2.2,5.6
				c1.4,1.4,3.5,2.4,6.1,3.1c1.6,0.4,2.8,0.8,3.7,1.2c0.8,0.4,1.5,0.8,2,1.4c0.4,0.5,0.6,1.3,0.6,2.2c0,1.3-0.4,2.2-1.4,2.9
				c-0.9,0.7-2.2,1-3.8,1c-1.4,0-2.7-0.2-3.8-0.5c-1.1-0.3-2.3-0.9-3.3-1.7c-0.2-0.1-0.4-0.1-0.6,0.1l-2.6,3.4
				c-0.1,0.2-0.1,0.4,0.1,0.6C148.6,264.7,150.2,265.5,151.9,266.1z"/>
			<path class="st2" d="M194,255.1c0-2.3-0.5-4.3-1.4-6.1c-0.9-1.7-2.2-3.1-4-4.1c-1.7-1-3.8-1.4-6.2-1.4c-2.4,0-4.5,0.5-6.2,1.4
				c-1.7,1-3,2.3-4,4.1c-0.9,1.7-1.4,3.8-1.4,6.1c0,2.2,0.5,4.3,1.4,6c0.9,1.8,2.3,3.2,4,4.2c1.7,1,3.8,1.5,6.1,1.5
				c2.3,0,4.4-0.5,6.1-1.5c1.7-1,3.1-2.4,4-4.2C193.5,259.4,194,257.4,194,255.1z M182.5,262c-1.9,0-3.2-0.6-4.1-1.8
				c-0.9-1.2-1.3-2.9-1.3-5c0-2.1,0.4-3.7,1.3-4.9c0.8-1.2,2.2-1.7,4.1-1.7c1.9,0,3.3,0.6,4.1,1.7c0.9,1.2,1.3,2.8,1.3,4.9
				c0,2.1-0.4,3.8-1.3,5C185.7,261.4,184.4,262,182.5,262z"/>
			<path class="st2" d="M223.2,261.7c-0.1-0.1-0.2-0.1-0.3,0c-0.5,0.2-1.1,0.2-1.8,0.2c-1.6,0-2.3-0.8-2.3-2.6V249h4.9
				c0.2,0,0.4-0.2,0.4-0.4v-3.9c0-0.2-0.2-0.4-0.4-0.4h-4.9v-6.4c0-0.1-0.1-0.3-0.2-0.3c-0.1-0.1-0.2-0.1-0.4-0.1l-5.2,1.8
				c-0.2,0.1-0.3,0.2-0.3,0.4v4.7l-3.1,0.6c-0.1,0-0.2,0.1-0.2,0.1v-0.3c0-0.2-0.2-0.4-0.4-0.4h-4.6v-0.6c0-2.1,1-3,3.2-3
				c0.8,0,1.5,0.1,2.1,0.3c0.2,0.1,0.4-0.1,0.5-0.3l1.2-3.6c0.1-0.2,0-0.4-0.2-0.5c-1.3-0.5-2.8-0.7-4.4-0.7c-2.8,0-4.9,0.7-6.2,2.1
				c-1.4,1.4-2.1,3.3-2.1,5.7v0.8l-3.1,0.6c-0.2,0-0.3,0.2-0.3,0.4v3.3c0,0.2,0.2,0.4,0.4,0.4h3.1v16.8c0,0.2,0.2,0.4,0.4,0.4h5.1
				c0.2,0,0.4-0.2,0.4-0.4V249h4.6c0.2,0,0.3-0.1,0.3-0.2c0.1,0.1,0.2,0.2,0.3,0.2h3.1v10.7c0,2.2,0.6,4,1.9,5.2
				c1.3,1.2,3,1.9,5.3,1.9c1.5,0,2.8-0.2,3.9-0.6c0.2-0.1,0.3-0.3,0.2-0.5l-0.7-3.8C223.4,261.8,223.3,261.7,223.2,261.7z"/>
			<path class="st2" d="M238.4,266.3h5.4c0.2,0,0.4-0.2,0.4-0.4v-9h4.7c2,0,3.9-0.4,5.6-1.1c1.7-0.8,3.1-1.9,4.2-3.5
				c1.1-1.6,1.6-3.5,1.6-5.7c0-3.4-1.1-6-3.2-7.6c-2.1-1.7-4.8-2.5-8.2-2.5h-10.5c-0.2,0-0.4,0.2-0.4,0.4v29
				C238,266.1,238.2,266.3,238.4,266.3z M248.4,241.5c1.6,0,3,0.4,4,1.2c1,0.8,1.5,2.1,1.5,3.9c0,1.7-0.5,3-1.6,3.8
				c-1.1,0.9-2.4,1.3-4,1.3h-4.2v-10.2H248.4z"/>
			<path class="st2" d="M269.2,265.8v-29c0-0.2-0.2-0.4-0.4-0.4h-5.1c-0.2,0-0.4,0.2-0.4,0.4v29c0,0.2,0.2,0.4,0.4,0.4h5.1
				C269,266.3,269.2,266.1,269.2,265.8z"/>
			<path class="st2" d="M287.1,265.9c0,0.2,0.2,0.3,0.4,0.3h4.7c0.1,0,0.2,0,0.3-0.1c0.1-0.1,0.1-0.2,0.1-0.3
				c-0.2-2.2-0.4-3.8-0.4-4.8v-8.1c0-3.1-0.8-5.5-2.3-7c-1.5-1.5-4-2.3-7.3-2.3c-1.4,0-2.9,0.2-4.4,0.6c-1.5,0.4-2.8,1-4,1.7
				c-0.2,0.1-0.3,0.3-0.2,0.5l1.7,3.4c0,0.1,0.1,0.2,0.2,0.2c0.1,0,0.2,0,0.3,0c2-1.1,4-1.6,6-1.6c3.6,0,4,1.7,4,3v0.6
				c-0.4,0-1,0-1.6,0c-3.8,0-6.7,0.6-8.7,1.7c-2.1,1.2-3.2,3.2-3.2,6.2c0,2.2,0.7,4,2.1,5.2c1.4,1.2,3.1,1.8,5.2,1.8
				c1.8,0,3.3-0.3,4.4-0.8c0.9-0.4,1.7-1,2.4-1.8C286.9,264.7,287,265.3,287.1,265.9z M286.4,256.3v1.3c0,0.8-0.2,1.5-0.6,2.1
				c-0.4,0.7-1,1.2-1.7,1.6c-0.7,0.4-1.6,0.6-2.5,0.6c-0.8,0-1.5-0.2-1.9-0.7c-0.5-0.4-0.7-1-0.7-1.9c0-1.2,0.4-2,1.3-2.5
				c1-0.5,2.6-0.8,5-0.8L286.4,256.3z"/>
			<path class="st2" d="M308.4,261.7c-0.1-0.1-0.2-0.1-0.3,0c-0.5,0.2-1.1,0.2-1.8,0.2c-1.6,0-2.3-0.8-2.3-2.6V249h4.9
				c0.2,0,0.4-0.2,0.4-0.4v-3.9c0-0.2-0.2-0.4-0.4-0.4H304v-6.4c0-0.1-0.1-0.3-0.2-0.3c-0.1-0.1-0.2-0.1-0.4-0.1l-5.2,1.8
				c-0.2,0.1-0.3,0.2-0.3,0.4v4.7l-3.1,0.6c-0.2,0-0.3,0.2-0.3,0.4v3.3c0,0.2,0.2,0.4,0.4,0.4h3.1v10.7c0,2.2,0.6,4,1.9,5.2
				c1.3,1.2,3,1.9,5.3,1.9c1.5,0,2.8-0.2,3.9-0.6c0.2-0.1,0.3-0.3,0.2-0.5l-0.7-3.8C308.6,261.8,308.5,261.7,308.4,261.7z"/>
			<path class="st2" d="M313.4,265.8c0,0.2,0.2,0.4,0.4,0.4h5.1c0.2,0,0.4-0.2,0.4-0.4V249h4.6c0.2,0,0.4-0.2,0.4-0.4v-3.9
				c0-0.2-0.2-0.4-0.4-0.4h-4.6v-0.6c0-2.1,1-3,3.2-3c0.8,0,1.5,0.1,2.1,0.3c0.2,0.1,0.4-0.1,0.5-0.3l1.2-3.6c0.1-0.2,0-0.4-0.2-0.5
				c-1.4-0.5-2.8-0.7-4.4-0.7c-2.8,0-4.9,0.7-6.2,2.1c-1.4,1.4-2.1,3.3-2.1,5.7v0.8l-3.2,0.6c-0.2,0-0.3,0.2-0.3,0.4v3.3
				c0,0.2,0.2,0.4,0.4,0.4h3.1V265.8z"/>
			<path class="st2" d="M343,245c-1.7-1-3.8-1.4-6.2-1.4c-2.4,0-4.5,0.5-6.2,1.4c-1.7,1-3,2.3-4,4.1c-0.9,1.7-1.4,3.8-1.4,6.1
				c0,2.2,0.5,4.3,1.4,6c0.9,1.8,2.3,3.2,4,4.2c1.7,1,3.8,1.5,6.1,1.5c2.3,0,4.4-0.5,6.1-1.5c1.7-1,3.1-2.4,4-4.2
				c0.9-1.8,1.4-3.8,1.4-6.1c0-2.3-0.5-4.3-1.4-6.1C346.1,247.3,344.7,246,343,245z M336.9,262c-1.9,0-3.2-0.6-4.1-1.8
				c-0.9-1.2-1.3-2.9-1.3-5c0-2.1,0.4-3.7,1.3-4.9c0.8-1.2,2.2-1.7,4.1-1.7c1.9,0,3.3,0.6,4.1,1.7c0.9,1.2,1.3,2.8,1.3,4.9
				c0,2.1-0.4,3.8-1.3,5C340.1,261.4,338.8,262,336.9,262z"/>
			<path class="st2" d="M365.3,243.7c-0.4-0.1-0.9-0.2-1.4-0.2c-2.7,0-4.7,0.9-6.1,2.8c-0.1-0.6-0.1-1.2-0.3-1.9
				c0-0.2-0.2-0.3-0.4-0.3h-4.9c-0.1,0-0.2,0-0.3,0.1c-0.1,0.1-0.1,0.2-0.1,0.3c0.2,2.2,0.4,3.8,0.4,4.8v16.4c0,0.2,0.2,0.4,0.4,0.4
				h5.1c0.2,0,0.4-0.2,0.4-0.4v-11.2c0-1.7,0.5-3.1,1.4-4.2c0.9-1.1,2.2-1.6,3.9-1.6c0.6,0,1.1,0,1.5,0.1c0.1,0,0.2,0,0.3-0.1
				c0.1-0.1,0.1-0.2,0.2-0.3l0.2-4.4C365.6,243.9,365.4,243.8,365.3,243.7z"/>
			<path class="st2" d="M401.2,248c-0.6-1.3-1.5-2.4-2.8-3.2c-1.2-0.8-2.8-1.2-4.7-1.2c-3,0-5.4,1.1-7.1,3.3
				c-1.4-2.2-3.7-3.3-6.8-3.3c-1.5,0-2.9,0.3-4.1,0.9c-0.9,0.4-1.7,1-2.4,1.7c-0.1-0.5-0.1-1-0.3-1.6c0-0.2-0.2-0.3-0.4-0.3h-4.9
				c-0.1,0-0.2,0-0.3,0.1c-0.1,0.1-0.1,0.2-0.1,0.3c0.2,2.2,0.4,3.8,0.4,4.8v16.4c0,0.2,0.2,0.4,0.4,0.4h5.1c0.2,0,0.4-0.2,0.4-0.4
				V254c0-1.6,0.4-2.9,1.2-3.9c0.8-1,1.9-1.5,3.3-1.5c1.3,0,2.2,0.4,2.8,1.1c0.6,0.8,0.9,1.7,0.9,2.9v13.3c0,0.2,0.2,0.4,0.4,0.4
				h5.2c0.2,0,0.4-0.2,0.4-0.4v-11.6c0-1.6,0.4-3,1.2-4.1c0.8-1.1,1.9-1.6,3.3-1.6c1.3,0,2.3,0.4,2.8,1.1c0.6,0.8,0.9,1.9,0.9,3.2
				v12.9c0,0.2,0.2,0.4,0.4,0.4h5.1c0.2,0,0.4-0.2,0.4-0.4v-13.6C402.1,250.7,401.8,249.3,401.2,248z"/>
			<path class="st2" d="M142.9,285.4c-0.1-0.2-0.2-0.3-0.4-0.3H137c-0.2,0-0.3,0.1-0.4,0.3l-11.2,29c0,0.1,0,0.3,0,0.4
				s0.2,0.2,0.3,0.2h5.6c0.2,0,0.3-0.1,0.4-0.3l2.2-6h11.2l2.1,6c0.1,0.2,0.2,0.3,0.4,0.3h5.8c0.1,0,0.3-0.1,0.3-0.2
				c0.1-0.1,0.1-0.2,0-0.4L142.9,285.4z M143.6,303.8h-7.8l3.9-11.5L143.6,303.8z"/>
			<path class="st2" d="M169,292.4c-0.4-0.1-0.9-0.2-1.4-0.2c-2.7,0-4.7,0.9-6.1,2.8c-0.1-0.6-0.1-1.2-0.3-1.9
				c0-0.2-0.2-0.3-0.4-0.3H156c-0.1,0-0.2,0-0.3,0.1c-0.1,0.1-0.1,0.2-0.1,0.3c0.2,2.2,0.4,3.8,0.4,4.8v16.4c0,0.2,0.2,0.4,0.4,0.4
				h5.1c0.2,0,0.4-0.2,0.4-0.4v-11.2c0-1.7,0.5-3.1,1.4-4.2c0.9-1.1,2.2-1.6,3.9-1.6c0.6,0,1.1,0,1.5,0.1c0.1,0,0.2,0,0.3-0.1
				c0.1-0.1,0.1-0.2,0.2-0.3l0.2-4.4C169.4,292.6,169.2,292.5,169,292.4z"/>
			<path class="st2" d="M181,292.2c-2.3,0-4.3,0.5-6,1.4c-1.7,1-3,2.3-3.9,4.1c-0.9,1.7-1.4,3.8-1.4,6.1c0,1.9,0.3,3.7,1,5.4
				c0.7,1.8,1.8,3.3,3.4,4.4c1.6,1.2,3.8,1.8,6.5,1.8c1.4,0,2.8-0.2,4.1-0.6c1.3-0.4,2.5-1,3.6-1.8c0.2-0.1,0.2-0.3,0.1-0.5
				l-1.8-3.6c-0.1-0.1-0.1-0.2-0.2-0.2c-0.1,0-0.2,0-0.3,0c-1.8,1.1-3.5,1.6-5.1,1.6c-1.8,0-3.1-0.6-3.9-1.7
				c-0.9-1.2-1.4-2.8-1.4-4.8c0-2.1,0.5-3.7,1.3-4.8c0.9-1.1,2.2-1.7,4-1.7c1.7,0,3.4,0.5,4.9,1.5c0.1,0.1,0.2,0.1,0.3,0.1
				c0.1,0,0.2-0.1,0.3-0.2l1.9-3.6c0.1-0.2,0-0.4-0.1-0.5C186.2,293,183.7,292.2,181,292.2z"/>
			<path class="st2" d="M204,292.2c-2.7,0-4.9,0.8-6.5,2.4v-9.1c0-0.2-0.2-0.4-0.4-0.4H192c-0.2,0-0.4,0.2-0.4,0.4v29
				c0,0.2,0.2,0.4,0.4,0.4h5.1c0.2,0,0.4-0.2,0.4-0.4v-11.8c0-1.6,0.4-2.9,1.3-3.9c0.9-1,2-1.5,3.5-1.5c1.4,0,2.4,0.4,3,1.1
				c0.6,0.8,0.9,1.8,0.9,3.1v13c0,0.2,0.2,0.4,0.4,0.4h5.1c0.2,0,0.4-0.2,0.4-0.4v-14.1c0-2.3-0.7-4.2-2-5.8
				C208.8,293,206.8,292.2,204,292.2z"/>
			<path class="st2" d="M222.7,292.8h-5.1c-0.2,0-0.4,0.2-0.4,0.4v21.3c0,0.2,0.2,0.4,0.4,0.4h5.1c0.2,0,0.4-0.2,0.4-0.4v-21.3
				C223.1,293,222.9,292.8,222.7,292.8z"/>
			<path class="st2" d="M220.1,283.2c-2.3,0-3.6,1.2-3.6,3.4c0,0.9,0.3,1.7,0.8,2.4c0.6,0.6,1.5,1,2.7,1c1.2,0,2.1-0.3,2.7-1
				c0.6-0.6,0.9-1.4,0.9-2.4c0-1-0.3-1.8-0.8-2.4C222.3,283.5,221.4,283.2,220.1,283.2z"/>
			<path class="st2" d="M239.6,310.4c-0.1-0.1-0.2-0.1-0.3,0c-0.5,0.2-1.1,0.2-1.8,0.2c-1.6,0-2.3-0.8-2.3-2.6v-10.2h4.9
				c0.2,0,0.4-0.2,0.4-0.4v-3.9c0-0.2-0.2-0.4-0.4-0.4h-4.9v-6.4c0-0.1-0.1-0.3-0.2-0.3c-0.1-0.1-0.2-0.1-0.4-0.1l-5.2,1.8
				c-0.2,0.1-0.3,0.2-0.3,0.4v4.7l-3.1,0.6c-0.2,0-0.3,0.2-0.3,0.4v3.3c0,0.2,0.2,0.4,0.4,0.4h3.1v10.7c0,2.2,0.6,4,1.9,5.2
				c1.3,1.2,3,1.9,5.3,1.9c1.5,0,2.8-0.2,3.9-0.6c0.2-0.1,0.3-0.3,0.2-0.5l-0.7-3.8C239.8,310.5,239.7,310.4,239.6,310.4z"/>
			<path class="st2" d="M252.4,292.2c-3.4,0-6,1.1-7.9,3.2c-1.8,2.1-2.8,5-2.8,8.4c0,2.3,0.4,4.3,1.3,6.1c0.9,1.8,2.2,3.1,3.9,4.1
				c1.7,1,3.7,1.4,6,1.4c1.8,0,3.4-0.2,4.8-0.7c1.4-0.5,2.8-1.2,4.1-2.1c0.2-0.1,0.2-0.4,0.1-0.6l-2.2-3.3c-0.1-0.2-0.4-0.2-0.6-0.1
				c-1,0.6-2,1.1-2.8,1.4c-0.9,0.3-1.9,0.5-3,0.5c-1.6,0-2.9-0.4-3.8-1.3c-0.8-0.8-1.4-1.8-1.6-3.2h14.4c0.2,0,0.4-0.2,0.4-0.4
				c0.1-0.6,0.1-1.3,0.1-2c0-3.5-0.9-6.3-2.6-8.4C258.3,293.3,255.7,292.2,252.4,292.2z M252.3,296.9c1.4,0,2.5,0.4,3.2,1.4
				c0.7,0.8,1.1,1.9,1.2,3.2h-9.1c0.2-1.3,0.6-2.4,1.3-3.2C249.8,297.4,250.9,296.9,252.3,296.9z"/>
			<path class="st2" d="M276.3,292.2c-2.3,0-4.3,0.5-6,1.4c-1.7,1-3,2.3-3.9,4.1c-0.9,1.7-1.4,3.8-1.4,6.1c0,1.9,0.3,3.7,1,5.4
				c0.7,1.8,1.8,3.3,3.4,4.4c1.6,1.2,3.8,1.8,6.5,1.8c1.4,0,2.8-0.2,4.1-0.6c1.3-0.4,2.5-1,3.6-1.8c0.2-0.1,0.2-0.3,0.1-0.5
				l-1.8-3.6c-0.1-0.1-0.1-0.2-0.2-0.2c-0.1,0-0.2,0-0.3,0c-1.8,1.1-3.5,1.6-5.1,1.6c-1.8,0-3.1-0.6-3.9-1.7
				c-0.9-1.2-1.4-2.8-1.4-4.8c0-2.1,0.5-3.7,1.3-4.8c0.9-1.1,2.2-1.7,4-1.7c1.7,0,3.4,0.5,4.9,1.5c0.1,0.1,0.2,0.1,0.3,0.1
				c0.1,0,0.2-0.1,0.3-0.2l1.9-3.6c0.1-0.2,0-0.4-0.1-0.5C281.6,293,279.1,292.2,276.3,292.2z"/>
			<path class="st2" d="M299.1,310.4c-0.1-0.1-0.2-0.1-0.3,0c-0.5,0.2-1.1,0.2-1.8,0.2c-1.6,0-2.3-0.8-2.3-2.6v-10.2h4.9
				c0.2,0,0.4-0.2,0.4-0.4v-3.9c0-0.2-0.2-0.4-0.4-0.4h-4.9v-6.4c0-0.1-0.1-0.3-0.2-0.3c-0.1-0.1-0.2-0.1-0.4-0.1l-5.2,1.8
				c-0.2,0.1-0.3,0.2-0.3,0.4v4.7l-3.1,0.6c-0.2,0-0.3,0.2-0.3,0.4v3.3c0,0.2,0.2,0.4,0.4,0.4h3.1v10.7c0,2.2,0.6,4,1.9,5.2
				c1.3,1.2,3,1.9,5.3,1.9c1.5,0,2.8-0.2,3.9-0.6c0.2-0.1,0.3-0.3,0.2-0.5l-0.7-3.8C299.2,310.5,299.2,310.4,299.1,310.4z"/>
			<path class="st2" d="M325,285.1h-12.1c-0.2,0-0.4,0.2-0.4,0.4v3.9c0,0.2,0.2,0.4,0.4,0.4h3v20.2h-3c-0.2,0-0.4,0.2-0.4,0.4v4.1
				c0,0.2,0.2,0.4,0.4,0.4H325c0.2,0,0.4-0.2,0.4-0.4v-4.1c0-0.2-0.2-0.4-0.4-0.4h-3v-20.2h3c0.2,0,0.4-0.2,0.4-0.4v-3.9
				C325.4,285.3,325.2,285.1,325,285.1z"/>
		</g>
		<g>
			<g>
				<g>
					<path class="st2" d="M77.9,186.3c-0.1-0.3-0.4-0.6-0.7-0.7c-0.3-0.1-0.7-0.1-1,0.1c-0.1,0-5.5,3.1-13,3.1
						c-9.1,0-15.8-6.4-15.8-15.2c0-9.3,6.5-15.4,16.6-15.4c5.7,0,11.7,2.9,11.8,3c0.3,0.1,0.6,0.2,0.9,0c0.3-0.1,0.5-0.3,0.7-0.6
						l2.9-7.1c0.2-0.5,0-1.1-0.5-1.4c-0.3-0.2-6.7-4-17.1-4c-14.6,0-26.4,11.4-26.4,25.4c0,15,11.3,25.4,27.6,25.4
						c9.8,0,16-4,16.2-4.1c0.5-0.3,0.6-0.9,0.5-1.4L77.9,186.3z"/>
					<path class="st2" d="M93.4,198.1h30.5c0.6,0,1.2-0.5,1.2-1.2v-7.6c0-0.6-0.5-1.2-1.2-1.2h-21.1v-8.9h19c0.6,0,1.2-0.5,1.2-1.2
						v-7.3c0-0.6-0.5-1.2-1.2-1.2h-19v-10.8h21.1c0.6,0,1.2-0.5,1.2-1.2V150c0-0.6-0.5-1.2-1.2-1.2H93.4c-0.6,0-1.2,0.5-1.2,1.2
						v46.9C92.2,197.6,92.8,198.1,93.4,198.1z"/>
					<path class="st2" d="M222.9,148.9h-39.4c-0.6,0-1.2,0.5-1.2,1.2v7.6c0,0.6,0.5,1.2,1.2,1.2h14.5v38.1c0,0.6,0.5,1.2,1.2,1.2
						h8.3c0.6,0,1.2-0.5,1.2-1.2v-38.1h14.3c0.6,0,1.2-0.5,1.2-1.2V150C224,149.4,223.5,148.9,222.9,148.9z"/>
					<path class="st2" d="M244,148.9h-8.3c-0.6,0-1.2,0.5-1.2,1.2v46.9c0,0.6,0.5,1.2,1.2,1.2h8.3c0.6,0,1.2-0.5,1.2-1.2V150
						C245.2,149.4,244.7,148.9,244,148.9z"/>
					<path class="st2" d="M290.4,148.9H260c-0.6,0-1.2,0.5-1.2,1.2v46.9c0,0.6,0.5,1.2,1.2,1.2h8.2c0.6,0,1.2-0.5,1.2-1.2v-17.1
						h18.6c0.6,0,1.2-0.5,1.2-1.2v-7.3c0-0.6-0.5-1.2-1.2-1.2h-18.6v-11.4h21.1c0.6,0,1.2-0.5,1.2-1.2V150
						C291.6,149.4,291.1,148.9,290.4,148.9z"/>
					<path class="st2" d="M312.7,148.9h-8.3c-0.6,0-1.2,0.5-1.2,1.2v46.9c0,0.6,0.5,1.2,1.2,1.2h8.3c0.6,0,1.2-0.5,1.2-1.2V150
						C313.8,149.4,313.3,148.9,312.7,148.9z"/>
					<path class="st2" d="M359.1,148.9h-30.5c-0.6,0-1.2,0.5-1.2,1.2v46.9c0,0.6,0.5,1.2,1.2,1.2h30.5c0.6,0,1.2-0.5,1.2-1.2v-7.6
						c0-0.6-0.5-1.2-1.2-1.2H338v-8.9h19c0.6,0,1.2-0.5,1.2-1.2v-7.3c0-0.6-0.5-1.2-1.2-1.2h-19v-10.8h21.1c0.6,0,1.2-0.5,1.2-1.2
						V150C360.2,149.4,359.7,148.9,359.1,148.9z"/>
					<path class="st2" d="M391.6,148.9h-17.7c-0.6,0-1.2,0.5-1.2,1.2v46.9c0,0.6,0.5,1.2,1.2,1.2h17.7c15,0,26.2-10.6,26.2-24.6
						C417.8,159.2,406.8,148.9,391.6,148.9z M391.6,188.2h-8.3v-29.4h8.3c8.7,0,15,6.2,15,14.8C406.6,181.9,400.2,188.2,391.6,188.2
						z"/>
					<path class="st2" d="M166.8,181.4c5.2-2.9,7.9-8,7.9-14.7c0-11.2-7.4-17.8-19.9-17.8h-15c-0.6,0-1.2,0.5-1.2,1.2v46.9
						c0,0.6,0.5,1.2,1.2,1.2h8.3c0.6,0,1.2-0.5,1.2-1.2v-12.5h4c1.3,0,2.5,0,3.6-0.1l9.6,13.3c0.2,0.3,0.6,0.5,0.9,0.5h9.7
						c0.4,0,0.8-0.2,1-0.6c0.2-0.4,0.2-0.9-0.1-1.2L166.8,181.4z M149.3,158.8h5c6.2,0,9.3,2.6,9.3,7.9c0,5.4-3.1,8.1-9.3,8.1h-5
						V158.8z"/>
				</g>
			</g>
		</g>
		<g>
			<g>
				<path class="st3" d="M216.5,43.8c4-4.2,9.6-6.8,15.8-6.8c8.2,0,15.4,4.6,19.2,11.4c3.3-1.5,7-2.3,10.9-2.3
					c14.8,0,26.9,12.1,26.9,27.1c0,15-12,27.1-26.9,27.1c-1.8,0-3.6-0.2-5.3-0.5c-3.4,6-9.8,10.1-17.1,10.1c-3.1,0-6-0.7-8.6-2
					c-3.4,8-11.4,13.7-20.6,13.7c-9.6,0-17.9-6.1-21-14.7c-1.4,0.3-2.8,0.4-4.3,0.4c-11.5,0-20.8-9.4-20.8-21
					c0-7.8,4.2-14.6,10.4-18.2c-1.3-2.9-2-6.2-2-9.6c0-13.3,10.8-24.2,24.2-24.2C205.2,34.3,212.1,38,216.5,43.8z"/>
			</g>
		</g>
	</g>
</g>
</svg>
