<?xml version="1.0" encoding="utf-8"?>
<!-- Generator: Adobe Illustrator 28.2.0, SVG Export Plug-In . SVG Version: 6.00 Build 0)  -->
<svg version="1.1" id="Layer_1" xmlns="http://www.w3.org/2000/svg" xmlns:xlink="http://www.w3.org/1999/xlink" x="0px" y="0px"
	 viewBox="0 0 454 445" style="enable-background:new 0 0 454 445;" xml:space="preserve">
<style type="text/css">
	.st0{fill:#03B4A7;}
	.st1{fill:#280F8F;}
	.st2{fill:#FFFFFF;}
	.st3{fill:#0D9DDA;}
</style>
<g id="Layer_1_00000010312130145675476090000007686927028531154856_">
	<g id="Layer_1_00000082362538718048276590000008432127909549740216_">
	</g>
	<g id="Isolation_Mode">
	</g>
</g>
<g>
	<path class="st0" d="M35.9,321.3l4.9,21.4c2.3,9.9,8.9,18.2,18.1,22.7l153.7,74c9.2,4.4,19.8,4.4,29,0l153.7-74
		c9.2-4.4,15.8-12.7,18.1-22.7l5-21.7L35.9,321.3z"/>
	<g>
		<g>
			<path class="st1" d="M241.5,406L418.2,321l33-144.6c2.3-9.9-0.1-20.3-6.4-28.2L338.4,14.9C332,6.9,322.4,2.3,312.3,2.3H141.7
				c-10.2,0-19.8,4.6-26.1,12.6L9.3,148.2c-6.3,7.9-8.7,18.3-6.4,28.2l33.1,144.9L212.5,406C221.7,410.4,232.3,410.4,241.5,406z"/>
		</g>
		<g>
			<g>
				<g>
					<path class="st2" d="M77.9,186.3c-0.1-0.3-0.4-0.6-0.7-0.7c-0.3-0.1-0.7-0.1-1,0.1c-0.1,0-5.5,3.1-13,3.1
						c-9.1,0-15.8-6.4-15.8-15.2c0-9.3,6.5-15.4,16.6-15.4c5.7,0,11.7,2.9,11.8,3c0.3,0.1,0.6,0.2,0.9,0c0.3-0.1,0.5-0.3,0.7-0.6
						l2.9-7.1c0.2-0.5,0-1.1-0.5-1.4c-0.3-0.2-6.7-4-17.1-4c-14.6,0-26.4,11.4-26.4,25.4c0,15,11.3,25.4,27.6,25.4
						c9.8,0,16-4,16.2-4.1c0.5-0.3,0.6-0.9,0.5-1.4L77.9,186.3z"/>
					<path class="st2" d="M93.4,198.1h30.5c0.6,0,1.2-0.5,1.2-1.2v-7.6c0-0.6-0.5-1.2-1.2-1.2h-21.1v-8.9h19c0.6,0,1.2-0.5,1.2-1.2
						v-7.3c0-0.6-0.5-1.2-1.2-1.2h-19v-10.8h21.1c0.6,0,1.2-0.5,1.2-1.2V150c0-0.6-0.5-1.2-1.2-1.2H93.4c-0.6,0-1.2,0.5-1.2,1.2
						v46.9C92.2,197.6,92.8,198.1,93.4,198.1z"/>
					<path class="st2" d="M222.9,148.9h-39.4c-0.6,0-1.2,0.5-1.2,1.2v7.6c0,0.6,0.5,1.2,1.2,1.2h14.5v38.1c0,0.6,0.5,1.2,1.2,1.2
						h8.3c0.6,0,1.2-0.5,1.2-1.2v-38.1h14.3c0.6,0,1.2-0.5,1.2-1.2V150C224,149.4,223.5,148.9,222.9,148.9z"/>
					<path class="st2" d="M244,148.9h-8.3c-0.6,0-1.2,0.5-1.2,1.2v46.9c0,0.6,0.5,1.2,1.2,1.2h8.3c0.6,0,1.2-0.5,1.2-1.2V150
						C245.2,149.4,244.7,148.9,244,148.9z"/>
					<path class="st2" d="M290.4,148.9H260c-0.6,0-1.2,0.5-1.2,1.2v46.9c0,0.6,0.5,1.2,1.2,1.2h8.2c0.6,0,1.2-0.5,1.2-1.2v-17.1
						h18.6c0.6,0,1.2-0.5,1.2-1.2v-7.3c0-0.6-0.5-1.2-1.2-1.2h-18.6v-11.4h21.1c0.6,0,1.2-0.5,1.2-1.2V150
						C291.6,149.4,291.1,148.9,290.4,148.9z"/>
					<path class="st2" d="M312.7,148.9h-8.3c-0.6,0-1.2,0.5-1.2,1.2v46.9c0,0.6,0.5,1.2,1.2,1.2h8.3c0.6,0,1.2-0.5,1.2-1.2V150
						C313.8,149.4,313.3,148.9,312.7,148.9z"/>
					<path class="st2" d="M359.1,148.9h-30.5c-0.6,0-1.2,0.5-1.2,1.2v46.9c0,0.6,0.5,1.2,1.2,1.2h30.5c0.6,0,1.2-0.5,1.2-1.2v-7.6
						c0-0.6-0.5-1.2-1.2-1.2H338v-8.9h19c0.6,0,1.2-0.5,1.2-1.2v-7.3c0-0.6-0.5-1.2-1.2-1.2h-19v-10.8h21.1c0.6,0,1.2-0.5,1.2-1.2
						V150C360.2,149.4,359.7,148.9,359.1,148.9z"/>
					<path class="st2" d="M391.6,148.9h-17.7c-0.6,0-1.2,0.5-1.2,1.2v46.9c0,0.6,0.5,1.2,1.2,1.2h17.7c15,0,26.2-10.6,26.2-24.6
						C417.8,159.2,406.8,148.9,391.6,148.9z M391.6,188.2h-8.3v-29.4h8.3c8.7,0,15,6.2,15,14.8C406.6,181.9,400.2,188.2,391.6,188.2
						z"/>
					<path class="st2" d="M166.8,181.4c5.2-2.9,7.9-8,7.9-14.7c0-11.2-7.4-17.8-19.9-17.8h-15c-0.6,0-1.2,0.5-1.2,1.2v46.9
						c0,0.6,0.5,1.2,1.2,1.2h8.3c0.6,0,1.2-0.5,1.2-1.2v-12.5h4c1.3,0,2.5,0,3.6-0.1l9.6,13.3c0.2,0.3,0.6,0.5,0.9,0.5h9.7
						c0.4,0,0.8-0.2,1-0.6c0.2-0.4,0.2-0.9-0.1-1.2L166.8,181.4z M149.3,158.8h5c6.2,0,9.3,2.6,9.3,7.9c0,5.4-3.1,8.1-9.3,8.1h-5
						V158.8z"/>
				</g>
			</g>
		</g>
		<g>
			<path class="st2" d="M79.6,240h-6.9c-0.2,0-0.3,0.1-0.4,0.3l-6.8,18.1l-6.6-18.1c-0.1-0.2-0.2-0.3-0.4-0.3h-6.9
				c-0.2,0-0.4,0.2-0.4,0.4v25.5c0,0.2,0.2,0.4,0.4,0.4H56c0.1,0,0.2,0,0.3-0.1c0.1-0.1,0.1-0.2,0.1-0.3l-0.1-18l7,18.2
				c0.1,0.2,0.2,0.3,0.4,0.3h3.5c0.2,0,0.3-0.1,0.4-0.3l7.1-18.2l-0.1,18.1c0,0.1,0,0.2,0.1,0.3s0.2,0.1,0.3,0.1h4.6
				c0.2,0,0.4-0.2,0.4-0.4v-25.5C80,240.1,79.8,240,79.6,240z"/>
			<path class="st2" d="M102.5,247.1c0-0.2-0.2-0.4-0.4-0.4h-4.5c-0.2,0-0.4,0.2-0.4,0.4v10.2c0,1.5-0.4,2.7-1.2,3.7
				c-0.8,1-1.8,1.4-3,1.4c-1.2,0-2-0.4-2.5-1.1c-0.5-0.8-0.8-1.9-0.8-3.3v-10.8c0-0.2-0.2-0.4-0.4-0.4h-4.5c-0.2,0-0.4,0.2-0.4,0.4
				v11.5c0,2.4,0.6,4.3,1.9,5.8c1.3,1.5,3.2,2.3,5.6,2.3c2.4,0,4.3-0.7,5.7-2.2c0,0.4,0.1,0.9,0.2,1.3c0,0.2,0.2,0.3,0.4,0.3h4.3
				c0.1,0,0.2-0.1,0.3-0.1c0.1-0.1,0.1-0.2,0.1-0.3c-0.2-1.5-0.3-3-0.3-4.2V247.1z"/>
			<path class="st2" d="M111.9,240h-4.5c-0.2,0-0.4,0.2-0.4,0.4v25.5c0,0.2,0.2,0.4,0.4,0.4h4.5c0.2,0,0.4-0.2,0.4-0.4v-25.5
				C112.3,240.1,112.1,240,111.9,240z"/>
			<path class="st2" d="M125,246.2c-3,0-5.3,1-7,2.8c-1.6,1.9-2.5,4.4-2.5,7.4c0,2,0.4,3.8,1.2,5.4c0.8,1.6,1.9,2.8,3.4,3.6
				c1.5,0.8,3.2,1.3,5.3,1.3c1.5,0,3-0.2,4.2-0.6c1.3-0.4,2.5-1,3.6-1.8c0.2-0.1,0.2-0.4,0.1-0.6l-1.9-2.9c-0.1-0.2-0.4-0.2-0.6-0.1
				c-0.9,0.6-1.7,1-2.5,1.2c-0.8,0.3-1.7,0.4-2.7,0.4c-1.4,0-2.5-0.4-3.3-1.1c-0.7-0.7-1.2-1.6-1.4-2.7h12.6c0.2,0,0.4-0.2,0.4-0.4
				c0.1-0.6,0.1-1.2,0.1-1.7c0-3.1-0.8-5.6-2.3-7.4C130.2,247.2,127.9,246.2,125,246.2z M124.9,250.4c1.2,0,2.2,0.4,2.8,1.2
				c0.6,0.7,0.9,1.7,1,2.8h-7.9c0.1-1.1,0.5-2,1.1-2.7C122.7,250.8,123.7,250.4,124.9,250.4z"/>
			<path class="st2" d="M144.6,266.9c1.8,0,3.5-0.3,5.1-0.9c1.5-0.6,2.8-1.5,3.7-2.8c0.9-1.3,1.4-2.8,1.4-4.6c0-2.4-0.7-4.3-2.1-5.6
				c-1.4-1.3-3.3-2.2-5.9-2.9c-1.8-0.5-3.2-1-3.9-1.5c-0.7-0.5-1-1.1-1-2.1c0-0.9,0.3-1.5,1-2c0.7-0.5,1.7-0.7,3-0.7
				c1,0,2,0.1,2.9,0.4c0.9,0.3,1.9,0.7,2.9,1.3c0.2,0.1,0.4,0.1,0.5-0.1l2.1-3.1c0.1-0.2,0.1-0.4-0.1-0.6c-2.4-1.7-5.3-2.6-8.5-2.6
				c-1.7,0-3.3,0.3-4.7,0.9c-1.4,0.6-2.6,1.4-3.4,2.6c-0.8,1.1-1.3,2.5-1.3,4.1c0,2.1,0.6,3.8,1.9,5c1.2,1.2,3.1,2.1,5.4,2.7
				c1.4,0.4,2.5,0.7,3.3,1.1c0.7,0.3,1.3,0.7,1.7,1.2c0.4,0.5,0.6,1.1,0.6,1.9c0,1.1-0.4,1.9-1.2,2.5c-0.8,0.6-2,0.9-3.4,0.9
				c-1.2,0-2.3-0.2-3.3-0.5c-1-0.3-2-0.8-2.9-1.5c-0.2-0.1-0.4-0.1-0.6,0.1l-2.3,3c-0.1,0.2-0.1,0.4,0.1,0.6c1.2,1,2.6,1.8,4.1,2.3
				C141.2,266.7,142.8,266.9,144.6,266.9z"/>
			<path class="st2" d="M161.1,265.4c1.5,0.9,3.3,1.3,5.4,1.3c2.1,0,3.9-0.4,5.4-1.3c1.5-0.9,2.7-2.1,3.5-3.7
				c0.8-1.6,1.2-3.4,1.2-5.4c0-2-0.4-3.8-1.2-5.3c-0.8-1.5-2-2.7-3.5-3.6c-1.5-0.8-3.4-1.3-5.5-1.3c-2.1,0-3.9,0.4-5.4,1.3
				c-1.5,0.9-2.7,2.1-3.5,3.6c-0.8,1.5-1.2,3.3-1.2,5.3c0,2,0.4,3.8,1.2,5.3C158.4,263.3,159.6,264.5,161.1,265.4z M166.5,250.6
				c1.7,0,2.9,0.5,3.6,1.5c0.8,1,1.1,2.5,1.1,4.3c0,1.8-0.4,3.3-1.2,4.4c-0.7,1.1-1.9,1.6-3.6,1.6c-1.6,0-2.8-0.5-3.5-1.6
				c-0.8-1.1-1.1-2.6-1.1-4.4c0-1.8,0.4-3.2,1.1-4.3C163.7,251.1,164.8,250.6,166.5,250.6z"/>
			<path class="st2" d="M202.9,266.2c0.2-0.1,0.3-0.3,0.2-0.5l-0.6-3.3c0-0.1-0.1-0.2-0.2-0.3c-0.1-0.1-0.2-0.1-0.3,0
				c-0.4,0.1-0.9,0.2-1.5,0.2c-1.4,0-2-0.7-2-2.3v-8.9h4.2c0.2,0,0.4-0.2,0.4-0.4v-3.4c0-0.2-0.2-0.4-0.4-0.4h-4.2v-5.6
				c0-0.1-0.1-0.3-0.2-0.3c-0.1-0.1-0.2-0.1-0.4-0.1l-4.5,1.6c-0.2,0.1-0.3,0.2-0.3,0.4v4.1l-2.7,0.5c-0.1,0-0.1,0-0.1,0.1v-0.2
				c0-0.2-0.2-0.4-0.4-0.4h-4v-0.5c0-1.8,0.9-2.6,2.7-2.6c0.7,0,1.3,0.1,1.9,0.2c0.2,0.1,0.4-0.1,0.5-0.3l1.1-3.2
				c0.1-0.2,0-0.4-0.2-0.5c-1.2-0.4-2.5-0.6-3.9-0.6c-2.4,0-4.3,0.6-5.5,1.8c-1.2,1.2-1.8,2.9-1.8,5v0.7l-2.7,0.5
				c-0.2,0-0.3,0.2-0.3,0.4v2.9c0,0.2,0.2,0.4,0.4,0.4h2.7v14.7c0,0.2,0.2,0.4,0.4,0.4h4.5c0.2,0,0.4-0.2,0.4-0.4v-14.7h4
				c0.1,0,0.2-0.1,0.3-0.1c0.1,0.1,0.2,0.1,0.3,0.1h2.7v9.4c0,2,0.6,3.5,1.7,4.6c1.1,1.1,2.7,1.6,4.7,1.6
				C200.8,266.8,202,266.6,202.9,266.2z"/>
			<path class="st2" d="M225.1,240h-10.6c-0.2,0-0.4,0.2-0.4,0.4v3.5c0,0.2,0.2,0.4,0.4,0.4h2.6v17.7h-2.6c-0.2,0-0.4,0.2-0.4,0.4
				v3.6c0,0.2,0.2,0.4,0.4,0.4h10.6c0.2,0,0.4-0.2,0.4-0.4v-3.6c0-0.2-0.2-0.4-0.4-0.4h-2.6v-17.7h2.6c0.2,0,0.4-0.2,0.4-0.4v-3.5
				C225.5,240.1,225.3,240,225.1,240z"/>
			<path class="st2" d="M228.8,265.8c0,0.2,0.2,0.4,0.4,0.4h4.5c0.2,0,0.4-0.2,0.4-0.4v-10.4c0-1.4,0.4-2.5,1.1-3.4
				c0.7-0.9,1.7-1.3,3-1.3c1.2,0,2.1,0.3,2.6,1c0.5,0.7,0.8,1.6,0.8,2.7v11.4c0,0.2,0.2,0.4,0.4,0.4h4.5c0.2,0,0.4-0.2,0.4-0.4
				v-12.4c0-1.3-0.3-2.4-0.8-3.5c-0.5-1.1-1.3-2-2.4-2.7c-1.1-0.7-2.5-1-4.1-1c-1.5,0-2.8,0.3-3.9,0.8c-0.8,0.4-1.5,0.8-2.1,1.4
				c-0.1-0.4-0.1-0.9-0.2-1.3c0-0.2-0.2-0.3-0.4-0.3h-4.3c-0.1,0-0.2,0-0.3,0.1c-0.1,0.1-0.1,0.2-0.1,0.3c0.2,1.9,0.3,3.3,0.3,4.2
				V265.8z"/>
			<path class="st2" d="M249.2,251.1h2.7v9.4c0,2,0.6,3.5,1.7,4.6c1.1,1.1,2.7,1.6,4.7,1.6c1.3,0,2.5-0.2,3.4-0.6
				c0.2-0.1,0.3-0.3,0.2-0.5l-0.6-3.3c0-0.1-0.1-0.2-0.2-0.3c-0.1-0.1-0.2-0.1-0.3,0c-0.4,0.1-0.9,0.2-1.5,0.2c-1.4,0-2-0.7-2-2.3
				v-8.9h4.2c0.2,0,0.4-0.2,0.4-0.4v-3.4c0-0.2-0.2-0.4-0.4-0.4h-4.2v-5.6c0-0.1-0.1-0.3-0.2-0.3c-0.1-0.1-0.2-0.1-0.4-0.1l-4.5,1.6
				c-0.2,0.1-0.3,0.2-0.3,0.4v4.1l-2.7,0.5c-0.2,0-0.3,0.2-0.3,0.4v2.9C248.8,251,249,251.1,249.2,251.1z"/>
			<path class="st2" d="M280.6,263.8l-1.9-2.9c-0.1-0.2-0.4-0.2-0.6-0.1c-0.9,0.6-1.7,1-2.5,1.2c-0.8,0.3-1.7,0.4-2.7,0.4
				c-1.4,0-2.5-0.4-3.3-1.1c-0.7-0.7-1.2-1.6-1.4-2.7h12.6c0.2,0,0.4-0.2,0.4-0.4c0.1-0.6,0.1-1.2,0.1-1.7c0-3.1-0.8-5.6-2.3-7.4
				c-1.5-1.9-3.8-2.8-6.8-2.8c-3,0-5.3,1-7,2.8c-1.6,1.9-2.5,4.4-2.5,7.4c0,2,0.4,3.8,1.2,5.4c0.8,1.6,1.9,2.8,3.4,3.6
				c1.5,0.8,3.2,1.3,5.3,1.3c1.5,0,3-0.2,4.2-0.6c1.3-0.4,2.5-1,3.6-1.8C280.7,264.2,280.7,263.9,280.6,263.8z M268.2,254.4
				c0.1-1.1,0.5-2,1.1-2.7c0.7-0.8,1.6-1.2,2.9-1.2c1.2,0,2.2,0.4,2.8,1.2c0.6,0.7,0.9,1.7,1,2.8H268.2z"/>
			<path class="st2" d="M299.6,263.9c-1.6-0.9-4.2-1.4-7.5-1.5c-1.1,0-2-0.1-2.5-0.3c-0.6-0.2-0.6-0.5-0.6-0.6c0-0.1,0-0.4,0.6-0.7
				c0.5-0.2,1.3-0.3,2.4-0.3c2.6,0,4.6-0.6,6-1.7c1.5-1.2,2.2-2.8,2.2-4.8c0-0.9-0.1-1.7-0.4-2.4c-0.1-0.3-0.2-0.6-0.4-0.9l2.7,0.4
				c0.1,0,0.2,0,0.3-0.1c0.1-0.1,0.1-0.2,0.1-0.3v-3.6c0-0.2-0.2-0.4-0.4-0.4h-6.8c-0.6-0.2-1.2-0.3-1.7-0.4
				c-0.5-0.1-1.2-0.1-1.9-0.1c-2.6,0-4.7,0.6-6.2,1.9c-1.5,1.3-2.3,3.1-2.3,5.3c0,2.4,0.9,4.2,2.6,5.4c-0.5,0.2-1,0.6-1.3,1
				c-0.5,0.6-0.8,1.3-0.8,2.1c0,0.7,0.2,1.2,0.5,1.7c0.2,0.3,0.5,0.6,0.8,0.8c-2,1.3-3,3-3,5c0,2,0.8,3.5,2.4,4.6
				c1.5,1,3.8,1.6,6.7,1.6c3.4,0,6-0.6,7.9-1.8c1.9-1.3,2.9-3.1,2.9-5.4C302.1,266.3,301.3,264.8,299.6,263.9z M291.9,250.3
				c1.2,0,2.1,0.3,2.6,0.9c0.6,0.6,0.8,1.3,0.8,2.3c0,2-1.1,3-3.5,3c-1.2,0-2.1-0.3-2.6-0.8c-0.6-0.6-0.9-1.3-0.9-2.3
				c0-0.9,0.3-1.6,0.9-2.2C289.9,250.6,290.8,250.3,291.9,250.3z M295.6,270.6c-0.9,0.5-2.3,0.7-4.1,0.7c-4,0-4-1.7-4-2.3
				c0-1,0.6-1.8,1.7-2.5c2.9,0,5,0.2,6.2,0.6c1.6,0.5,1.6,1.3,1.6,1.6C296.9,269.6,296.5,270.2,295.6,270.6z"/>
			<path class="st2" d="M316.6,246.4c-0.4-0.1-0.8-0.2-1.3-0.2c-2.3,0-4.1,0.8-5.3,2.4c0-0.5-0.1-1-0.2-1.5c0-0.2-0.2-0.3-0.4-0.3
				h-4.3c-0.1,0-0.2,0-0.3,0.1c-0.1,0.1-0.1,0.2-0.1,0.3c0.2,1.9,0.3,3.3,0.3,4.2v14.4c0,0.2,0.2,0.4,0.4,0.4h4.5
				c0.2,0,0.4-0.2,0.4-0.4V256c0-1.5,0.4-2.7,1.2-3.7c0.8-0.9,1.9-1.4,3.4-1.4c0.5,0,1,0,1.3,0.1c0.1,0,0.2,0,0.3-0.1
				c0.1-0.1,0.1-0.2,0.2-0.3l0.2-3.9C316.9,246.6,316.8,246.4,316.6,246.4z"/>
			<path class="st2" d="M334.1,254.4c0-2.7-0.7-4.8-2-6.2c-1.3-1.4-3.5-2-6.5-2c-1.3,0-2.6,0.2-3.9,0.5c-1.3,0.4-2.5,0.8-3.5,1.5
				c-0.2,0.1-0.3,0.3-0.2,0.5l1.5,3c0,0.1,0.1,0.2,0.2,0.2c0.1,0,0.2,0,0.3,0c1.7-0.9,3.5-1.4,5.2-1.4c3.1,0,3.4,1.5,3.4,2.6v0.5
				c-0.4,0-0.8,0-1.4,0c-3.3,0-5.9,0.5-7.7,1.5c-1.9,1-2.8,2.9-2.8,5.5c0,2,0.6,3.5,1.9,4.6c1.2,1.1,2.8,1.6,4.6,1.6
				c1.6,0,2.9-0.2,3.9-0.7c0.8-0.4,1.5-0.9,2.1-1.5c0.1,0.4,0.1,0.8,0.2,1.3c0,0.2,0.2,0.3,0.4,0.3h4.1c0.1,0,0.2,0,0.3-0.1
				c0.1-0.1,0.1-0.2,0.1-0.3c-0.2-1.9-0.3-3.3-0.3-4.2V254.4z M328.8,257.5v1.1c0,0.7-0.2,1.3-0.5,1.9c-0.4,0.6-0.9,1-1.5,1.4
				c-0.6,0.4-1.4,0.5-2.2,0.5c-0.7,0-1.3-0.2-1.7-0.6c-0.4-0.4-0.6-0.9-0.6-1.6c0-1,0.4-1.7,1.2-2.1c0.8-0.5,2.3-0.7,4.3-0.7
				L328.8,257.5z"/>
			<path class="st2" d="M348.2,262.2c-0.1-0.1-0.2-0.1-0.3,0c-0.4,0.1-0.9,0.2-1.5,0.2c-1.4,0-2-0.7-2-2.3v-8.9h4.2
				c0.2,0,0.4-0.2,0.4-0.4v-3.4c0-0.2-0.2-0.4-0.4-0.4h-4.2v-5.6c0-0.1-0.1-0.3-0.2-0.3c-0.1-0.1-0.2-0.1-0.4-0.1l-4.5,1.6
				c-0.2,0.1-0.3,0.2-0.3,0.4v4.1l-2.7,0.5c-0.2,0-0.3,0.2-0.3,0.4v2.9c0,0.2,0.2,0.4,0.4,0.4h2.7v9.4c0,2,0.6,3.5,1.7,4.6
				c1.1,1.1,2.7,1.6,4.7,1.6c1.3,0,2.5-0.2,3.4-0.6c0.2-0.1,0.3-0.3,0.2-0.5l-0.6-3.3C348.4,262.3,348.3,262.2,348.2,262.2z"/>
			<path class="st2" d="M356.6,246.7h-4.5c-0.2,0-0.4,0.2-0.4,0.4v18.7c0,0.2,0.2,0.4,0.4,0.4h4.5c0.2,0,0.4-0.2,0.4-0.4v-18.7
				C357,246.9,356.9,246.7,356.6,246.7z"/>
			<path class="st2" d="M354.4,238.3c-2.1,0-3.2,1-3.2,3c0,0.8,0.3,1.6,0.8,2.1c0.5,0.6,1.3,0.9,2.4,0.9c1.1,0,1.9-0.3,2.4-0.8
				c0.5-0.6,0.8-1.3,0.8-2.1c0-0.9-0.3-1.6-0.8-2.1C356.3,238.6,355.5,238.3,354.4,238.3z"/>
			<path class="st2" d="M375.9,247.5c-1.5-0.8-3.4-1.3-5.5-1.3c-2.1,0-3.9,0.4-5.4,1.3c-1.5,0.9-2.7,2.1-3.5,3.6
				c-0.8,1.5-1.2,3.3-1.2,5.3c0,2,0.4,3.8,1.2,5.3c0.8,1.6,2,2.8,3.5,3.7c1.5,0.9,3.3,1.3,5.4,1.3c2.1,0,3.9-0.4,5.4-1.3
				c1.5-0.9,2.7-2.1,3.5-3.7c0.8-1.6,1.2-3.4,1.2-5.4c0-2-0.4-3.8-1.2-5.3C378.6,249.6,377.4,248.3,375.9,247.5z M370.5,262.4
				c-1.6,0-2.8-0.5-3.5-1.6c-0.8-1.1-1.1-2.6-1.1-4.4c0-1.8,0.4-3.2,1.1-4.3c0.7-1,1.9-1.5,3.5-1.5c1.7,0,2.9,0.5,3.6,1.5
				c0.8,1,1.1,2.5,1.1,4.3c0,1.8-0.4,3.3-1.2,4.4C373.3,261.9,372.1,262.4,370.5,262.4z"/>
			<path class="st2" d="M401.3,249.9c-0.5-1.1-1.3-2-2.4-2.7c-1.1-0.7-2.5-1-4.1-1c-1.5,0-2.8,0.3-3.9,0.8c-0.8,0.4-1.5,0.8-2.1,1.4
				c-0.1-0.4-0.1-0.9-0.2-1.3c0-0.2-0.2-0.3-0.4-0.3h-4.3c-0.1,0-0.2,0-0.3,0.1c-0.1,0.1-0.1,0.2-0.1,0.3c0.2,1.9,0.3,3.3,0.3,4.2
				v14.4c0,0.2,0.2,0.4,0.4,0.4h4.5c0.2,0,0.4-0.2,0.4-0.4v-10.4c0-1.4,0.4-2.5,1.1-3.4c0.7-0.9,1.7-1.3,3-1.3c1.2,0,2.1,0.3,2.6,1
				c0.5,0.7,0.8,1.6,0.8,2.7v11.4c0,0.2,0.2,0.4,0.4,0.4h4.5c0.2,0,0.4-0.2,0.4-0.4v-12.4C402,252.2,401.8,251,401.3,249.9z"/>
			<path class="st2" d="M153.1,288.9c-0.1-0.2-0.2-0.3-0.4-0.3h-4.9c-0.2,0-0.3,0.1-0.4,0.3l-9.8,25.5c0,0.1,0,0.3,0,0.4
				s0.2,0.2,0.3,0.2h4.9c0.2,0,0.3-0.1,0.4-0.3l2-5.2h9.8l1.8,5.2c0.1,0.2,0.2,0.3,0.4,0.3h5.1c0.1,0,0.3-0.1,0.3-0.2
				c0.1-0.1,0.1-0.2,0-0.4L153.1,288.9z M153.7,305h-6.7l3.4-9.9L153.7,305z"/>
			<path class="st2" d="M176.1,295.1c-0.4-0.1-0.8-0.2-1.3-0.2c-2.3,0-4.1,0.8-5.3,2.4c0-0.5-0.1-1-0.2-1.5c0-0.2-0.2-0.3-0.4-0.3
				h-4.3c-0.1,0-0.2,0-0.3,0.1c-0.1,0.1-0.1,0.2-0.1,0.3c0.2,1.9,0.3,3.3,0.3,4.2v14.4c0,0.2,0.2,0.4,0.4,0.4h4.5
				c0.2,0,0.4-0.2,0.4-0.4v-9.8c0-1.5,0.4-2.7,1.2-3.7c0.8-0.9,1.9-1.4,3.4-1.4c0.5,0,1,0,1.3,0.1c0.1,0,0.2,0,0.3-0.1
				c0.1-0.1,0.1-0.2,0.2-0.3l0.2-3.9C176.4,295.3,176.2,295.1,176.1,295.1z"/>
			<path class="st2" d="M186.5,299.5c1.5,0,2.9,0.5,4.3,1.3c0.1,0.1,0.2,0.1,0.3,0.1c0.1,0,0.2-0.1,0.3-0.2l1.7-3.1
				c0.1-0.2,0-0.4-0.1-0.5c-1.9-1.4-4.1-2.1-6.5-2.1c-2,0-3.8,0.4-5.3,1.3c-1.5,0.8-2.7,2-3.5,3.6c-0.8,1.5-1.2,3.3-1.2,5.4
				c0,1.6,0.3,3.3,0.9,4.8c0.6,1.6,1.6,2.9,3,3.9c1.4,1.1,3.4,1.6,5.7,1.6c1.3,0,2.5-0.2,3.6-0.5c1.2-0.4,2.2-0.9,3.2-1.5
				c0.2-0.1,0.2-0.3,0.1-0.5l-1.6-3.2c-0.1-0.1-0.1-0.2-0.2-0.2c-0.1,0-0.2,0-0.3,0c-1.6,0.9-3.1,1.4-4.4,1.4
				c-1.5,0-2.7-0.5-3.4-1.5c-0.8-1-1.2-2.5-1.2-4.2c0-1.8,0.4-3.2,1.2-4.2C183.8,299.9,185,299.5,186.5,299.5z"/>
			<path class="st2" d="M206.8,294.9c-2.4,0-4.3,0.7-5.7,2V289c0-0.2-0.2-0.4-0.4-0.4h-4.5c-0.2,0-0.4,0.2-0.4,0.4v25.5
				c0,0.2,0.2,0.4,0.4,0.4h4.5c0.2,0,0.4-0.2,0.4-0.4v-10.4c0-1.4,0.4-2.5,1.1-3.4c0.8-0.9,1.7-1.3,3-1.3c1.2,0,2.1,0.3,2.6,1
				c0.5,0.7,0.8,1.6,0.8,2.7v11.4c0,0.2,0.2,0.4,0.4,0.4h4.5c0.2,0,0.4-0.2,0.4-0.4v-12.4c0-2-0.6-3.7-1.8-5.1
				C211,295.6,209.2,294.9,206.8,294.9z"/>
			<path class="st2" d="M220.9,287c-2.1,0-3.2,1-3.2,3c0,0.8,0.3,1.6,0.8,2.1c0.5,0.6,1.3,0.9,2.4,0.9c1.1,0,1.9-0.3,2.4-0.8
				c0.5-0.6,0.8-1.3,0.8-2.1c0-0.9-0.3-1.6-0.8-2.1C222.8,287.3,222,287,220.9,287z"/>
			<path class="st2" d="M223.1,295.4h-4.5c-0.2,0-0.4,0.2-0.4,0.4v18.7c0,0.2,0.2,0.4,0.4,0.4h4.5c0.2,0,0.4-0.2,0.4-0.4v-18.7
				C223.6,295.6,223.4,295.4,223.1,295.4z"/>
			<path class="st2" d="M238,310.8c-0.1-0.1-0.2-0.1-0.3,0c-0.4,0.1-0.9,0.2-1.5,0.2c-1.4,0-2-0.7-2-2.3v-8.9h4.2
				c0.2,0,0.4-0.2,0.4-0.4V296c0-0.2-0.2-0.4-0.4-0.4h-4.2V290c0-0.1-0.1-0.3-0.2-0.3c-0.1-0.1-0.2-0.1-0.4-0.1l-4.5,1.6
				c-0.2,0.1-0.3,0.2-0.3,0.4v4.1l-2.7,0.5c-0.2,0-0.3,0.2-0.3,0.4v2.9c0,0.2,0.2,0.4,0.4,0.4h2.7v9.4c0,2,0.6,3.5,1.7,4.6
				c1.1,1.1,2.7,1.6,4.7,1.6c1.3,0,2.5-0.2,3.4-0.6c0.2-0.1,0.3-0.3,0.2-0.5l-0.6-3.3C238.2,311,238.1,310.9,238,310.8z"/>
			<path class="st2" d="M249.2,294.9c-3,0-5.3,1-7,2.8c-1.6,1.9-2.5,4.4-2.5,7.4c0,2,0.4,3.8,1.2,5.4c0.8,1.6,1.9,2.8,3.4,3.6
				c1.5,0.8,3.2,1.3,5.3,1.3c1.5,0,3-0.2,4.2-0.6c1.3-0.4,2.5-1,3.6-1.8c0.2-0.1,0.2-0.4,0.1-0.6l-1.9-2.9c-0.1-0.2-0.4-0.2-0.6-0.1
				c-0.9,0.6-1.7,1-2.5,1.2c-0.8,0.3-1.7,0.4-2.7,0.4c-1.4,0-2.5-0.4-3.3-1.1c-0.7-0.7-1.2-1.6-1.4-2.7h12.6c0.2,0,0.4-0.2,0.4-0.4
				c0.1-0.6,0.1-1.1,0.1-1.7c0-3.1-0.8-5.6-2.3-7.4C254.4,295.9,252.2,294.9,249.2,294.9z M249.2,299.1c1.2,0,2.2,0.4,2.8,1.2
				c0.6,0.7,0.9,1.7,1,2.8h-7.9c0.1-1.1,0.5-2,1.1-2.7C246.9,299.5,247.9,299.1,249.2,299.1z"/>
			<path class="st2" d="M270.2,294.9c-2,0-3.8,0.4-5.3,1.3c-1.5,0.8-2.7,2-3.5,3.6c-0.8,1.5-1.2,3.3-1.2,5.4c0,1.7,0.3,3.3,0.9,4.8
				c0.6,1.6,1.6,2.9,3,3.9c1.4,1.1,3.4,1.6,5.7,1.6c1.3,0,2.5-0.2,3.6-0.5c1.2-0.4,2.2-0.9,3.2-1.5c0.2-0.1,0.2-0.3,0.1-0.5
				l-1.6-3.2c-0.1-0.1-0.1-0.2-0.2-0.2c-0.1,0-0.2,0-0.3,0c-1.6,0.9-3.1,1.4-4.4,1.4c-1.5,0-2.7-0.5-3.4-1.5c-0.8-1-1.2-2.5-1.2-4.2
				c0-1.8,0.4-3.2,1.2-4.2c0.8-1,1.9-1.5,3.5-1.5c1.5,0,2.9,0.5,4.3,1.3c0.1,0.1,0.2,0.1,0.3,0.1c0.1,0,0.2-0.1,0.3-0.2l1.7-3.1
				c0.1-0.2,0-0.4-0.1-0.5C274.9,295.6,272.7,294.9,270.2,294.9z"/>
			<path class="st2" d="M290.2,310.8c-0.1-0.1-0.2-0.1-0.3,0c-0.4,0.1-0.9,0.2-1.5,0.2c-1.4,0-2-0.7-2-2.3v-8.9h4.2
				c0.2,0,0.4-0.2,0.4-0.4V296c0-0.2-0.2-0.4-0.4-0.4h-4.2V290c0-0.1-0.1-0.3-0.2-0.3c-0.1-0.1-0.2-0.1-0.4-0.1l-4.5,1.6
				c-0.2,0.1-0.3,0.2-0.3,0.4v4.1l-2.7,0.5c-0.2,0-0.3,0.2-0.3,0.4v2.9c0,0.2,0.2,0.4,0.4,0.4h2.7v9.4c0,2,0.6,3.5,1.7,4.6
				c1.1,1.1,2.7,1.6,4.7,1.6c1.3,0,2.5-0.2,3.4-0.6c0.2-0.1,0.3-0.3,0.2-0.5l-0.6-3.3C290.4,311,290.3,310.9,290.2,310.8z"/>
			<path class="st2" d="M313,288.6h-10.6c-0.2,0-0.4,0.2-0.4,0.4v3.5c0,0.2,0.2,0.4,0.4,0.4h2.6v17.7h-2.6c-0.2,0-0.4,0.2-0.4,0.4
				v3.6c0,0.2,0.2,0.4,0.4,0.4H313c0.2,0,0.4-0.2,0.4-0.4V311c0-0.2-0.2-0.4-0.4-0.4h-2.6v-17.7h2.6c0.2,0,0.4-0.2,0.4-0.4V289
				C313.4,288.8,313.2,288.6,313,288.6z"/>
		</g>
		<g>
			<g>
				<path class="st3" d="M216.5,43.8c4-4.2,9.6-6.8,15.8-6.8c8.2,0,15.4,4.6,19.2,11.4c3.3-1.5,7-2.3,10.9-2.3
					c14.8,0,26.9,12.1,26.9,27.1c0,15-12,27.1-26.9,27.1c-1.8,0-3.6-0.2-5.3-0.5c-3.4,6-9.8,10.1-17.1,10.1c-3.1,0-6-0.7-8.6-2
					c-3.4,8-11.4,13.7-20.6,13.7c-9.6,0-17.9-6.1-21-14.7c-1.4,0.3-2.8,0.4-4.3,0.4c-11.5,0-20.8-9.4-20.8-21
					c0-7.8,4.2-14.6,10.4-18.2c-1.3-2.9-2-6.2-2-9.6c0-13.3,10.8-24.2,24.2-24.2C205.2,34.3,212.1,38,216.5,43.8z"/>
			</g>
		</g>
	</g>
</g>
</svg>
