<?xml version="1.0" encoding="utf-8"?>
<!-- Generator: Adobe Illustrator 28.2.0, SVG Export Plug-In . SVG Version: 6.00 Build 0)  -->
<svg version="1.1" id="Layer_1" xmlns="http://www.w3.org/2000/svg" xmlns:xlink="http://www.w3.org/1999/xlink" x="0px" y="0px"
	 viewBox="0 0 454 445" style="enable-background:new 0 0 454 445;" xml:space="preserve">
<style type="text/css">
	.st0{fill:#0B5CAB;}
	.st1{fill:#0D9DDA;}
	.st2{fill:#FFFFFF;}
</style>
<g id="Layer_1_00000010312130145675476090000007686927028531154856_">
	<g id="Layer_1_00000082362538718048276590000008432127909549740216_">
	</g>
	<g id="Isolation_Mode">
	</g>
</g>
<g>
	<path class="st0" d="M35.9,321.3l4.9,21.4c2.3,9.9,8.9,18.2,18.1,22.7l153.7,74c9.2,4.4,19.8,4.4,29,0l153.7-74
		c9.2-4.4,15.8-12.7,18.1-22.7l5-21.7L35.9,321.3z"/>
	<g>
		<g>
			<g>
				<path class="st1" d="M241.5,406L418.2,321l33-144.6c2.3-9.9-0.1-20.3-6.4-28.2L338.4,14.9C332,6.9,322.4,2.3,312.3,2.3H141.7
					c-10.2,0-19.8,4.6-26.1,12.6L9.3,148.2c-6.3,7.9-8.7,18.3-6.4,28.2l33.1,144.9L212.5,406C221.7,410.4,232.3,410.4,241.5,406z"/>
			</g>
		</g>
		<g>
			<g>
				<g>
					<path class="st2" d="M77.9,186.3c-0.1-0.3-0.4-0.6-0.7-0.7c-0.3-0.1-0.7-0.1-1,0.1c-0.1,0-5.5,3.1-13,3.1
						c-9.1,0-15.8-6.4-15.8-15.2c0-9.3,6.5-15.4,16.6-15.4c5.7,0,11.7,2.9,11.8,3c0.3,0.1,0.6,0.2,0.9,0c0.3-0.1,0.5-0.3,0.7-0.6
						l2.9-7.1c0.2-0.5,0-1.1-0.5-1.4c-0.3-0.2-6.7-4-17.1-4c-14.6,0-26.4,11.4-26.4,25.4c0,15,11.3,25.4,27.6,25.4
						c9.8,0,16-4,16.2-4.1c0.5-0.3,0.6-0.9,0.5-1.4L77.9,186.3z"/>
					<path class="st2" d="M93.4,198.1h30.5c0.6,0,1.2-0.5,1.2-1.2v-7.6c0-0.6-0.5-1.2-1.2-1.2h-21.1v-8.9h19c0.6,0,1.2-0.5,1.2-1.2
						v-7.3c0-0.6-0.5-1.2-1.2-1.2h-19v-10.8h21.1c0.6,0,1.2-0.5,1.2-1.2V150c0-0.6-0.5-1.2-1.2-1.2H93.4c-0.6,0-1.2,0.5-1.2,1.2
						v46.9C92.2,197.6,92.8,198.1,93.4,198.1z"/>
					<path class="st2" d="M222.9,148.9h-39.4c-0.6,0-1.2,0.5-1.2,1.2v7.6c0,0.6,0.5,1.2,1.2,1.2h14.5v38.1c0,0.6,0.5,1.2,1.2,1.2
						h8.3c0.6,0,1.2-0.5,1.2-1.2v-38.1h14.3c0.6,0,1.2-0.5,1.2-1.2V150C224,149.4,223.5,148.9,222.9,148.9z"/>
					<path class="st2" d="M244,148.9h-8.3c-0.6,0-1.2,0.5-1.2,1.2v46.9c0,0.6,0.5,1.2,1.2,1.2h8.3c0.6,0,1.2-0.5,1.2-1.2V150
						C245.2,149.4,244.7,148.9,244,148.9z"/>
					<path class="st2" d="M290.4,148.9H260c-0.6,0-1.2,0.5-1.2,1.2v46.9c0,0.6,0.5,1.2,1.2,1.2h8.2c0.6,0,1.2-0.5,1.2-1.2v-17.1
						h18.6c0.6,0,1.2-0.5,1.2-1.2v-7.3c0-0.6-0.5-1.2-1.2-1.2h-18.6v-11.4h21.1c0.6,0,1.2-0.5,1.2-1.2V150
						C291.6,149.4,291.1,148.9,290.4,148.9z"/>
					<path class="st2" d="M312.7,148.9h-8.3c-0.6,0-1.2,0.5-1.2,1.2v46.9c0,0.6,0.5,1.2,1.2,1.2h8.3c0.6,0,1.2-0.5,1.2-1.2V150
						C313.8,149.4,313.3,148.9,312.7,148.9z"/>
					<path class="st2" d="M359.1,148.9h-30.5c-0.6,0-1.2,0.5-1.2,1.2v46.9c0,0.6,0.5,1.2,1.2,1.2h30.5c0.6,0,1.2-0.5,1.2-1.2v-7.6
						c0-0.6-0.5-1.2-1.2-1.2H338v-8.9h19c0.6,0,1.2-0.5,1.2-1.2v-7.3c0-0.6-0.5-1.2-1.2-1.2h-19v-10.8h21.1c0.6,0,1.2-0.5,1.2-1.2
						V150C360.2,149.4,359.7,148.9,359.1,148.9z"/>
					<path class="st2" d="M391.6,148.9h-17.7c-0.6,0-1.2,0.5-1.2,1.2v46.9c0,0.6,0.5,1.2,1.2,1.2h17.7c15,0,26.2-10.6,26.2-24.6
						C417.8,159.2,406.8,148.9,391.6,148.9z M391.6,188.2h-8.3v-29.4h8.3c8.7,0,15,6.2,15,14.8C406.6,181.9,400.2,188.2,391.6,188.2
						z"/>
					<path class="st2" d="M166.8,181.4c5.2-2.9,7.9-8,7.9-14.7c0-11.2-7.4-17.8-19.9-17.8h-15c-0.6,0-1.2,0.5-1.2,1.2v46.9
						c0,0.6,0.5,1.2,1.2,1.2h8.3c0.6,0,1.2-0.5,1.2-1.2v-12.5h4c1.3,0,2.5,0,3.6-0.1l9.6,13.3c0.2,0.3,0.6,0.5,0.9,0.5h9.7
						c0.4,0,0.8-0.2,1-0.6c0.2-0.4,0.2-0.9-0.1-1.2L166.8,181.4z M149.3,158.8h5c6.2,0,9.3,2.6,9.3,7.9c0,5.4-3.1,8.1-9.3,8.1h-5
						V158.8z"/>
				</g>
			</g>
		</g>
		<g>
			<circle class="st2" cx="227" cy="77.9" r="43.6"/>
		</g>
		<g>
			<g>
				<path class="st1" d="M221.5,59.9c2.1-2.2,5.1-3.6,8.3-3.6c4.3,0,8.1,2.4,10.2,6c1.8-0.8,3.7-1.2,5.7-1.2
					c7.8,0,14.2,6.4,14.2,14.3c0,7.9-6.4,14.3-14.2,14.3c-1,0-1.9-0.1-2.8-0.3c-1.8,3.2-5.2,5.3-9.1,5.3c-1.6,0-3.2-0.4-4.5-1
					c-1.8,4.2-6,7.2-10.9,7.2c-5.1,0-9.4-3.2-11.1-7.7c-0.7,0.2-1.5,0.2-2.3,0.2c-6.1,0-11-5-11-11.1c0-4.1,2.2-7.7,5.5-9.6
					c-0.7-1.6-1.1-3.3-1.1-5.1c0-7,5.7-12.8,12.8-12.8C215.5,54.9,219.1,56.8,221.5,59.9z"/>
			</g>
		</g>
	</g>
	<g>
		<path class="st2" d="M131.9,265.8h5.3c0.1,0,0.2,0,0.3-0.1c0.1-0.1,0.1-0.2,0.1-0.3l-0.2-22.1l8.6,22.3c0.1,0.2,0.2,0.3,0.4,0.3
			h4.2c0.2,0,0.3-0.1,0.4-0.3l8.7-22.3l-0.1,22.1c0,0.1,0,0.2,0.1,0.3s0.2,0.1,0.3,0.1h5.5c0.2,0,0.4-0.2,0.4-0.4v-30.6
			c0-0.2-0.2-0.4-0.4-0.4h-8.4c-0.2,0-0.3,0.1-0.4,0.3l-8.2,21.9l-8-21.9c-0.1-0.2-0.2-0.3-0.4-0.3h-8.3c-0.2,0-0.4,0.2-0.4,0.4
			v30.6C131.5,265.7,131.7,265.8,131.9,265.8z"/>
		<path class="st2" d="M188.7,263.7c0.1,0.5,0.2,1.1,0.3,1.8c0,0.2,0.2,0.3,0.4,0.3h5.2c0.1,0,0.2-0.1,0.3-0.1
			c0.1-0.1,0.1-0.2,0.1-0.3c-0.3-1.8-0.4-3.6-0.4-5.1v-17.4c0-0.2-0.2-0.4-0.4-0.4h-5.4c-0.2,0-0.4,0.2-0.4,0.4v12.2
			c0,1.8-0.5,3.3-1.4,4.5c-0.9,1.2-2.1,1.7-3.7,1.7c-1.5,0-2.5-0.5-3.1-1.4c-0.7-1-1-2.3-1-4v-13c0-0.2-0.2-0.4-0.4-0.4h-5.5
			c-0.2,0-0.4,0.2-0.4,0.4v13.8c0,2.8,0.8,5.2,2.3,6.9c1.5,1.8,3.8,2.7,6.7,2.7C184.8,266.5,187.1,265.5,188.7,263.7z"/>
		<path class="st2" d="M202.1,265.8h5.4c0.2,0,0.4-0.2,0.4-0.4v-30.6c0-0.2-0.2-0.4-0.4-0.4h-5.4c-0.2,0-0.4,0.2-0.4,0.4v30.6
			C201.6,265.7,201.8,265.8,202.1,265.8z"/>
		<path class="st2" d="M234.6,263.5c0.2-0.1,0.2-0.4,0.1-0.6l-2.3-3.5c-0.1-0.2-0.4-0.2-0.6-0.1c-1.1,0.7-2.1,1.2-3,1.5
			c-0.9,0.3-2,0.5-3.2,0.5c-1.7,0-3.1-0.5-4.1-1.3c-0.9-0.8-1.5-2-1.7-3.4H235c0.2,0,0.4-0.2,0.4-0.4c0.1-0.7,0.1-1.4,0.1-2.1
			c0-3.7-0.9-6.7-2.7-8.9c-1.8-2.2-4.5-3.4-8.1-3.4c-3.6,0-6.4,1.1-8.3,3.4c-1.9,2.2-2.9,5.2-2.9,8.9c0,2.4,0.5,4.6,1.4,6.4
			c0.9,1.9,2.3,3.3,4.1,4.3c1.8,1,3.9,1.5,6.3,1.5c1.9,0,3.6-0.2,5.1-0.7C231.8,265.2,233.3,264.5,234.6,263.5z M219.7,251.7
			c0.2-1.4,0.6-2.5,1.4-3.4c0.8-1,2-1.5,3.6-1.5c1.5,0,2.6,0.5,3.4,1.4c0.7,0.9,1.1,2.1,1.3,3.5H219.7z"/>
		<path class="st2" d="M252.3,246.7c-2.2-0.6-3.8-1.2-4.8-1.8c-0.9-0.6-1.3-1.4-1.3-2.5c0-1.1,0.4-1.9,1.3-2.4
			c0.9-0.6,2.1-0.9,3.7-0.9c1.3,0,2.5,0.2,3.6,0.5c1.1,0.3,2.3,0.9,3.5,1.6c0.2,0.1,0.4,0.1,0.5-0.1l2.6-3.7
			c0.1-0.2,0.1-0.4-0.1-0.6c-2.9-2.1-6.3-3.1-10.1-3.1c-2.1,0-4,0.3-5.7,1c-1.7,0.7-3.1,1.7-4,3.1c-1,1.4-1.5,3-1.5,4.9
			c0,2.5,0.8,4.5,2.3,5.9c1.5,1.4,3.7,2.5,6.5,3.3c1.7,0.5,3,0.9,4,1.3c0.9,0.4,1.6,0.9,2.1,1.5c0.5,0.6,0.7,1.4,0.7,2.4
			c0,1.4-0.5,2.4-1.4,3c-1,0.7-2.4,1.1-4.1,1.1c-1.5,0-2.8-0.2-4-0.5c-1.2-0.4-2.4-1-3.5-1.8c-0.2-0.1-0.4-0.1-0.6,0.1l-2.7,3.6
			c-0.1,0.2-0.1,0.4,0.1,0.6c1.4,1.2,3.1,2.1,4.9,2.7c1.8,0.6,3.8,1,5.9,1c2.2,0,4.2-0.4,6.1-1.1c1.8-0.7,3.3-1.8,4.4-3.3
			c1.1-1.5,1.6-3.3,1.6-5.5c0-2.9-0.8-5.1-2.5-6.6C257.7,248.7,255.4,247.5,252.3,246.7z"/>
		<path class="st2" d="M289.8,254.1c0-2.4-0.5-4.6-1.4-6.4c-1-1.8-2.4-3.3-4.2-4.3c-1.8-1-4-1.5-6.5-1.5s-4.7,0.5-6.5,1.5
			c-1.8,1-3.2,2.5-4.2,4.3c-0.9,1.8-1.4,4-1.4,6.4c0,2.4,0.5,4.5,1.5,6.4c1,1.9,2.4,3.3,4.2,4.4c1.8,1.1,4,1.6,6.4,1.6
			c2.5,0,4.6-0.5,6.5-1.6c1.8-1,3.3-2.5,4.2-4.4C289.3,258.6,289.8,256.5,289.8,254.1z M277.7,261.4c-2,0-3.4-0.6-4.3-1.9
			c-0.9-1.3-1.4-3.1-1.4-5.3c0-2.2,0.5-3.9,1.4-5.2c0.9-1.2,2.3-1.8,4.3-1.8c2,0,3.5,0.6,4.4,1.8c0.9,1.3,1.4,3,1.4,5.2
			c0,2.2-0.5,4-1.4,5.3C281.1,260.7,279.7,261.4,277.7,261.4z"/>
		<path class="st2" d="M292.8,247.7h3.3v17.8c0,0.2,0.2,0.4,0.4,0.4h5.4c0.2,0,0.4-0.2,0.4-0.4v-17.8h4.9c0.2,0,0.4-0.2,0.4-0.4
			v-4.1c0-0.2-0.2-0.4-0.4-0.4h-4.9v-0.6c0-2.2,1.1-3.2,3.4-3.2c0.8,0,1.6,0.1,2.3,0.3c0.2,0.1,0.4-0.1,0.5-0.3l1.3-3.9
			c0.1-0.2,0-0.4-0.2-0.5c-1.4-0.5-3-0.8-4.6-0.8c-2.9,0-5.1,0.8-6.6,2.2c-1.4,1.4-2.2,3.4-2.2,6v0.9l-3.3,0.6
			c-0.2,0-0.3,0.2-0.3,0.4v3.5C292.4,247.5,292.6,247.7,292.8,247.7z"/>
		<path class="st2" d="M309.1,243.8v3.5c0,0.2,0.2,0.4,0.4,0.4h3.3V259c0,2.4,0.7,4.2,2,5.5c1.3,1.3,3.2,2,5.5,2
			c1.6,0,2.9-0.2,4.1-0.7c0.2-0.1,0.3-0.3,0.2-0.5l-0.8-4c0-0.1-0.1-0.2-0.2-0.3c-0.1-0.1-0.2-0.1-0.3,0c-0.5,0.2-1.1,0.2-1.9,0.2
			c-1.7,0-2.5-0.9-2.5-2.8v-10.8h5.2c0.2,0,0.4-0.2,0.4-0.4v-4.1c0-0.2-0.2-0.4-0.4-0.4H319v-6.8c0-0.1-0.1-0.3-0.2-0.3
			c-0.1-0.1-0.2-0.1-0.4-0.1l-5.5,1.9c-0.2,0.1-0.3,0.2-0.3,0.4v5l-3.3,0.6C309.2,243.4,309.1,243.6,309.1,243.8z"/>
		<path class="st2" d="M142.3,283.3c-0.1-0.2-0.2-0.3-0.4-0.3H136c-0.2,0-0.3,0.1-0.4,0.3L123.9,314c0,0.1,0,0.3,0,0.4
			s0.2,0.2,0.3,0.2h5.9c0.2,0,0.3-0.1,0.4-0.3l2.4-6.4h11.9l2.2,6.4c0.1,0.2,0.2,0.3,0.4,0.3h6.1c0.1,0,0.3-0.1,0.3-0.2
			c0.1-0.1,0.1-0.2,0-0.4L142.3,283.3z M143.1,302.8h-8.3l4.2-12.2L143.1,302.8z"/>
		<path class="st2" d="M167.1,300.3c-1.3-0.3-2.3-0.6-2.9-0.8c-0.6-0.2-1-0.5-1.2-0.8c-0.2-0.3-0.3-0.7-0.3-1.2c0-0.6,0.2-1,0.8-1.3
			c0.6-0.3,1.4-0.5,2.5-0.5c1.7,0,3.4,0.5,5.1,1.6c0.2,0.1,0.4,0.1,0.6-0.1l2.2-3.4c0.1-0.2,0.1-0.4-0.1-0.5
			c-2.2-1.6-4.9-2.5-7.9-2.5c-2.7,0-5,0.6-6.6,1.9c-1.7,1.3-2.6,3-2.6,5.3c0,1.9,0.6,3.5,1.7,4.7c1.1,1.1,2.8,2,5.1,2.5
			c1.3,0.3,2.3,0.6,2.9,0.8c0.6,0.2,1,0.5,1.2,0.8c0.2,0.3,0.3,0.7,0.3,1.2c0,0.8-0.3,1.4-0.8,1.7c-0.6,0.4-1.5,0.6-2.6,0.6
			c-1,0-2-0.1-2.8-0.4c-0.9-0.3-1.8-0.7-2.7-1.3c-0.2-0.1-0.4-0.1-0.5,0.1l-2.3,3.4c-0.1,0.2-0.1,0.4,0.1,0.6
			c2.3,1.8,5.2,2.6,8.6,2.6c2.7,0,5-0.7,6.8-2c1.9-1.3,2.9-3.3,2.9-5.8c0-1.9-0.6-3.4-1.8-4.6C171.1,301.7,169.4,300.8,167.1,300.3z
			"/>
		<path class="st2" d="M188.1,300.3c-1.3-0.3-2.3-0.6-2.9-0.8c-0.6-0.2-1-0.5-1.2-0.8c-0.2-0.3-0.3-0.7-0.3-1.2c0-0.6,0.2-1,0.8-1.3
			c0.6-0.3,1.4-0.5,2.5-0.5c1.7,0,3.4,0.5,5.1,1.6c0.2,0.1,0.4,0.1,0.6-0.1l2.2-3.4c0.1-0.2,0.1-0.4-0.1-0.5
			c-2.2-1.6-4.9-2.5-7.9-2.5c-2.7,0-5,0.6-6.6,1.9c-1.7,1.3-2.6,3-2.6,5.3c0,1.9,0.6,3.5,1.7,4.7c1.1,1.1,2.8,2,5.1,2.5
			c1.3,0.3,2.3,0.6,2.9,0.8c0.6,0.2,1,0.5,1.2,0.8c0.2,0.3,0.3,0.7,0.3,1.2c0,0.8-0.3,1.4-0.8,1.7c-0.6,0.4-1.5,0.6-2.6,0.6
			c-1,0-2-0.1-2.8-0.4c-0.9-0.3-1.8-0.7-2.7-1.3c-0.2-0.1-0.4-0.1-0.5,0.1l-2.3,3.4c-0.1,0.2-0.1,0.4,0.1,0.6
			c2.3,1.8,5.2,2.6,8.6,2.6c2.7,0,5-0.7,6.8-2c1.9-1.3,2.9-3.3,2.9-5.8c0-1.9-0.6-3.4-1.8-4.6C192.1,301.7,190.4,300.8,188.1,300.3z
			"/>
		<path class="st2" d="M217.2,292.1c-1.8-1-4-1.5-6.5-1.5c-2.5,0-4.7,0.5-6.5,1.5c-1.8,1-3.2,2.5-4.2,4.3c-0.9,1.8-1.4,4-1.4,6.4
			c0,2.4,0.5,4.5,1.5,6.4c1,1.9,2.4,3.3,4.2,4.4c1.8,1.1,4,1.6,6.4,1.6c2.5,0,4.6-0.5,6.5-1.6c1.8-1,3.3-2.5,4.2-4.4
			c1-1.9,1.5-4,1.5-6.4c0-2.4-0.5-4.6-1.4-6.4C220.5,294.6,219.1,293.2,217.2,292.1z M210.8,310c-2,0-3.4-0.6-4.3-1.9
			c-0.9-1.3-1.4-3.1-1.4-5.3c0-2.2,0.5-3.9,1.4-5.2c0.9-1.2,2.3-1.8,4.3-1.8c2,0,3.5,0.6,4.4,1.8c0.9,1.3,1.4,3,1.4,5.2
			c0,2.2-0.5,4-1.4,5.3C214.2,309.4,212.8,310,210.8,310z"/>
		<path class="st2" d="M238.9,290.6c-2.4,0-4.6,0.5-6.3,1.5c-1.8,1-3.2,2.4-4.1,4.3c-0.9,1.8-1.4,4-1.4,6.4c0,2,0.3,3.9,1,5.7
			c0.7,1.9,1.9,3.4,3.6,4.7c1.7,1.3,4,1.9,6.8,1.9c1.5,0,3-0.2,4.4-0.6s2.7-1.1,3.8-1.9c0.2-0.1,0.2-0.3,0.1-0.5l-1.9-3.9
			c-0.1-0.1-0.1-0.2-0.2-0.2c-0.1,0-0.2,0-0.3,0c-1.9,1.1-3.7,1.7-5.4,1.7c-1.9,0-3.2-0.6-4.2-1.9c-1-1.3-1.4-3-1.4-5.1
			c0-2.2,0.5-3.9,1.4-5.1c0.9-1.2,2.3-1.8,4.3-1.8c1.8,0,3.6,0.5,5.2,1.6c0.1,0.1,0.2,0.1,0.3,0.1c0.1,0,0.2-0.1,0.3-0.2l2-3.8
			c0.1-0.2,0-0.4-0.1-0.5C244.4,291.5,241.8,290.6,238.9,290.6z"/>
		<path class="st2" d="M254.8,281.1c-2.4,0-3.7,1.2-3.7,3.5c0,1,0.3,1.8,0.9,2.5c0.6,0.7,1.6,1,2.9,1c1.3,0,2.2-0.3,2.8-1
			c0.6-0.7,0.9-1.5,0.9-2.5c0-1-0.3-1.9-0.9-2.5C257,281.4,256.1,281.1,254.8,281.1z"/>
		<path class="st2" d="M257.5,291.2h-5.4c-0.2,0-0.4,0.2-0.4,0.4v22.5c0,0.2,0.2,0.4,0.4,0.4h5.4c0.2,0,0.4-0.2,0.4-0.4v-22.5
			C257.9,291.4,257.7,291.2,257.5,291.2z"/>
		<path class="st2" d="M283.8,300.4c0-3.3-0.8-5.7-2.4-7.4c-1.6-1.6-4.2-2.4-7.7-2.4c-1.5,0-3.1,0.2-4.7,0.6c-1.6,0.4-3,1-4.2,1.8
			c-0.2,0.1-0.3,0.3-0.2,0.5l1.8,3.6c0,0.1,0.1,0.2,0.2,0.2c0.1,0,0.2,0,0.3,0c2.1-1.1,4.2-1.7,6.3-1.7c3.8,0,4.2,1.8,4.2,3.2v0.7
			c-0.5,0-1,0-1.8,0c-4,0-7.1,0.6-9.2,1.8c-2.2,1.2-3.3,3.4-3.3,6.5c0,2.3,0.7,4.2,2.2,5.4c1.5,1.3,3.3,1.9,5.5,1.9
			c1.9,0,3.5-0.3,4.6-0.8c1-0.4,1.8-1.1,2.6-1.9c0.1,0.5,0.2,1.1,0.3,1.8c0,0.2,0.2,0.3,0.4,0.3h5c0.1,0,0.2,0,0.3-0.1
			c0.1-0.1,0.1-0.2,0.1-0.3c-0.3-2.3-0.4-4-0.4-5.1V300.4z M277.6,304v1.4c0,0.8-0.2,1.6-0.7,2.3c-0.4,0.7-1.1,1.3-1.8,1.7
			c-0.8,0.4-1.7,0.7-2.7,0.7c-0.9,0-1.6-0.2-2.1-0.7c-0.5-0.5-0.7-1.1-0.7-2c0-1.2,0.5-2.1,1.4-2.6c1-0.6,2.8-0.8,5.2-0.8L277.6,304
			z"/>
		<path class="st2" d="M302.3,309.8c-0.1-0.1-0.2-0.1-0.3,0c-0.5,0.2-1.1,0.2-1.9,0.2c-1.7,0-2.5-0.9-2.5-2.8v-10.8h5.2
			c0.2,0,0.4-0.2,0.4-0.4v-4.1c0-0.2-0.2-0.4-0.4-0.4h-5.2v-6.8c0-0.1-0.1-0.3-0.2-0.3c-0.1-0.1-0.2-0.1-0.4-0.1l-5.5,1.9
			c-0.2,0.1-0.3,0.2-0.3,0.4v5l-3.3,0.6c-0.2,0-0.3,0.2-0.3,0.4v3.5c0,0.2,0.2,0.4,0.4,0.4h3.3v11.3c0,2.4,0.7,4.2,2,5.5
			c1.3,1.3,3.2,2,5.5,2c1.6,0,2.9-0.2,4.1-0.7c0.2-0.1,0.3-0.3,0.2-0.5l-0.8-4C302.5,309.9,302.4,309.8,302.3,309.8z"/>
		<path class="st2" d="M325.4,294c-1.8-2.2-4.5-3.4-8.1-3.4c-3.6,0-6.4,1.1-8.3,3.4c-1.9,2.2-2.9,5.2-2.9,8.9c0,2.4,0.5,4.6,1.4,6.4
			c0.9,1.9,2.3,3.3,4.1,4.3c1.8,1,3.9,1.5,6.3,1.5c1.9,0,3.6-0.2,5.1-0.7c1.5-0.5,3-1.2,4.3-2.2c0.2-0.1,0.2-0.4,0.1-0.6l-2.3-3.5
			c-0.1-0.2-0.4-0.2-0.6-0.1c-1.1,0.7-2.1,1.2-3,1.5c-0.9,0.3-2,0.5-3.2,0.5c-1.7,0-3.1-0.5-4.1-1.3c-0.9-0.8-1.5-2-1.7-3.4h15.2
			c0.2,0,0.4-0.2,0.4-0.4c0.1-0.7,0.1-1.4,0.1-2.1C328.1,299.1,327.2,296.2,325.4,294z M317.3,295.5c1.5,0,2.6,0.5,3.4,1.4
			c0.7,0.9,1.1,2.1,1.3,3.5h-9.6c0.2-1.4,0.6-2.5,1.4-3.4C314.6,296,315.7,295.5,317.3,295.5z"/>
	</g>
</g>
</svg>
