<?xml version="1.0" encoding="utf-8"?>
<!-- Generator: Adobe Illustrator 28.2.0, SVG Export Plug-In . SVG Version: 6.00 Build 0)  -->
<svg version="1.1" id="Layer_1" xmlns="http://www.w3.org/2000/svg" xmlns:xlink="http://www.w3.org/1999/xlink" x="0px" y="0px"
	 viewBox="0 0 454 445" style="enable-background:new 0 0 454 445;" xml:space="preserve">
<style type="text/css">
	.st0{fill:#8E9BEF;}
	.st1{fill:#280F8F;}
	.st2{fill:#FFFFFF;}
	.st3{fill:#0D9DDA;}
</style>
<g id="Layer_1_00000010312130145675476090000007686927028531154856_">
	<g id="Layer_1_00000082362538718048276590000008432127909549740216_">
	</g>
	<g id="Isolation_Mode">
	</g>
</g>
<g>
	<path class="st0" d="M35.9,321.3l4.9,21.4c2.3,9.9,8.9,18.2,18.1,22.7l153.7,74c9.2,4.4,19.8,4.4,29,0l153.7-74
		c9.2-4.4,15.8-12.7,18.1-22.7l5-21.7L35.9,321.3z"/>
	<g>
		<g>
			<path class="st1" d="M241.5,406L418.2,321l33-144.6c2.3-9.9-0.1-20.3-6.4-28.2L338.4,14.9C332,6.9,322.4,2.3,312.3,2.3H141.7
				c-10.2,0-19.8,4.6-26.1,12.6L9.3,148.2c-6.3,7.9-8.7,18.3-6.4,28.2l33.1,144.9L212.5,406C221.7,410.4,232.3,410.4,241.5,406z"/>
		</g>
		<g>
			<path class="st2" d="M137,266.1c0.1-0.1,0.1-0.2,0.1-0.3l-0.2-22.1l8.6,22.3c0.1,0.2,0.2,0.3,0.4,0.3h4.2c0.2,0,0.3-0.1,0.4-0.3
				l8.7-22.3l-0.1,22.1c0,0.1,0,0.2,0.1,0.3s0.2,0.1,0.3,0.1h5.5c0.2,0,0.4-0.2,0.4-0.4v-30.6c0-0.2-0.2-0.4-0.4-0.4h-8.4
				c-0.2,0-0.3,0.1-0.4,0.3l-8.2,21.9l-8-21.9c-0.1-0.2-0.2-0.3-0.4-0.3h-8.3c-0.2,0-0.4,0.2-0.4,0.4v30.6c0,0.2,0.2,0.4,0.4,0.4
				h5.3C136.8,266.3,136.9,266.2,137,266.1z"/>
			<path class="st2" d="M181.3,266.9c3,0,5.3-0.9,6.9-2.7c0.1,0.5,0.2,1.1,0.3,1.8c0,0.2,0.2,0.3,0.4,0.3h5.2c0.1,0,0.2-0.1,0.3-0.1
				c0.1-0.1,0.1-0.2,0.1-0.3c-0.3-1.8-0.4-3.6-0.4-5.1v-17.4c0-0.2-0.2-0.4-0.4-0.4h-5.4c-0.2,0-0.4,0.2-0.4,0.4v12.2
				c0,1.8-0.5,3.3-1.4,4.5c-0.9,1.2-2.1,1.7-3.7,1.7c-1.5,0-2.5-0.5-3.1-1.4c-0.7-1-1-2.3-1-4v-13c0-0.2-0.2-0.4-0.4-0.4h-5.5
				c-0.2,0-0.4,0.2-0.4,0.4v13.8c0,2.8,0.8,5.2,2.3,6.9C176.1,265.9,178.3,266.9,181.3,266.9z"/>
			<path class="st2" d="M206.9,234.8h-5.4c-0.2,0-0.4,0.2-0.4,0.4v30.6c0,0.2,0.2,0.4,0.4,0.4h5.4c0.2,0,0.4-0.2,0.4-0.4v-30.6
				C207.3,235,207.1,234.8,206.9,234.8z"/>
			<path class="st2" d="M229.8,266.1c1.5-0.5,3-1.2,4.3-2.2c0.2-0.1,0.2-0.4,0.1-0.6l-2.3-3.5c-0.1-0.2-0.4-0.2-0.6-0.1
				c-1.1,0.7-2.1,1.2-3,1.5c-0.9,0.3-2,0.5-3.2,0.5c-1.7,0-3.1-0.5-4.1-1.3c-0.9-0.8-1.5-2-1.7-3.4h15.2c0.2,0,0.4-0.2,0.4-0.4
				c0.1-0.7,0.1-1.4,0.1-2.1c0-3.7-0.9-6.7-2.7-8.9c-1.8-2.2-4.5-3.3-8.1-3.3c-3.6,0-6.4,1.1-8.3,3.4c-1.9,2.2-2.9,5.2-2.9,8.9
				c0,2.4,0.5,4.6,1.4,6.4c0.9,1.9,2.3,3.3,4.1,4.3c1.8,1,3.9,1.5,6.3,1.5C226.6,266.9,228.3,266.6,229.8,266.1z M219.2,252.1
				c0.2-1.4,0.6-2.5,1.4-3.4c0.8-1,2-1.5,3.6-1.5c1.5,0,2.6,0.5,3.4,1.4c0.7,0.9,1.1,2.1,1.3,3.5H219.2z"/>
			<path class="st2" d="M259.7,262.7c1.1-1.5,1.6-3.3,1.6-5.5c0-2.9-0.8-5.1-2.5-6.6c-1.6-1.5-4-2.7-7.1-3.4
				c-2.2-0.6-3.8-1.2-4.8-1.8c-0.9-0.6-1.3-1.4-1.3-2.5c0-1.1,0.4-1.9,1.3-2.5c0.9-0.6,2.1-0.9,3.7-0.9c1.3,0,2.5,0.2,3.6,0.5
				c1.1,0.3,2.3,0.9,3.5,1.6c0.2,0.1,0.4,0.1,0.5-0.1l2.6-3.7c0.1-0.2,0.1-0.4-0.1-0.6c-2.9-2.1-6.3-3.1-10.1-3.1
				c-2.1,0-4,0.3-5.7,1c-1.7,0.7-3.1,1.7-4,3.1c-1,1.4-1.5,3-1.5,4.9c0,2.5,0.8,4.5,2.3,5.9c1.5,1.4,3.7,2.5,6.5,3.3
				c1.7,0.5,3,0.9,4,1.3c0.9,0.4,1.6,0.9,2.1,1.5c0.5,0.6,0.7,1.4,0.7,2.4c0,1.4-0.5,2.4-1.4,3c-1,0.7-2.4,1.1-4.1,1.1
				c-1.5,0-2.8-0.2-4-0.5c-1.2-0.4-2.4-1-3.5-1.8c-0.2-0.1-0.4-0.1-0.6,0.1l-2.7,3.6c-0.1,0.2-0.1,0.4,0.1,0.6
				c1.4,1.2,3.1,2.1,4.9,2.7c1.8,0.6,3.8,1,5.9,1c2.2,0,4.2-0.4,6.1-1.1C257.1,265.3,258.6,264.2,259.7,262.7z"/>
			<path class="st2" d="M287.8,260.9c1-1.9,1.5-4,1.5-6.4c0-2.4-0.5-4.6-1.4-6.4c-1-1.8-2.4-3.3-4.2-4.3c-1.8-1-4-1.5-6.5-1.5
				c-2.5,0-4.7,0.5-6.5,1.5c-1.8,1-3.2,2.5-4.2,4.3c-0.9,1.8-1.4,4-1.4,6.4c0,2.4,0.5,4.5,1.5,6.4c1,1.9,2.4,3.3,4.2,4.4
				c1.8,1.1,4,1.6,6.4,1.6s4.6-0.5,6.5-1.6C285.4,264.2,286.8,262.8,287.8,260.9z M277.2,261.8c-2,0-3.4-0.6-4.3-1.9
				c-0.9-1.3-1.4-3.1-1.4-5.3c0-2.2,0.5-3.9,1.4-5.2c0.9-1.2,2.3-1.8,4.3-1.8c2,0,3.5,0.6,4.4,1.8c0.9,1.3,1.4,3,1.4,5.2
				c0,2.2-0.5,4-1.4,5.3C280.6,261.1,279.2,261.8,277.2,261.8z"/>
			<path class="st2" d="M307.9,239.3l1.3-3.9c0.1-0.2,0-0.4-0.2-0.5c-1.4-0.5-3-0.8-4.6-0.8c-2.9,0-5.1,0.8-6.6,2.2
				c-1.4,1.4-2.2,3.4-2.2,6v0.9l-3.3,0.6c-0.2,0-0.3,0.2-0.3,0.4v3.5c0,0.2,0.2,0.4,0.4,0.4h3.3v17.8c0,0.2,0.2,0.4,0.4,0.4h5.4
				c0.2,0,0.4-0.2,0.4-0.4v-17.8h4.9c0.2,0,0.4-0.2,0.4-0.4v-4.1c0-0.2-0.2-0.4-0.4-0.4h-4.9v-0.6c0-2.2,1.1-3.2,3.4-3.2
				c0.9,0,1.6,0.1,2.3,0.3C307.6,239.6,307.9,239.5,307.9,239.3z"/>
			<path class="st2" d="M323.2,261.5c-0.1-0.1-0.2-0.1-0.3,0c-0.5,0.2-1.1,0.2-1.9,0.2c-1.7,0-2.5-0.9-2.5-2.8v-10.8h5.2
				c0.2,0,0.4-0.2,0.4-0.4v-4.1c0-0.2-0.2-0.4-0.4-0.4h-5.2v-6.8c0-0.1-0.1-0.3-0.2-0.3c-0.1-0.1-0.2-0.1-0.4-0.1l-5.5,1.9
				c-0.2,0.1-0.3,0.2-0.3,0.4v5l-3.3,0.6c-0.2,0-0.3,0.2-0.3,0.4v3.5c0,0.2,0.2,0.4,0.4,0.4h3.3v11.3c0,2.4,0.7,4.2,2,5.5
				c1.3,1.3,3.2,2,5.5,2c1.6,0,2.9-0.2,4.1-0.7c0.2-0.1,0.3-0.3,0.2-0.5l-0.8-4C323.4,261.6,323.3,261.5,323.2,261.5z"/>
			<path class="st2" d="M114.1,283.5h-10.4c-0.2,0-0.4,0.2-0.4,0.4v30.6c0,0.2,0.2,0.4,0.4,0.4h10.6c3.3,0,6.2-0.6,8.7-1.8
				c2.5-1.2,4.4-3,5.8-5.4c1.3-2.4,2-5.3,2-8.6c0-5.3-1.5-9.2-4.4-11.8C123.5,284.8,119.3,283.5,114.1,283.5z M109.7,288.9h4.2
				c3.4,0,6,0.8,7.7,2.5c1.7,1.6,2.5,4.2,2.5,7.8c0,3.5-0.9,6.2-2.6,7.8c-1.7,1.6-4.3,2.5-7.8,2.5h-4.1V288.9z"/>
			<path class="st2" d="M146,291c-3.6,0-6.4,1.1-8.3,3.4c-1.9,2.2-2.9,5.2-2.9,8.9c0,2.4,0.5,4.6,1.4,6.4c0.9,1.9,2.3,3.3,4.1,4.3
				c1.8,1,3.9,1.5,6.3,1.5c1.9,0,3.6-0.2,5.1-0.7c1.5-0.5,3-1.2,4.3-2.2c0.2-0.1,0.2-0.4,0.1-0.6l-2.3-3.5c-0.1-0.2-0.4-0.2-0.6-0.1
				c-1.1,0.7-2.1,1.2-3,1.5c-0.9,0.3-2,0.5-3.2,0.5c-1.7,0-3.1-0.5-4.1-1.3c-0.9-0.8-1.5-2-1.7-3.4h15.2c0.2,0,0.4-0.2,0.4-0.4
				c0.1-0.7,0.1-1.4,0.1-2.1c0-3.7-0.9-6.7-2.7-8.9C152.3,292.1,149.6,291,146,291z M146,295.9c1.5,0,2.6,0.5,3.4,1.4
				c0.7,0.9,1.1,2.1,1.3,3.5H141c0.2-1.4,0.6-2.5,1.4-3.4C143.3,296.4,144.4,295.9,146,295.9z"/>
			<path class="st2" d="M181.7,291.6H176c-0.2,0-0.3,0.1-0.4,0.3l-5,16l-5.2-16c-0.1-0.2-0.2-0.3-0.4-0.3h-5.9
				c-0.1,0-0.3,0.1-0.3,0.2c-0.1,0.1-0.1,0.2,0,0.4l8.4,22.5c0.1,0.2,0.2,0.3,0.4,0.3h5.9c0.2,0,0.3-0.1,0.4-0.3l8.2-22.5
				c0-0.1,0-0.3,0-0.4S181.8,291.6,181.7,291.6z"/>
			<path class="st2" d="M195.3,291c-3.6,0-6.4,1.1-8.3,3.4c-1.9,2.2-2.9,5.2-2.9,8.9c0,2.4,0.5,4.6,1.4,6.4c0.9,1.9,2.3,3.3,4.1,4.3
				c1.8,1,3.9,1.5,6.3,1.5c1.9,0,3.6-0.2,5.1-0.7c1.5-0.5,3-1.2,4.3-2.2c0.2-0.1,0.2-0.4,0.1-0.6l-2.3-3.5c-0.1-0.2-0.4-0.2-0.6-0.1
				c-1.1,0.7-2.1,1.2-3,1.5c-0.9,0.3-2,0.5-3.2,0.5c-1.7,0-3.1-0.5-4.1-1.3c-0.9-0.8-1.5-2-1.7-3.4h15.2c0.2,0,0.4-0.2,0.4-0.4
				c0.1-0.7,0.1-1.4,0.1-2.1c0-3.7-0.9-6.7-2.7-8.9C201.6,292.1,198.9,291,195.3,291z M195.3,295.9c1.5,0,2.6,0.5,3.4,1.4
				c0.7,0.9,1.1,2.1,1.3,3.5h-9.6c0.2-1.4,0.6-2.5,1.4-3.4C192.6,296.4,193.7,295.9,195.3,295.9z"/>
			<path class="st2" d="M217.5,283.5h-5.4c-0.2,0-0.4,0.2-0.4,0.4v30.6c0,0.2,0.2,0.4,0.4,0.4h5.4c0.2,0,0.4-0.2,0.4-0.4v-30.6
				C217.9,283.7,217.7,283.5,217.5,283.5z"/>
			<path class="st2" d="M242.1,292.5c-1.8-1-4-1.5-6.5-1.5c-2.5,0-4.7,0.5-6.5,1.5c-1.8,1-3.2,2.5-4.2,4.3c-0.9,1.8-1.4,4-1.4,6.4
				c0,2.4,0.5,4.5,1.5,6.4c1,1.9,2.4,3.3,4.2,4.4c1.8,1.1,4,1.6,6.4,1.6c2.5,0,4.6-0.5,6.5-1.6c1.8-1,3.3-2.5,4.2-4.4
				c1-1.9,1.5-4,1.5-6.4c0-2.4-0.5-4.6-1.4-6.4C245.3,295,243.9,293.6,242.1,292.5z M235.6,310.5c-2,0-3.4-0.6-4.3-1.9
				c-0.9-1.3-1.4-3.1-1.4-5.3c0-2.2,0.5-3.9,1.4-5.2c0.9-1.2,2.3-1.8,4.3-1.8c2,0,3.5,0.6,4.4,1.8c0.9,1.3,1.4,3,1.4,5.2
				c0,2.2-0.5,4-1.4,5.3C239.1,309.8,237.6,310.5,235.6,310.5z"/>
			<path class="st2" d="M271.9,292.7c-1.5-1.1-3.4-1.7-5.6-1.7c-2.9,0-5.3,0.9-7,2.8c-0.1-0.5-0.2-1.1-0.3-1.9
				c0-0.2-0.2-0.3-0.4-0.3h-5.2c-0.1,0-0.2,0-0.3,0.1c-0.1,0.1-0.1,0.2-0.1,0.3c0.3,2.3,0.4,4,0.4,5.1v27.9c0,0.2,0.2,0.4,0.4,0.4
				h5.4c0.2,0,0.4-0.2,0.4-0.4v-11.3c1.7,1.2,3.8,1.8,6.1,1.8c2.2,0,4.1-0.6,5.7-1.6c1.6-1.1,2.9-2.6,3.7-4.5
				c0.8-1.9,1.2-3.9,1.2-6.2c0-2.3-0.4-4.3-1.1-6.1C274.5,295.3,273.4,293.8,271.9,292.7z M265,296.2c1.6,0,2.8,0.6,3.6,1.8
				c0.9,1.2,1.3,3,1.3,5.3c0,2.3-0.5,4.1-1.4,5.3c-0.9,1.3-2.3,1.9-4.1,1.9c-0.9,0-1.8-0.1-2.5-0.4c-0.7-0.3-1.5-0.7-2.3-1.2v-7
				c0-1.6,0.5-3,1.5-4.1C262.1,296.7,263.4,296.2,265,296.2z"/>
			<path class="st2" d="M291.7,291c-3.6,0-6.4,1.1-8.3,3.4c-1.9,2.2-2.9,5.2-2.9,8.9c0,2.4,0.5,4.6,1.4,6.4c0.9,1.9,2.3,3.3,4.1,4.3
				c1.8,1,3.9,1.5,6.3,1.5c1.9,0,3.6-0.2,5.1-0.7c1.5-0.5,3-1.2,4.3-2.2c0.2-0.1,0.2-0.4,0.1-0.6l-2.3-3.5c-0.1-0.2-0.4-0.2-0.6-0.1
				c-1.1,0.7-2.1,1.2-3,1.5c-0.9,0.3-2,0.5-3.2,0.5c-1.7,0-3.1-0.5-4.1-1.3c-0.9-0.8-1.5-2-1.7-3.4H302c0.2,0,0.4-0.2,0.4-0.4
				c0.1-0.7,0.1-1.4,0.1-2.1c0-3.7-0.9-6.7-2.7-8.9C298,292.1,295.2,291,291.7,291z M291.7,295.9c1.5,0,2.6,0.5,3.4,1.4
				c0.7,0.9,1.1,2.1,1.3,3.5h-9.6c0.2-1.4,0.6-2.5,1.4-3.4C289,296.4,290.1,295.9,291.7,295.9z"/>
			<path class="st2" d="M321.9,291.2c-0.4-0.1-0.9-0.2-1.5-0.2c-2.8,0-5,1-6.4,3c-0.1-0.6-0.2-1.3-0.3-2c0-0.2-0.2-0.3-0.4-0.3h-5.2
				c-0.1,0-0.2,0-0.3,0.1c-0.1,0.1-0.1,0.2-0.1,0.3c0.3,2.3,0.4,4,0.4,5.1v17.4c0,0.2,0.2,0.4,0.4,0.4h5.4c0.2,0,0.4-0.2,0.4-0.4
				v-11.8c0-1.8,0.5-3.3,1.5-4.5c1-1.2,2.3-1.7,4.1-1.7c0.6,0,1.2,0,1.6,0.1c0.1,0,0.2,0,0.3-0.1c0.1-0.1,0.1-0.2,0.2-0.3l0.2-4.7
				C322.2,291.4,322,291.3,321.9,291.2z"/>
			<path class="st2" d="M350.7,288.5c0.2,0,0.4-0.2,0.4-0.4v-4.2c0-0.2-0.2-0.4-0.4-0.4h-12.7c-0.2,0-0.4,0.2-0.4,0.4v4.2
				c0,0.2,0.2,0.4,0.4,0.4h3.2v21.4h-3.2c-0.2,0-0.4,0.2-0.4,0.4v4.3c0,0.2,0.2,0.4,0.4,0.4h12.7c0.2,0,0.4-0.2,0.4-0.4v-4.3
				c0-0.2-0.2-0.4-0.4-0.4h-3.2v-21.4H350.7z"/>
		</g>
		<g>
			<g>
				<g>
					<path class="st2" d="M77.9,186.3c-0.1-0.3-0.4-0.6-0.7-0.7c-0.3-0.1-0.7-0.1-1,0.1c-0.1,0-5.5,3.1-13,3.1
						c-9.1,0-15.8-6.4-15.8-15.2c0-9.3,6.5-15.4,16.6-15.4c5.7,0,11.7,2.9,11.8,3c0.3,0.1,0.6,0.2,0.9,0c0.3-0.1,0.5-0.3,0.7-0.6
						l2.9-7.1c0.2-0.5,0-1.1-0.5-1.4c-0.3-0.2-6.7-4-17.1-4c-14.6,0-26.4,11.4-26.4,25.4c0,15,11.3,25.4,27.6,25.4
						c9.8,0,16-4,16.2-4.1c0.5-0.3,0.6-0.9,0.5-1.4L77.9,186.3z"/>
					<path class="st2" d="M93.4,198.1h30.5c0.6,0,1.2-0.5,1.2-1.2v-7.6c0-0.6-0.5-1.2-1.2-1.2h-21.1v-8.9h19c0.6,0,1.2-0.5,1.2-1.2
						v-7.3c0-0.6-0.5-1.2-1.2-1.2h-19v-10.8h21.1c0.6,0,1.2-0.5,1.2-1.2V150c0-0.6-0.5-1.2-1.2-1.2H93.4c-0.6,0-1.2,0.5-1.2,1.2
						v46.9C92.2,197.6,92.8,198.1,93.4,198.1z"/>
					<path class="st2" d="M222.9,148.9h-39.4c-0.6,0-1.2,0.5-1.2,1.2v7.6c0,0.6,0.5,1.2,1.2,1.2h14.5v38.1c0,0.6,0.5,1.2,1.2,1.2
						h8.3c0.6,0,1.2-0.5,1.2-1.2v-38.1h14.3c0.6,0,1.2-0.5,1.2-1.2V150C224,149.4,223.5,148.9,222.9,148.9z"/>
					<path class="st2" d="M244,148.9h-8.3c-0.6,0-1.2,0.5-1.2,1.2v46.9c0,0.6,0.5,1.2,1.2,1.2h8.3c0.6,0,1.2-0.5,1.2-1.2V150
						C245.2,149.4,244.7,148.9,244,148.9z"/>
					<path class="st2" d="M290.4,148.9H260c-0.6,0-1.2,0.5-1.2,1.2v46.9c0,0.6,0.5,1.2,1.2,1.2h8.2c0.6,0,1.2-0.5,1.2-1.2v-17.1
						h18.6c0.6,0,1.2-0.5,1.2-1.2v-7.3c0-0.6-0.5-1.2-1.2-1.2h-18.6v-11.4h21.1c0.6,0,1.2-0.5,1.2-1.2V150
						C291.6,149.4,291.1,148.9,290.4,148.9z"/>
					<path class="st2" d="M312.7,148.9h-8.3c-0.6,0-1.2,0.5-1.2,1.2v46.9c0,0.6,0.5,1.2,1.2,1.2h8.3c0.6,0,1.2-0.5,1.2-1.2V150
						C313.8,149.4,313.3,148.9,312.7,148.9z"/>
					<path class="st2" d="M359.1,148.9h-30.5c-0.6,0-1.2,0.5-1.2,1.2v46.9c0,0.6,0.5,1.2,1.2,1.2h30.5c0.6,0,1.2-0.5,1.2-1.2v-7.6
						c0-0.6-0.5-1.2-1.2-1.2H338v-8.9h19c0.6,0,1.2-0.5,1.2-1.2v-7.3c0-0.6-0.5-1.2-1.2-1.2h-19v-10.8h21.1c0.6,0,1.2-0.5,1.2-1.2
						V150C360.2,149.4,359.7,148.9,359.1,148.9z"/>
					<path class="st2" d="M391.6,148.9h-17.7c-0.6,0-1.2,0.5-1.2,1.2v46.9c0,0.6,0.5,1.2,1.2,1.2h17.7c15,0,26.2-10.6,26.2-24.6
						C417.8,159.2,406.8,148.9,391.6,148.9z M391.6,188.2h-8.3v-29.4h8.3c8.7,0,15,6.2,15,14.8C406.6,181.9,400.2,188.2,391.6,188.2
						z"/>
					<path class="st2" d="M166.8,181.4c5.2-2.9,7.9-8,7.9-14.7c0-11.2-7.4-17.8-19.9-17.8h-15c-0.6,0-1.2,0.5-1.2,1.2v46.9
						c0,0.6,0.5,1.2,1.2,1.2h8.3c0.6,0,1.2-0.5,1.2-1.2v-12.5h4c1.3,0,2.5,0,3.6-0.1l9.6,13.3c0.2,0.3,0.6,0.5,0.9,0.5h9.7
						c0.4,0,0.8-0.2,1-0.6c0.2-0.4,0.2-0.9-0.1-1.2L166.8,181.4z M149.3,158.8h5c6.2,0,9.3,2.6,9.3,7.9c0,5.4-3.1,8.1-9.3,8.1h-5
						V158.8z"/>
				</g>
			</g>
		</g>
		<g>
			<g>
				<path class="st3" d="M216.5,43.8c4-4.2,9.6-6.8,15.8-6.8c8.2,0,15.4,4.6,19.2,11.4c3.3-1.5,7-2.3,10.9-2.3
					c14.8,0,26.9,12.1,26.9,27.1c0,15-12,27.1-26.9,27.1c-1.8,0-3.6-0.2-5.3-0.5c-3.4,6-9.8,10.1-17.1,10.1c-3.1,0-6-0.7-8.6-2
					c-3.4,8-11.4,13.7-20.6,13.7c-9.6,0-17.9-6.1-21-14.7c-1.4,0.3-2.8,0.4-4.3,0.4c-11.5,0-20.8-9.4-20.8-21
					c0-7.8,4.2-14.6,10.4-18.2c-1.3-2.9-2-6.2-2-9.6c0-13.3,10.8-24.2,24.2-24.2C205.2,34.3,212.1,38,216.5,43.8z"/>
			</g>
		</g>
	</g>
</g>
</svg>
